<svg width="46" height="77" viewBox="0 0 46 77" fill="none" xmlns="http://www.w3.org/2000/svg">
<g opacity="0.5">
<path fill-rule="evenodd" clip-rule="evenodd" d="M-10.8827 14.8201C-8.98861 11.5394 -4.96517 10.3163 -1.89613 12.0882L34.4769 33.0882C37.546 34.8601 38.4985 38.9561 36.6043 42.2368L25.3802 61.6776C23.4861 64.9583 19.4627 66.1814 16.3936 64.4095L-19.9795 43.4095C-23.0485 41.6376 -24.001 37.5416 -22.1069 34.2609L-10.8827 14.8201Z" fill="#DDFCED"/>
<path fill-rule="evenodd" clip-rule="evenodd" d="M9.3487 34.6114C7.33987 33.4516 4.77119 34.1399 3.61139 36.1487C2.4516 38.1575 3.13987 40.7262 5.1487 41.886C7.15753 43.0458 9.72621 42.3575 10.886 40.3487C12.0458 38.3399 11.3575 35.7712 9.3487 34.6114ZM1.18652 34.7487C3.11952 31.4007 7.40065 30.2535 10.7487 32.1865C14.0967 34.1195 15.2439 38.4007 13.3109 41.7487C11.3779 45.0967 7.09675 46.2439 3.7487 44.3109C0.400653 42.3779 -0.746473 38.0967 1.18652 34.7487Z" fill="#12BF6C" fill-opacity="0.8"/>
<path fill-rule="evenodd" clip-rule="evenodd" d="M18.8677 44.957C19.3509 44.1199 20.4212 43.8332 21.2582 44.3164L23.2992 45.4947C24.1362 45.978 24.4229 47.0483 23.9397 47.8853C23.4564 48.7223 22.3862 49.0091 21.5492 48.5258L19.5082 47.3475C18.6712 46.8642 18.3844 45.794 18.8677 44.957Z" fill="#12BF6C" fill-opacity="0.8"/>
</g>
</svg>
