<svg width="28" height="28" viewBox="0 0 28 28" fill="none" xmlns="http://www.w3.org/2000/svg">
<rect width="28" height="28" rx="14" fill="white"/>
<path d="M21.7427 7.84319C21.3171 7.41736 20.8118 7.07956 20.2555 6.84909C19.6993 6.61862 19.1032 6.5 18.5011 6.5C17.899 6.5 17.3028 6.61862 16.7466 6.84909C16.1904 7.07956 15.685 7.41736 15.2594 7.84319L14.3761 8.72652L13.4927 7.84319C12.633 6.98344 11.4669 6.50045 10.2511 6.50045C9.03522 6.50045 7.86915 6.98344 7.00941 7.84319C6.14967 8.70293 5.66667 9.86899 5.66667 11.0849C5.66667 12.3007 6.14967 13.4668 7.00941 14.3265L7.89274 15.2099L14.3761 21.6932L20.8594 15.2099L21.7427 14.3265C22.1686 13.9009 22.5064 13.3955 22.7368 12.8393C22.9673 12.2831 23.0859 11.6869 23.0859 11.0849C23.0859 10.4828 22.9673 9.88661 22.7368 9.33039C22.5064 8.77418 22.1686 8.26882 21.7427 7.84319V7.84319Z" fill="#EB1537" stroke="#EB1537" stroke-width="2" stroke-linecap="round" stroke-linejoin="round"/>
</svg>
