<svg width="80" height="24" viewBox="0 0 80 24" fill="none" xmlns="http://www.w3.org/2000/svg">
<path d="M0 15.1127V15.0482C0 10.1078 3.99019 6.09709 9.36234 6.09709C14.703 6.09709 18.6585 10.0438 18.6585 14.9841V15.0482C18.6585 19.9886 14.67 24 9.29766 24C3.95851 24 0 20.0513 0 15.1127ZM20.8126 2.43959C20.8126 1.0931 21.9066 0 23.2573 0C24.6092 0 25.7014 1.0931 25.7014 2.43959V21.3689C25.7014 22.716 24.6092 23.8071 23.2573 23.8071C21.9066 23.8071 20.8126 22.716 20.8126 21.3689V2.43959ZM27.8567 15.1127V15.0482C27.8567 10.1394 31.6203 6.09709 36.8963 6.09709C39.5016 6.09709 41.3355 6.80359 42.7832 8.0215C43.1059 8.27777 43.5547 8.85701 43.5547 9.69031C43.5547 10.9089 42.5584 11.8725 41.3355 11.8725C40.6918 11.8725 40.2098 11.6149 39.92 11.3907C39.0513 10.7171 38.1511 10.2996 36.865 10.2996C34.4192 10.2996 32.6813 12.4502 32.6813 14.9841V15.0482C32.6813 17.6796 34.3875 19.7973 37.0569 19.7973C38.3447 19.7973 39.341 19.3464 40.2744 18.6105C40.5323 18.4154 41.0143 18.1596 41.5933 18.1596C42.7504 18.1596 43.6526 19.0906 43.6526 20.2462C43.6526 20.8886 43.3624 21.4002 42.944 21.7864C41.4974 23.1 39.6635 24 36.832 24C31.6533 24 27.8567 20.0215 27.8567 15.1127ZM46.0958 2.43959C46.0958 1.0931 47.1898 0 48.5403 0C49.8924 0 50.9844 1.0931 50.9844 2.43959V8.85569C52.1103 7.41287 53.5581 6.09731 56.0358 6.09731C59.7348 6.09731 61.8911 8.5358 61.8911 12.4805V21.3689C61.8911 22.716 60.7955 23.8071 59.4452 23.8071C58.0945 23.8071 57.0009 22.716 57.0009 21.3689V14.0207C57.0009 11.7113 55.9067 10.5241 54.0414 10.5241C52.1744 10.5241 50.9844 11.7113 50.9844 14.0207V21.3689C50.9844 22.716 49.8924 23.8071 48.5403 23.8071C47.1898 23.8071 46.0958 22.716 46.0958 21.3689V2.43959ZM64.1418 18.6726V18.6098C64.1418 14.8551 67.005 13.1236 71.0898 13.1236C72.8257 13.1236 74.0818 13.4125 75.3028 13.8285V13.5409C75.3028 11.5188 74.0486 10.3966 71.6041 10.3966C70.2522 10.3966 69.158 10.5879 68.2266 10.8784C67.9364 10.9743 67.7433 11.0059 67.518 11.0059C66.3927 11.0059 65.4921 10.139 65.4921 9.01673C65.4921 8.15008 66.0383 7.41265 66.8101 7.12325C68.3535 6.54556 70.0267 6.22544 72.3125 6.22544C74.982 6.22544 76.9118 6.93194 78.1349 8.15008C79.4208 9.43405 80 11.3275 80 13.6366V21.4656C80 22.7814 78.9392 23.808 77.6199 23.808C76.2034 23.808 75.27 22.8126 75.27 21.786V21.7542C74.0818 23.0684 72.4398 23.9351 70.0587 23.9351C66.8101 23.9351 64.1418 22.0749 64.1418 18.6726ZM75.3675 17.5503V16.6839C74.5319 16.3008 73.4379 16.0432 72.2478 16.0432C70.1561 16.0432 68.8698 16.877 68.8698 18.4168V18.4813C68.8698 19.7968 69.9638 20.5663 71.5398 20.5663C73.8233 20.5663 75.3675 19.3166 75.3675 17.5503ZM13.8339 15.1127V15.0482C13.8339 12.5147 12.0007 10.2996 9.29766 10.2996C6.49917 10.2996 4.82593 12.4502 4.82593 14.9841V15.0482C4.82593 17.5821 6.65976 19.7973 9.36234 19.7973C12.1626 19.7973 13.8339 17.6466 13.8339 15.1127Z" fill="white"/>
</svg>
