<svg width="46" height="77" viewBox="0 0 46 77" fill="none" xmlns="http://www.w3.org/2000/svg">
<g opacity="0.5">
<path fill-rule="evenodd" clip-rule="evenodd" d="M-8.64095 15.6035C-4.93604 9.18646 3.26946 6.9878 9.68656 10.6927L29.8938 22.3594C36.3109 26.0643 38.5096 34.2698 34.8047 40.6869L23.138 60.8941C19.4331 67.3112 11.2276 69.5099 4.81048 65.805L-15.3968 54.1383C-21.8139 50.4334 -24.0125 42.2279 -20.3076 35.8108L-8.64095 15.6035Z" fill="#EAF2FF"/>
<path d="M14.4505 39.3088C15.0949 38.1928 16.5219 37.8104 17.6379 38.4548L21.255 40.5431C22.371 41.1874 22.7534 42.6145 22.1091 43.7305L14.4674 56.9662L6.80885 52.5446L14.4505 39.3088Z" fill="#2676FF" fill-opacity="0.8"/>
<path d="M-7.59147 32.7795C-6.94714 31.6635 -5.5201 31.2811 -4.40408 31.9255L-0.786979 34.0138C0.329037 34.6581 0.711412 36.0852 0.0670796 37.2012L-4.90292 45.8095L-12.5615 41.3878L-7.59147 32.7795Z" fill="#2676FF" fill-opacity="0.8"/>
<path d="M15.0871 28.2254L12.0155 26.4521C10.7425 25.7171 9.1169 26.1527 8.3819 27.4257L-2.88814 46.946L4.77043 51.3677L16.0405 31.8474C16.7755 30.5743 16.3601 28.9604 15.0871 28.2254Z" fill="#2676FF" fill-opacity="0.8"/>
</g>
</svg>
