<svg width="29" height="20" viewBox="0 0 29 20" fill="none" xmlns="http://www.w3.org/2000/svg">
<g clip-path="url(#clip0_3399_7403)">
<path d="M26.5 0.25H2.5C1.5335 0.25 0.75 1.0335 0.75 2V18C0.75 18.9665 1.5335 19.75 2.5 19.75H26.5C27.4665 19.75 28.25 18.9665 28.25 18V2C28.25 1.0335 27.4665 0.25 26.5 0.25Z" fill="white" stroke="#F5F5F5" stroke-width="0.5"/>
<mask id="mask0_3399_7403" style="mask-type:alpha" maskUnits="userSpaceOnUse" x="0" y="0" width="29" height="20">
<path d="M26.5 0.25H2.5C1.5335 0.25 0.75 1.0335 0.75 2V18C0.75 18.9665 1.5335 19.75 2.5 19.75H26.5C27.4665 19.75 28.25 18.9665 28.25 18V2C28.25 1.0335 27.4665 0.25 26.5 0.25Z" fill="white" stroke="white" stroke-width="0.5"/>
</mask>
<g mask="url(#mask0_3399_7403)">
<path fill-rule="evenodd" clip-rule="evenodd" d="M0.5 6.66667H28.5V0H0.5V6.66667Z" fill="#04AAC8"/>
<path fill-rule="evenodd" clip-rule="evenodd" d="M0.5 20H28.5V13.3333H0.5V20Z" fill="#23C840"/>
<path fill-rule="evenodd" clip-rule="evenodd" d="M5.16663 5.33325C5.5779 5.33325 5.96019 5.20911 6.27805 4.99625C6.24122 4.99868 6.20407 4.99991 6.16663 4.99991C5.24616 4.99991 4.49997 4.25372 4.49997 3.33325C4.49997 2.41277 5.24616 1.66658 6.16663 1.66658C6.20407 1.66658 6.24123 1.66782 6.27805 1.67025C5.96019 1.45739 5.5779 1.33325 5.16663 1.33325C4.06206 1.33325 3.16663 2.22868 3.16663 3.33325C3.16663 4.43782 4.06206 5.33325 5.16663 5.33325ZM8.49996 4.66658C8.49996 5.03477 8.20148 5.33325 7.83329 5.33325C7.4651 5.33325 7.16663 5.03477 7.16663 4.66658C7.16663 4.29839 7.4651 3.99991 7.83329 3.99991C8.20148 3.99991 8.49996 4.29839 8.49996 4.66658ZM10.4999 2.66658C10.8681 2.66658 11.1666 2.3681 11.1666 1.99991C11.1666 1.63173 10.8681 1.33325 10.4999 1.33325C10.1318 1.33325 9.83329 1.63173 9.83329 1.99991C9.83329 2.3681 10.1318 2.66658 10.4999 2.66658ZM13.8333 1.99991C13.8333 2.3681 13.5348 2.66658 13.1666 2.66658C12.7984 2.66658 12.5 2.3681 12.5 1.99991C12.5 1.63173 12.7984 1.33325 13.1666 1.33325C13.5348 1.33325 13.8333 1.63173 13.8333 1.99991ZM13.1666 5.33325C13.5348 5.33325 13.8333 5.03477 13.8333 4.66658C13.8333 4.29839 13.5348 3.99991 13.1666 3.99991C12.7984 3.99991 12.5 4.29839 12.5 4.66658C12.5 5.03477 12.7984 5.33325 13.1666 5.33325ZM11.1666 4.66658C11.1666 5.03477 10.8681 5.33325 10.4999 5.33325C10.1318 5.33325 9.83329 5.03477 9.83329 4.66658C9.83329 4.29839 10.1318 3.99991 10.4999 3.99991C10.8681 3.99991 11.1666 4.29839 11.1666 4.66658Z" fill="white"/>
</g>
</g>
<defs>
<clipPath id="clip0_3399_7403">
<rect width="28" height="20" fill="white" transform="translate(0.5)"/>
</clipPath>
</defs>
</svg>
