<svg width="25" height="24" viewBox="0 0 25 24" fill="none" xmlns="http://www.w3.org/2000/svg">
<path d="M4.5 6.6L7.16667 3H17.8333L20.5 6.6M4.5 6.6V19.2C4.5 19.6774 4.6873 20.1352 5.0207 20.4728C5.3541 20.8104 5.80628 21 6.27778 21H18.7222C19.1937 21 19.6459 20.8104 19.9793 20.4728C20.3127 20.1352 20.5 19.6774 20.5 19.2V6.6M4.5 6.6H20.5M16.0556 10.2C16.0556 11.1548 15.681 12.0705 15.0142 12.7456C14.3474 13.4207 13.443 13.8 12.5 13.8C11.557 13.8 10.6526 13.4207 9.98584 12.7456C9.31905 12.0705 8.94444 11.1548 8.94444 10.2" stroke="#999999" stroke-width="2" stroke-linecap="round" stroke-linejoin="round"/>
</svg>
