<svg width="24" height="24" viewBox="0 0 24 24" fill="none" xmlns="http://www.w3.org/2000/svg">
<path fill-rule="evenodd" clip-rule="evenodd" d="M6 2C3.79086 2 2 3.79086 2 6V18C2 20.2091 3.79086 22 6 22H18C20.2091 22 22 20.2091 22 18V6C22 3.79086 20.2091 2 18 2H6ZM15.7369 8.29043L10.4369 13.5904L8.31692 11.4704C8.22727 11.3657 8.11695 11.2807 7.99289 11.2207C7.86882 11.1607 7.73369 11.1269 7.59597 11.1216C7.45825 11.1163 7.32092 11.1395 7.19259 11.1898C7.06427 11.2401 6.94772 11.3163 6.85027 11.4138C6.75281 11.5112 6.67655 11.6278 6.62628 11.7561C6.576 11.8844 6.5528 12.0218 6.55812 12.1595C6.56344 12.2972 6.59717 12.4323 6.65719 12.5564C6.71721 12.6805 6.80224 12.7908 6.90692 12.8804L9.73692 15.7104C9.92318 15.8952 10.1746 15.9993 10.4369 16.0004C10.5685 16.0012 10.699 15.976 10.8208 15.9262C10.9427 15.8764 11.0535 15.8031 11.1469 15.7104L17.1469 9.71043C17.2406 9.61746 17.315 9.50686 17.3658 9.385C17.4166 9.26314 17.4427 9.13244 17.4427 9.00043C17.4427 8.86841 17.4166 8.73771 17.3658 8.61585C17.315 8.49399 17.2406 8.38339 17.1469 8.29043C16.9596 8.10418 16.7061 7.99963 16.4419 7.99963C16.1777 7.99963 15.9243 8.10418 15.7369 8.29043Z" fill="#DA002B"/>
</svg>
