<svg width="32" height="32" viewBox="0 0 32 32" fill="none" xmlns="http://www.w3.org/2000/svg">
<g clip-path="url(#clip0_2161_11592)">
<path fill-rule="evenodd" clip-rule="evenodd" d="M0.768155 3.5935C0.0175781 5.03843 0.0175781 6.93673 0.0175781 10.7333V21.2667C0.0175781 25.0633 0.0175781 26.9616 0.768155 28.4065C1.40066 29.6241 2.39346 30.6169 3.61108 31.2494C5.056 32 6.95431 32 10.7509 32H21.2842C25.0808 32 26.9792 32 28.4241 31.2494C29.6417 30.6169 30.6345 29.6241 31.267 28.4065C32.0176 26.9616 32.0176 25.0633 32.0176 21.2667V10.7333C32.0176 6.93673 32.0176 5.03843 31.267 3.5935C30.6345 2.37588 29.6417 1.38308 28.4241 0.750577C26.9792 0 25.0808 0 21.2842 0H10.7509C6.95431 0 5.056 0 3.61108 0.750577C2.39346 1.38308 1.40066 2.37588 0.768155 3.5935ZM11.2019 4.43395C12.4431 4.37747 12.8396 4.36365 15.9998 4.36365H15.9962C19.1573 4.36365 19.5524 4.37747 20.7936 4.43395C22.0323 4.49068 22.8784 4.6868 23.6202 4.97456C24.3862 5.27153 25.0335 5.6691 25.6807 6.31637C26.328 6.96316 26.7255 7.61237 27.0237 8.37771C27.3098 9.11759 27.5061 9.96316 27.5643 11.202C27.62 12.4432 27.6346 12.8398 27.6346 16C27.6346 19.1603 27.62 19.5559 27.5643 20.7971C27.5061 22.0354 27.3098 22.8812 27.0237 23.6213C26.7255 24.3864 26.328 25.0356 25.6807 25.6824C25.0342 26.3297 24.386 26.7283 23.6209 27.0255C22.8806 27.3132 22.034 27.5093 20.7953 27.5661C19.5541 27.6226 19.1587 27.6364 15.9983 27.6364C12.8384 27.6364 12.4421 27.6226 11.2009 27.5661C9.9624 27.5093 9.11661 27.3132 8.37627 27.0255C7.61144 26.7283 6.96225 26.3297 6.31572 25.6824C5.66871 25.0356 5.27115 24.3864 4.9737 23.6211C4.6862 22.8812 4.49008 22.0356 4.43311 20.7969C4.37687 19.5556 4.36281 19.1603 4.36281 16C4.36281 12.8398 4.37736 12.4429 4.43287 11.2017C4.48863 9.9634 4.68498 9.11759 4.97346 8.37747C5.27163 7.61237 5.6692 6.96316 6.31645 6.31637C6.96322 5.66934 7.61241 5.27177 8.37772 4.97456C9.11758 4.6868 9.96313 4.49068 11.2019 4.43395ZM15.612 6.4605C15.3767 6.4604 15.1586 6.4603 14.9559 6.46062V6.45771C12.7873 6.46013 12.3713 6.47468 11.2979 6.52316C10.1634 6.57528 9.54738 6.76437 9.13721 6.92437C8.5942 7.13577 8.20633 7.38789 7.79907 7.79516C7.39181 8.20243 7.13921 8.59031 6.92831 9.13334C6.76904 9.54353 6.57947 10.1593 6.5276 11.2938C6.47184 12.5205 6.46069 12.887 6.46069 15.9944C6.46069 19.1018 6.47184 19.4703 6.5276 20.697C6.57923 21.8315 6.76904 22.4473 6.92831 22.857C7.1397 23.4003 7.39181 23.7872 7.79907 24.1944C8.20633 24.6017 8.5942 24.8538 9.13721 25.0647C9.54763 25.224 10.1634 25.4136 11.2979 25.466C12.5245 25.5217 12.8927 25.5338 15.9998 25.5338C19.1066 25.5338 19.4751 25.5217 20.7017 25.466C21.8362 25.4141 22.4524 25.225 22.8621 25.065C23.4054 24.8541 23.792 24.6019 24.1993 24.1947C24.6066 23.7876 24.8592 23.401 25.0701 22.858C25.2293 22.4483 25.4189 21.8325 25.4708 20.698C25.5265 19.4713 25.5387 19.1028 25.5387 15.9973C25.5387 12.8919 25.5265 12.5234 25.4708 11.2967C25.4191 10.1622 25.2293 9.54644 25.0701 9.13674C24.8587 8.59371 24.6066 8.20583 24.1993 7.79856C23.7923 7.39128 23.4051 7.13916 22.8621 6.92825C22.452 6.76898 21.8362 6.57941 20.7017 6.52753C19.4748 6.47177 19.1066 6.46062 15.9998 6.46062C15.8655 6.46062 15.7363 6.46056 15.612 6.4605ZM20.8147 9.78862C20.8147 9.01746 21.4401 8.39274 22.211 8.39274V8.39225C22.9819 8.39225 23.6073 9.01771 23.6073 9.78862C23.6073 10.5595 22.9819 11.185 22.211 11.185C21.4401 11.185 20.8147 10.5595 20.8147 9.78862ZM10.0242 16C10.0242 12.7 12.6996 10.0244 15.9996 10.0243C19.2996 10.0243 21.9744 12.6999 21.9744 16C21.9744 19.3001 19.2998 21.9746 15.9998 21.9746C12.6998 21.9746 10.0242 19.3001 10.0242 16ZM19.8785 16C19.8785 13.8577 18.1418 12.1212 15.9998 12.1212C13.8576 12.1212 12.1211 13.8577 12.1211 16C12.1211 18.1421 13.8576 19.8788 15.9998 19.8788C18.1418 19.8788 19.8785 18.1421 19.8785 16Z" fill="url(#paint0_radial_2161_11592)"/>
<path fill-rule="evenodd" clip-rule="evenodd" d="M0.768155 3.5935C0.0175781 5.03843 0.0175781 6.93673 0.0175781 10.7333V21.2667C0.0175781 25.0633 0.0175781 26.9616 0.768155 28.4065C1.40066 29.6241 2.39346 30.6169 3.61108 31.2494C5.056 32 6.95431 32 10.7509 32H21.2842C25.0808 32 26.9792 32 28.4241 31.2494C29.6417 30.6169 30.6345 29.6241 31.267 28.4065C32.0176 26.9616 32.0176 25.0633 32.0176 21.2667V10.7333C32.0176 6.93673 32.0176 5.03843 31.267 3.5935C30.6345 2.37588 29.6417 1.38308 28.4241 0.750577C26.9792 0 25.0808 0 21.2842 0H10.7509C6.95431 0 5.056 0 3.61108 0.750577C2.39346 1.38308 1.40066 2.37588 0.768155 3.5935ZM11.2019 4.43395C12.4431 4.37747 12.8396 4.36365 15.9998 4.36365H15.9962C19.1573 4.36365 19.5524 4.37747 20.7936 4.43395C22.0323 4.49068 22.8784 4.6868 23.6202 4.97456C24.3862 5.27153 25.0335 5.6691 25.6807 6.31637C26.328 6.96316 26.7255 7.61237 27.0237 8.37771C27.3098 9.11759 27.5061 9.96316 27.5643 11.202C27.62 12.4432 27.6346 12.8398 27.6346 16C27.6346 19.1603 27.62 19.5559 27.5643 20.7971C27.5061 22.0354 27.3098 22.8812 27.0237 23.6213C26.7255 24.3864 26.328 25.0356 25.6807 25.6824C25.0342 26.3297 24.386 26.7283 23.6209 27.0255C22.8806 27.3132 22.034 27.5093 20.7953 27.5661C19.5541 27.6226 19.1587 27.6364 15.9983 27.6364C12.8384 27.6364 12.4421 27.6226 11.2009 27.5661C9.9624 27.5093 9.11661 27.3132 8.37627 27.0255C7.61144 26.7283 6.96225 26.3297 6.31572 25.6824C5.66871 25.0356 5.27115 24.3864 4.9737 23.6211C4.6862 22.8812 4.49008 22.0356 4.43311 20.7969C4.37687 19.5556 4.36281 19.1603 4.36281 16C4.36281 12.8398 4.37736 12.4429 4.43287 11.2017C4.48863 9.9634 4.68498 9.11759 4.97346 8.37747C5.27163 7.61237 5.6692 6.96316 6.31645 6.31637C6.96322 5.66934 7.61241 5.27177 8.37772 4.97456C9.11758 4.6868 9.96313 4.49068 11.2019 4.43395ZM15.612 6.4605C15.3767 6.4604 15.1586 6.4603 14.9559 6.46062V6.45771C12.7873 6.46013 12.3713 6.47468 11.2979 6.52316C10.1634 6.57528 9.54738 6.76437 9.13721 6.92437C8.5942 7.13577 8.20633 7.38789 7.79907 7.79516C7.39181 8.20243 7.13921 8.59031 6.92831 9.13334C6.76904 9.54353 6.57947 10.1593 6.5276 11.2938C6.47184 12.5205 6.46069 12.887 6.46069 15.9944C6.46069 19.1018 6.47184 19.4703 6.5276 20.697C6.57923 21.8315 6.76904 22.4473 6.92831 22.857C7.1397 23.4003 7.39181 23.7872 7.79907 24.1944C8.20633 24.6017 8.5942 24.8538 9.13721 25.0647C9.54763 25.224 10.1634 25.4136 11.2979 25.466C12.5245 25.5217 12.8927 25.5338 15.9998 25.5338C19.1066 25.5338 19.4751 25.5217 20.7017 25.466C21.8362 25.4141 22.4524 25.225 22.8621 25.065C23.4054 24.8541 23.792 24.6019 24.1993 24.1947C24.6066 23.7876 24.8592 23.401 25.0701 22.858C25.2293 22.4483 25.4189 21.8325 25.4708 20.698C25.5265 19.4713 25.5387 19.1028 25.5387 15.9973C25.5387 12.8919 25.5265 12.5234 25.4708 11.2967C25.4191 10.1622 25.2293 9.54644 25.0701 9.13674C24.8587 8.59371 24.6066 8.20583 24.1993 7.79856C23.7923 7.39128 23.4051 7.13916 22.8621 6.92825C22.452 6.76898 21.8362 6.57941 20.7017 6.52753C19.4748 6.47177 19.1066 6.46062 15.9998 6.46062C15.8655 6.46062 15.7363 6.46056 15.612 6.4605ZM20.8147 9.78862C20.8147 9.01746 21.4401 8.39274 22.211 8.39274V8.39225C22.9819 8.39225 23.6073 9.01771 23.6073 9.78862C23.6073 10.5595 22.9819 11.185 22.211 11.185C21.4401 11.185 20.8147 10.5595 20.8147 9.78862ZM10.0242 16C10.0242 12.7 12.6996 10.0244 15.9996 10.0243C19.2996 10.0243 21.9744 12.6999 21.9744 16C21.9744 19.3001 19.2998 21.9746 15.9998 21.9746C12.6998 21.9746 10.0242 19.3001 10.0242 16ZM19.8785 16C19.8785 13.8577 18.1418 12.1212 15.9998 12.1212C13.8576 12.1212 12.1211 13.8577 12.1211 16C12.1211 18.1421 13.8576 19.8788 15.9998 19.8788C18.1418 19.8788 19.8785 18.1421 19.8785 16Z" fill="white"/>
</g>
<defs>
<radialGradient id="paint0_radial_2161_11592" cx="0" cy="0" r="1" gradientUnits="userSpaceOnUse" gradientTransform="translate(8.51762 34.4647) rotate(-90) scale(31.7144 29.4969)">
<stop stop-color="#FFDD55"/>
<stop offset="0.1" stop-color="#FFDD55"/>
<stop offset="0.5" stop-color="#FF543E"/>
<stop offset="1" stop-color="#C837AB"/>
</radialGradient>
<clipPath id="clip0_2161_11592">
<rect width="32" height="32" rx="16" fill="white"/>
</clipPath>
</defs>
</svg>
