<svg width="21" height="20" viewBox="0 0 21 20" fill="none" xmlns="http://www.w3.org/2000/svg">
<path d="M17.7431 3.84319C17.3174 3.41736 16.8121 3.07956 16.2559 2.84909C15.6996 2.61862 15.1035 2.5 14.5014 2.5C13.8993 2.5 13.3032 2.61862 12.7469 2.84909C12.1907 3.07956 11.6854 3.41736 11.2597 3.84319L10.3764 4.72652L9.49307 3.84319C8.63332 2.98344 7.46726 2.50045 6.2514 2.50045C5.03554 2.50045 3.86948 2.98344 3.00973 3.84319C2.14999 4.70293 1.66699 5.86899 1.66699 7.08485C1.66699 8.30072 2.14999 9.46678 3.00973 10.3265L3.89307 11.2099L10.3764 17.6932L16.8597 11.2099L17.7431 10.3265C18.1689 9.90089 18.5067 9.39553 18.7372 8.83932C18.9676 8.2831 19.0863 7.68693 19.0863 7.08485C19.0863 6.48278 18.9676 5.88661 18.7372 5.33039C18.5067 4.77418 18.1689 4.26882 17.7431 3.84319Z" fill="#EB1537" stroke="#EB1537" stroke-width="2" stroke-linecap="round" stroke-linejoin="round"/>
</svg>
