<svg width="16" height="16" viewBox="0 0 16 16" fill="none" xmlns="http://www.w3.org/2000/svg">
<circle cx="8" cy="8" r="8" fill="#12BF6C"/>
<path d="M12.3192 6.16653L7.15 11.52C7.06923 11.6005 7.02885 11.6005 6.90769 11.6005C6.82692 11.6005 6.70577 11.5602 6.66538 11.52L4.16154 8.82313L4.08077 8.74263C4.04038 8.66213 4 8.58162 4 8.50112C4 8.42062 4.04038 8.34012 4.08077 8.25961L4.525 7.81685C4.64615 7.69609 4.84808 7.69609 4.96923 7.81685L5.00962 7.8571L6.82692 9.78917C6.90769 9.86968 6.98846 9.86968 7.06923 9.78917L11.35 5.281H11.3904C11.5115 5.16024 11.7135 5.16024 11.8346 5.281L12.2788 5.72376C12.4404 5.84452 12.4404 6.04578 12.3192 6.16653Z" fill="white"/>
</svg>
