<svg width="20" height="20" viewBox="0 0 20 20" fill="none" xmlns="http://www.w3.org/2000/svg">
<path d="M9.99935 1.66699C7.863 1.67309 5.81059 2.49942 4.26602 3.97533V2.50033C4.26602 2.27931 4.17822 2.06735 4.02194 1.91107C3.86566 1.75479 3.6537 1.66699 3.43268 1.66699C3.21167 1.66699 2.99971 1.75479 2.84343 1.91107C2.68715 2.06735 2.59935 2.27931 2.59935 2.50033V6.25033C2.59935 6.47134 2.68715 6.6833 2.84343 6.83958C2.99971 6.99586 3.21167 7.08366 3.43268 7.08366H7.18268C7.4037 7.08366 7.61566 6.99586 7.77194 6.83958C7.92822 6.6833 8.01602 6.47134 8.01602 6.25033C8.01602 6.02931 7.92822 5.81735 7.77194 5.66107C7.61566 5.50479 7.4037 5.41699 7.18268 5.41699H5.18268C6.25416 4.29729 7.68227 3.58587 9.22146 3.40505C10.7607 3.22423 12.3148 3.5853 13.6166 4.4262C14.9184 5.26709 15.8865 6.53525 16.3546 8.01265C16.8227 9.49005 16.7614 11.0844 16.1814 12.5215C15.6013 13.9586 14.5386 15.1487 13.1761 15.8872C11.8136 16.6258 10.2364 16.8665 8.71565 16.5681C7.19487 16.2697 5.82557 15.4508 4.84317 14.2522C3.86078 13.0535 3.32667 11.5501 3.33268 10.0003C3.33268 9.77931 3.24489 9.56735 3.0886 9.41107C2.93232 9.25479 2.72036 9.16699 2.49935 9.16699C2.27834 9.16699 2.06637 9.25479 1.91009 9.41107C1.75381 9.56735 1.66602 9.77931 1.66602 10.0003C1.66602 11.6485 2.15476 13.2597 3.07044 14.6301C3.98611 16.0005 5.2876 17.0686 6.81032 17.6993C8.33304 18.3301 10.0086 18.4951 11.6251 18.1735C13.2416 17.852 14.7265 17.0583 15.8919 15.8929C17.0573 14.7274 17.851 13.2426 18.1726 11.6261C18.4941 10.0096 18.3291 8.33401 17.6983 6.8113C17.0676 5.28858 15.9995 3.98709 14.6291 3.07141C13.2587 2.15573 11.6475 1.66699 9.99935 1.66699Z" fill="#FD8200"/>
<path d="M9.375 8.33301H11.875C12.0408 8.33301 12.1997 8.26716 12.3169 8.14995C12.4342 8.03274 12.5 7.87377 12.5 7.70801C12.5 7.54225 12.4342 7.38328 12.3169 7.26607C12.1997 7.14886 12.0408 7.08301 11.875 7.08301H10.625V6.45801C10.625 6.29225 10.5592 6.13328 10.4419 6.01607C10.3247 5.89886 10.1658 5.83301 10 5.83301C9.83424 5.83301 9.67527 5.89886 9.55806 6.01607C9.44085 6.13328 9.375 6.29225 9.375 6.45801V7.08301C8.87772 7.08301 8.40081 7.28055 8.04917 7.63218C7.69754 7.98381 7.5 8.46073 7.5 8.95801C7.5 9.45529 7.69754 9.9322 8.04917 10.2838C8.40081 10.6355 8.87772 10.833 9.375 10.833H10.625C10.7908 10.833 10.9497 10.8989 11.0669 11.0161C11.1842 11.1333 11.25 11.2922 11.25 11.458C11.25 11.6238 11.1842 11.7827 11.0669 11.9C10.9497 12.0172 10.7908 12.083 10.625 12.083H8.125C7.95924 12.083 7.80027 12.1489 7.68306 12.2661C7.56585 12.3833 7.5 12.5422 7.5 12.708C7.5 12.8738 7.56585 13.0327 7.68306 13.15C7.80027 13.2672 7.95924 13.333 8.125 13.333H9.375V13.958C9.375 14.1238 9.44085 14.2827 9.55806 14.4C9.67527 14.5172 9.83424 14.583 10 14.583C10.1658 14.583 10.3247 14.5172 10.4419 14.4C10.5592 14.2827 10.625 14.1238 10.625 13.958V13.333C11.1223 13.333 11.5992 13.1355 11.9508 12.7838C12.3025 12.4322 12.5 11.9553 12.5 11.458C12.5 10.9607 12.3025 10.4838 11.9508 10.1322C11.5992 9.78055 11.1223 9.58301 10.625 9.58301H9.375C9.20924 9.58301 9.05027 9.51716 8.93306 9.39995C8.81585 9.28274 8.75 9.12377 8.75 8.95801C8.75 8.79225 8.81585 8.63328 8.93306 8.51607C9.05027 8.39886 9.20924 8.33301 9.375 8.33301Z" fill="#FD8200"/>
</svg>
