<svg width="32" height="32" viewBox="0 0 32 32" fill="none" xmlns="http://www.w3.org/2000/svg">
<g clip-path="url(#clip0_2161_11591)">
<path fill-rule="evenodd" clip-rule="evenodd" d="M0.750577 3.5935C0 5.03843 0 6.93673 0 10.7333V21.2667C0 25.0633 0 26.9616 0.750577 28.4065C1.38308 29.6241 2.37588 30.6169 3.5935 31.2494C5.03843 32 6.93673 32 10.7333 32H21.2667C25.0633 32 26.9616 32 28.4065 31.2494C29.6241 30.6169 30.6169 29.6241 31.2494 28.4065C32 26.9616 32 25.0633 32 21.2667V10.7333C32 6.93673 32 5.03843 31.2494 3.5935C30.6169 2.37588 29.6241 1.38308 28.4065 0.750577C26.9616 0 25.0633 0 21.2667 0H10.7333C6.93673 0 5.03843 0 3.5935 0.750577C2.37588 1.38308 1.38308 2.37588 0.750577 3.5935ZM5.16847 14.9147L24.434 7.48398C25.3139 7.08462 26.1632 7.69546 25.8273 9.04213L22.5465 24.5024C22.3175 25.6011 21.6534 25.864 20.7337 25.3566L15.7357 21.6639L15.6423 21.7547C14.5065 22.859 13.5058 23.832 13.3335 24.0006L13.315 24.0186C13.045 24.2826 12.8221 24.5006 12.3333 24.5006C11.8258 24.5006 11.7835 24.3504 11.6815 23.9888C11.6533 23.8888 11.6205 23.7726 11.5721 23.639L9.73367 18.0024L4.9288 16.5027C3.86136 16.1757 3.85357 15.4423 5.16847 14.9147ZM21.3179 10.825L10.4877 17.6578L12.3127 23.2529L12.6738 19.4017L21.9473 11.0347C22.3543 10.6734 21.8586 10.4971 21.3179 10.825Z" fill="white"/>
</g>
<defs>
<clipPath id="clip0_2161_11591">
<rect width="32" height="32" rx="16" fill="white"/>
</clipPath>
</defs>
</svg>
