<svg width="21" height="20" viewBox="0 0 21 20" fill="none" xmlns="http://www.w3.org/2000/svg">
<path d="M16.0917 6.00822C16.0142 5.93011 15.9221 5.86811 15.8205 5.82581C15.719 5.7835 15.61 5.76172 15.5 5.76172C15.39 5.76172 15.2811 5.7835 15.1796 5.82581C15.078 5.86811 14.9858 5.93011 14.9084 6.00822L8.70004 12.2249L6.09171 9.60822C6.01127 9.53052 5.91632 9.46942 5.81227 9.42842C5.70823 9.38742 5.59713 9.36731 5.48531 9.36924C5.37349 9.37118 5.26315 9.39512 5.16058 9.43969C5.05802 9.48427 4.96524 9.54862 4.88754 9.62905C4.80984 9.70949 4.74875 9.80444 4.70774 9.90848C4.66674 10.0125 4.64663 10.1236 4.64856 10.2354C4.6505 10.3473 4.67444 10.4576 4.71902 10.5602C4.7636 10.6627 4.82794 10.7555 4.90837 10.8332L8.10837 14.0332C8.18584 14.1113 8.27801 14.1733 8.37956 14.2156C8.48111 14.2579 8.59003 14.2797 8.70004 14.2797C8.81005 14.2797 8.91897 14.2579 9.02052 14.2156C9.12207 14.1733 9.21424 14.1113 9.29171 14.0332L16.0917 7.23322C16.1763 7.15518 16.2438 7.06047 16.29 6.95506C16.3361 6.84964 16.36 6.7358 16.36 6.62072C16.36 6.50563 16.3361 6.39179 16.29 6.28638C16.2438 6.18096 16.1763 6.08625 16.0917 6.00822Z" fill="white"/>
</svg>
