<svg width="25" height="24" viewBox="0 0 25 24" fill="none" xmlns="http://www.w3.org/2000/svg">
<path d="M6.2258 11.413H2.5C2.64091 8.95801 3.66356 6.6696 5.41654 4.91654C7.1696 3.16356 9.45801 2.14091 11.913 2V5.7258C10.3625 7.95059 8.45059 9.86252 6.2258 11.413ZM6.2258 12.587H2.5C2.64091 15.042 3.66356 17.3304 5.41654 19.0835C7.16956 20.8365 9.45801 21.8591 11.913 22V18.2742C10.3625 16.0494 8.45059 14.1375 6.2258 12.587ZM18.7742 11.413H22.5C22.3591 8.95801 21.3364 6.6696 19.5835 4.91654C17.8304 3.16356 15.542 2.14091 13.087 2V5.72576C14.6378 7.95078 16.5497 9.86275 18.7742 11.413ZM13.087 18.2742V22C15.542 21.8591 17.8304 20.8364 19.5835 19.0835C21.3365 17.3304 22.3591 15.042 22.5 12.587H18.7742C16.5497 14.1372 14.6378 16.0492 13.087 18.2742Z" fill="#2F2F2F"/>
</svg>
