<svg width="22" height="22" viewBox="0 0 22 22" fill="none" xmlns="http://www.w3.org/2000/svg">
<path d="M2.90625 6.82001L11.0004 11.5042L19.0396 6.84748" stroke="#111111" stroke-width="1.5" stroke-linecap="round" stroke-linejoin="round"/>
<path d="M11 19.8092V11.495" stroke="#111111" stroke-width="1.5" stroke-linecap="round" stroke-linejoin="round"/>
<path d="M9.10305 2.27331L4.20806 4.99584C3.09889 5.61001 2.19141 7.14999 2.19141 8.41499V13.5942C2.19141 14.8592 3.09889 16.3992 4.20806 17.0133L9.10305 19.7359C10.1481 20.3134 11.8622 20.3134 12.9072 19.7359L17.8022 17.0133C18.9114 16.3992 19.8189 14.8592 19.8189 13.5942V8.41499C19.8189 7.14999 18.9114 5.61001 17.8022 4.99584L12.9072 2.27331C11.853 1.68665 10.1481 1.68665 9.10305 2.27331Z" stroke="#111111" stroke-width="1.5" stroke-linecap="round" stroke-linejoin="round"/>
<path d="M15.5839 12.1366V8.78167L6.88477 3.7583" stroke="#111111" stroke-width="1.5" stroke-linecap="round" stroke-linejoin="round"/>
</svg>
