<svg width="14" height="14" viewBox="0 0 14 14" fill="none" xmlns="http://www.w3.org/2000/svg">
<path d="M10.4533 6.77877C10.4256 6.70716 10.3839 6.64174 10.3308 6.58627L7.41417 3.6696C7.35978 3.61521 7.29521 3.57207 7.22415 3.54263C7.15308 3.5132 7.07692 3.49805 7 3.49805C6.84466 3.49805 6.69568 3.55976 6.58583 3.6696C6.53144 3.72399 6.4883 3.78856 6.45887 3.85962C6.42943 3.93068 6.41428 4.00685 6.41428 4.08377C6.41428 4.23911 6.47599 4.38809 6.58583 4.49793L8.51083 6.4171H4.08333C3.92862 6.4171 3.78025 6.47856 3.67085 6.58795C3.56146 6.69735 3.5 6.84572 3.5 7.00043C3.5 7.15514 3.56146 7.30352 3.67085 7.41291C3.78025 7.52231 3.92862 7.58377 4.08333 7.58377H8.51083L6.58583 9.50293C6.53116 9.55716 6.48776 9.62168 6.45815 9.69276C6.42853 9.76385 6.41328 9.84009 6.41328 9.9171C6.41328 9.99411 6.42853 10.0704 6.45815 10.1414C6.48776 10.2125 6.53116 10.277 6.58583 10.3313C6.64006 10.3859 6.70458 10.4293 6.77566 10.459C6.84675 10.4886 6.92299 10.5038 7 10.5038C7.07701 10.5038 7.15325 10.4886 7.22434 10.459C7.29542 10.4293 7.35994 10.3859 7.41417 10.3313L10.3308 7.4146C10.3839 7.35912 10.4256 7.29371 10.4533 7.2221C10.5117 7.08008 10.5117 6.92079 10.4533 6.77877Z" fill="white"/>
</svg>
