<svg width="20" height="20" viewBox="0 0 20 20" fill="none" xmlns="http://www.w3.org/2000/svg">
<path fill-rule="evenodd" clip-rule="evenodd" d="M3.72456 3.72456C3.96864 3.48048 4.36437 3.48048 4.60845 3.72456L9.99986 9.11598L15.3912 3.72461C15.6353 3.48053 16.031 3.48053 16.2751 3.72461C16.5192 3.96869 16.5192 4.36442 16.2751 4.60849L10.8837 9.99986L16.2751 15.3912C16.5191 15.6353 16.5191 16.031 16.2751 16.2751C16.031 16.5191 15.6353 16.5191 15.3912 16.2751L9.99986 10.8837L4.6085 16.2751C4.36442 16.5192 3.96869 16.5192 3.72461 16.2751C3.48053 16.031 3.48053 15.6353 3.72461 15.3912L9.11598 9.99986L3.72456 4.60845C3.48048 4.36437 3.48048 3.96864 3.72456 3.72456Z" fill="#999999"/>
</svg>
