<svg width="25" height="24" viewBox="0 0 25 24" fill="none" xmlns="http://www.w3.org/2000/svg">
<path d="M12.5 13.25C12.9142 13.25 13.25 13.5858 13.25 14V18C13.25 18.4142 12.9142 18.75 12.5 18.75C12.0858 18.75 11.75 18.4142 11.75 18V14C11.75 13.5858 12.0858 13.25 12.5 13.25Z" fill="#2F2F2F"/>
<path fill-rule="evenodd" clip-rule="evenodd" d="M5.75 9.30277V8C5.75 4.27208 8.77208 1.25 12.5 1.25C16.2279 1.25 19.25 4.27208 19.25 8V9.30277C19.4768 9.31872 19.6906 9.33948 19.8918 9.36652C20.7919 9.48754 21.5497 9.74643 22.1517 10.3483C22.7536 10.9503 23.0125 11.7081 23.1335 12.6082C23.25 13.4752 23.25 14.5775 23.25 15.9451V16.0549C23.25 17.4225 23.25 18.5248 23.1335 19.3918C23.0125 20.2919 22.7536 21.0497 22.1517 21.6516C21.5497 22.2536 20.7919 22.5125 19.8918 22.6335C19.0248 22.75 17.9225 22.75 16.5549 22.75H8.44513C7.07754 22.75 5.97522 22.75 5.10825 22.6335C4.20814 22.5125 3.45027 22.2536 2.84835 21.6516C2.24643 21.0497 1.98754 20.2919 1.86652 19.3918C1.74996 18.5248 1.74998 17.4225 1.75 16.0549V15.9451C1.74998 14.5775 1.74996 13.4752 1.86652 12.6082C1.98754 11.7081 2.24643 10.9503 2.84835 10.3483C3.45027 9.74643 4.20814 9.48754 5.10825 9.36652C5.30938 9.33948 5.52317 9.31872 5.75 9.30277ZM7.25 8C7.25 5.10051 9.60051 2.75 12.5 2.75C15.3995 2.75 17.75 5.10051 17.75 8V9.25344C17.3765 9.24999 16.9784 9.24999 16.5549 9.25H8.44513C8.02161 9.24999 7.62353 9.24999 7.25 9.25344V8ZM5.30812 10.8531C4.57435 10.9518 4.18577 11.1322 3.90901 11.409C3.63225 11.6858 3.4518 12.0743 3.35315 12.8081C3.25159 13.5635 3.25 14.5646 3.25 16C3.25 17.4354 3.25159 18.4365 3.35315 19.1919C3.4518 19.9257 3.63225 20.3142 3.90901 20.591C4.18577 20.8678 4.57435 21.0482 5.30812 21.1469C6.06347 21.2484 7.06459 21.25 8.5 21.25H16.5C17.9354 21.25 18.9365 21.2484 19.6919 21.1469C20.4257 21.0482 20.8142 20.8678 21.091 20.591C21.3678 20.3142 21.5482 19.9257 21.6469 19.1919C21.7484 18.4365 21.75 17.4354 21.75 16C21.75 14.5646 21.7484 13.5635 21.6469 12.8081C21.5482 12.0743 21.3678 11.6858 21.091 11.409C20.8142 11.1322 20.4257 10.9518 19.6919 10.8531C18.9365 10.7516 17.9354 10.75 16.5 10.75H8.5C7.06459 10.75 6.06347 10.7516 5.30812 10.8531Z" fill="#2F2F2F"/>
</svg>
