<svg width="16" height="16" viewBox="0 0 16 16" fill="none" xmlns="http://www.w3.org/2000/svg">
<path d="M9.81338 5.85967L6.95338 8.72634L5.85338 7.62634C5.79361 7.55655 5.72007 7.49987 5.63736 7.45986C5.55465 7.41984 5.46456 7.39736 5.37275 7.39381C5.28093 7.39026 5.18938 7.40573 5.10383 7.43925C5.01828 7.47277 4.94058 7.5236 4.87561 7.58857C4.81064 7.65354 4.7598 7.73124 4.72629 7.81679C4.69277 7.90234 4.6773 7.9939 4.68084 8.08571C4.68439 8.17752 4.70688 8.26761 4.74689 8.35032C4.78691 8.43303 4.84359 8.50658 4.91338 8.56634L6.48004 10.1397C6.54234 10.2015 6.61621 10.2503 6.69744 10.2835C6.77866 10.3167 6.86564 10.3335 6.95338 10.333C7.12827 10.3323 7.29587 10.2628 7.42004 10.1397L10.7534 6.80634C10.8159 6.74437 10.8655 6.67063 10.8993 6.58939C10.9332 6.50815 10.9506 6.42102 10.9506 6.33301C10.9506 6.245 10.9332 6.15786 10.8993 6.07662C10.8655 5.99538 10.8159 5.92165 10.7534 5.85967C10.6285 5.73551 10.4595 5.66581 10.2834 5.66581C10.1073 5.66581 9.93829 5.73551 9.81338 5.85967ZM8.00004 1.33301C6.6815 1.33301 5.39257 1.724 4.29624 2.45654C3.19991 3.18909 2.34543 4.23028 1.84085 5.44845C1.33626 6.66663 1.20424 8.00707 1.46148 9.30028C1.71871 10.5935 2.35365 11.7814 3.286 12.7137C4.21835 13.6461 5.40624 14.281 6.69944 14.5382C7.99265 14.7955 9.33309 14.6635 10.5513 14.1589C11.7694 13.6543 12.8106 12.7998 13.5432 11.7035C14.2757 10.6071 14.6667 9.31822 14.6667 7.99967C14.6667 7.1242 14.4943 6.25729 14.1592 5.44845C13.8242 4.63961 13.3331 3.90469 12.7141 3.28563C12.095 2.66657 11.3601 2.17551 10.5513 1.84048C9.74243 1.50545 8.87552 1.33301 8.00004 1.33301ZM8.00004 13.333C6.94521 13.333 5.91406 13.0202 5.037 12.4342C4.15994 11.8481 3.47635 11.0152 3.07269 10.0407C2.66902 9.06611 2.5634 7.99376 2.76919 6.95919C2.97498 5.92463 3.48293 4.97432 4.22881 4.22844C4.97469 3.48256 5.925 2.97461 6.95956 2.76882C7.99413 2.56303 9.06648 2.66865 10.041 3.07232C11.0156 3.47598 11.8485 4.15957 12.4345 5.03663C13.0206 5.9137 13.3334 6.94484 13.3334 7.99967C13.3334 9.41416 12.7715 10.7707 11.7713 11.7709C10.7711 12.7711 9.41453 13.333 8.00004 13.333Z" fill="#12BF6C"/>
</svg>
