<svg width="49" height="48" viewBox="0 0 49 48" fill="none" xmlns="http://www.w3.org/2000/svg">
<g filter="url(#filter0_b_2507_32052)">
<rect x="0.5" width="48" height="48" rx="16" fill="white"/>
<rect x="0.5" width="48" height="48" rx="16" fill="#15E17F" fill-opacity="0.15"/>
<path opacity="0.3" d="M22.0924 15.2003C21.8489 15.4078 21.7271 15.5116 21.5971 15.5987C21.299 15.7985 20.9642 15.9372 20.6121 16.0067C20.4585 16.037 20.299 16.0498 19.9801 16.0752L19.9801 16.0752C19.1787 16.1392 18.778 16.1712 18.4437 16.2892C17.6705 16.5623 17.0623 17.1705 16.7892 17.9437C16.6712 18.278 16.6392 18.6787 16.5752 19.4801L16.5752 19.4801C16.5498 19.799 16.537 19.9585 16.5067 20.1121C16.4372 20.4642 16.2985 20.799 16.0987 21.0971C16.0116 21.2271 15.9078 21.3489 15.7003 21.5924L15.7003 21.5924C15.1788 22.2043 14.9181 22.5102 14.7652 22.8301C14.4116 23.57 14.4116 24.43 14.7652 25.1699C14.9181 25.4898 15.1788 25.7957 15.7003 26.4076L15.7003 26.4076C15.9078 26.6511 16.0116 26.7729 16.0987 26.9029C16.2985 27.201 16.4372 27.5358 16.5067 27.8879C16.537 28.0415 16.5498 28.201 16.5752 28.5199L16.5752 28.5199C16.6392 29.3213 16.6712 29.722 16.7892 30.0563C17.0623 30.8295 17.6705 31.4377 18.4437 31.7108C18.778 31.8288 19.1787 31.8608 19.98 31.9248L19.9801 31.9248C20.299 31.9502 20.4585 31.963 20.6121 31.9933C20.9642 32.0628 21.299 32.2015 21.5971 32.4013C21.7271 32.4884 21.8489 32.5922 22.0924 32.7997C22.7043 33.3212 23.0102 33.5819 23.3301 33.7348C24.07 34.0884 24.93 34.0884 25.6699 33.7348C25.9898 33.5819 26.2957 33.3212 26.9076 32.7997C27.1511 32.5922 27.2729 32.4884 27.4029 32.4013C27.701 32.2015 28.0358 32.0628 28.3879 31.9933C28.5415 31.963 28.701 31.9502 29.0199 31.9248L29.02 31.9248C29.8213 31.8608 30.222 31.8288 30.5563 31.7108C31.3295 31.4377 31.9377 30.8295 32.2108 30.0563C32.3288 29.722 32.3608 29.3213 32.4248 28.52L32.4248 28.5199C32.4502 28.201 32.463 28.0415 32.4933 27.8879C32.5628 27.5358 32.7015 27.201 32.9013 26.9029C32.9884 26.7729 33.0922 26.6511 33.2997 26.4076C33.8212 25.7957 34.0819 25.4898 34.2348 25.1699C34.5884 24.43 34.5884 23.57 34.2348 22.8301C34.0819 22.5102 33.8212 22.2043 33.2997 21.5924C33.0922 21.3489 32.9884 21.2271 32.9013 21.0971C32.7015 20.799 32.5628 20.4642 32.4933 20.1121C32.463 19.9585 32.4502 19.799 32.4248 19.4801L32.4248 19.48C32.3608 18.6787 32.3288 18.278 32.2108 17.9437C31.9377 17.1705 31.3295 16.5623 30.5563 16.2892C30.222 16.1712 29.8213 16.1392 29.0199 16.0752L29.0199 16.0752C28.701 16.0498 28.5415 16.037 28.3879 16.0067C28.0358 15.9372 27.701 15.7985 27.4029 15.5987C27.2729 15.5116 27.1511 15.4078 26.9076 15.2003C26.2957 14.6788 25.9898 14.4181 25.6699 14.2652C24.93 13.9116 24.07 13.9116 23.3301 14.2652C23.0102 14.4181 22.7043 14.6788 22.0924 15.2003L22.0924 15.2003Z" fill="#15E17F"/>
<path d="M28.3309 20.17C28.6487 20.4878 28.6487 21.0032 28.3309 21.321L21.82 27.8319C21.5022 28.1497 20.9869 28.1497 20.669 27.8319C20.3512 27.514 20.3512 26.9987 20.669 26.6809L27.1799 20.17C27.4978 19.8522 28.0131 19.8522 28.3309 20.17Z" fill="#15E17F"/>
<path d="M28.298 26.7138C28.298 27.3131 27.8121 27.799 27.2128 27.799C26.6135 27.799 26.1277 27.3131 26.1277 26.7138C26.1277 26.1145 26.6135 25.6287 27.2128 25.6287C27.8121 25.6287 28.298 26.1145 28.298 26.7138Z" fill="#15E17F"/>
<path d="M21.7871 22.3732C22.3864 22.3732 22.8722 21.8874 22.8722 21.2881C22.8722 20.6888 22.3864 20.2029 21.7871 20.2029C21.1878 20.2029 20.702 20.6888 20.702 21.2881C20.702 21.8874 21.1878 22.3732 21.7871 22.3732Z" fill="#15E17F"/>
</g>
<defs>
<filter id="filter0_b_2507_32052" x="-9.5" y="-10" width="68" height="68" filterUnits="userSpaceOnUse" color-interpolation-filters="sRGB">
<feFlood flood-opacity="0" result="BackgroundImageFix"/>
<feGaussianBlur in="BackgroundImageFix" stdDeviation="5"/>
<feComposite in2="SourceAlpha" operator="in" result="effect1_backgroundBlur_2507_32052"/>
<feBlend mode="normal" in="SourceGraphic" in2="effect1_backgroundBlur_2507_32052" result="shape"/>
</filter>
</defs>
</svg>
