<svg width="20" height="20" viewBox="0 0 20 20" fill="none" xmlns="http://www.w3.org/2000/svg">
<g id="Huge-icon/interface/outline/clock-circle" clip-path="url(#clip0_7804_21844)">
<path id="Vector" d="M10.0003 10.0001H9.25033C9.25033 10.3229 9.4569 10.6095 9.76315 10.7116L10.0003 10.0001ZM10.7503 5.83342C10.7503 5.4192 10.4145 5.08342 10.0003 5.08342C9.58611 5.08342 9.25033 5.4192 9.25033 5.83342H10.7503ZM12.2632 11.5449C12.6561 11.6759 13.0809 11.4635 13.2118 11.0706C13.3428 10.6776 13.1305 10.2529 12.7375 10.1219L12.2632 11.5449ZM10.7503 10.0001V5.83342H9.25033V10.0001H10.7503ZM9.76315 10.7116L12.2632 11.5449L12.7375 10.1219L10.2375 9.28857L9.76315 10.7116ZM17.5837 10.0001C17.5837 14.1882 14.1885 17.5834 10.0003 17.5834V19.0834C15.0169 19.0834 19.0837 15.0167 19.0837 10.0001H17.5837ZM10.0003 17.5834C5.81217 17.5834 2.41699 14.1882 2.41699 10.0001H0.916992C0.916992 15.0167 4.98374 19.0834 10.0003 19.0834V17.5834ZM2.41699 10.0001C2.41699 5.81192 5.81217 2.41675 10.0003 2.41675V0.916748C4.98374 0.916748 0.916992 4.98349 0.916992 10.0001H2.41699ZM10.0003 2.41675C14.1885 2.41675 17.5837 5.81192 17.5837 10.0001H19.0837C19.0837 4.98349 15.0169 0.916748 10.0003 0.916748V2.41675Z" fill="#111111"/>
</g>
<defs>
<clipPath id="clip0_7804_21844">
<rect width="20" height="20" fill="white"/>
</clipPath>
</defs>
</svg>
