<svg width="20" height="20" viewBox="0 0 20 20" fill="none" xmlns="http://www.w3.org/2000/svg">
<path fill-rule="evenodd" clip-rule="evenodd" d="M9.58366 2.2915C5.55658 2.2915 2.29199 5.55609 2.29199 9.58317C2.29199 13.6102 5.55658 16.8748 9.58366 16.8748C13.6107 16.8748 16.8753 13.6102 16.8753 9.58317C16.8753 5.55609 13.6107 2.2915 9.58366 2.2915ZM1.04199 9.58317C1.04199 4.86574 4.86623 1.0415 9.58366 1.0415C14.3011 1.0415 18.1253 4.86574 18.1253 9.58317C18.1253 11.7169 17.3429 13.668 16.0494 15.165L18.7756 17.8912C19.0197 18.1353 19.0197 18.531 18.7756 18.7751C18.5315 19.0192 18.1358 19.0192 17.8917 18.7751L15.1655 16.0489C13.6684 17.3424 11.7174 18.1248 9.58366 18.1248C4.86623 18.1248 1.04199 14.3006 1.04199 9.58317Z" fill="#2F2F2F"/>
</svg>
