<svg width="104" height="104" viewBox="0 0 104 104" fill="none" xmlns="http://www.w3.org/2000/svg">
<g clip-path="url(#clip0_1_6)">
<path d="M59.0002 55.4997V43.833C59.0002 42.9047 58.6314 42.0145 57.975 41.3581C57.3187 40.7018 56.4284 40.333 55.5002 40.333H43.8335C42.9052 40.333 42.015 40.7018 41.3586 41.3581C40.7022 42.0145 40.3335 42.9047 40.3335 43.833V55.4997C40.3335 56.4279 40.7022 57.3182 41.3586 57.9746C42.015 58.6309 42.9052 58.9997 43.8335 58.9997H55.5002C56.4284 58.9997 57.3187 58.6309 57.975 57.9746C58.6314 57.3182 59.0002 56.4279 59.0002 55.4997ZM42.6668 43.833C42.6668 43.5236 42.7897 43.2268 43.0085 43.008C43.2273 42.7893 43.5241 42.6663 43.8335 42.6663H55.5002C55.8096 42.6663 56.1063 42.7893 56.3251 43.008C56.5439 43.2268 56.6668 43.5236 56.6668 43.833V48.9197L55.4068 47.648C54.8468 47.0879 54.0872 46.7731 53.2952 46.773C52.5036 46.7757 51.7449 47.09 51.1835 47.648L50.1218 48.7097L49.1768 47.7647C48.5374 47.1355 47.6763 46.7829 46.7793 46.7829C45.8823 46.7829 45.0212 47.1355 44.3818 47.7647L42.6668 49.4914V43.833ZM42.8068 56.0247C42.7169 55.8642 42.6687 55.6837 42.6668 55.4997V52.7814L46.0268 49.4214C46.1255 49.3222 46.2427 49.2436 46.3719 49.1899C46.501 49.1362 46.6395 49.1086 46.7793 49.1086C46.9192 49.1086 47.0576 49.1362 47.1868 49.1899C47.3159 49.2436 47.4332 49.3222 47.5318 49.4214L48.5002 50.3664L42.8068 56.0247ZM52.8402 49.3047C52.8977 49.2414 52.968 49.191 53.0464 49.1569C53.1249 49.1227 53.2096 49.1055 53.2952 49.1064C53.3807 49.1055 53.4654 49.1227 53.5439 49.1569C53.6223 49.191 53.6926 49.2414 53.7502 49.3047L56.6668 52.2097V55.4997C56.6668 55.8091 56.5439 56.1058 56.3251 56.3246C56.1063 56.5434 55.8096 56.6664 55.5002 56.6664H45.4668L52.8402 49.3047ZM62.5002 44.9997C62.1907 44.9997 61.894 45.1226 61.6752 45.3414C61.4564 45.5602 61.3335 45.8569 61.3335 46.1664V57.833C61.3335 58.7613 60.9647 59.6515 60.3084 60.3079C59.652 60.9643 58.7617 61.333 57.8335 61.333H46.1668C45.8574 61.333 45.5607 61.4559 45.3419 61.6747C45.1231 61.8935 45.0002 62.1903 45.0002 62.4997C45.0002 62.8091 45.1231 63.1059 45.3419 63.3246C45.5607 63.5434 45.8574 63.6664 46.1668 63.6664H57.8335C59.3806 63.6664 60.8643 63.0518 61.9583 61.9578C63.0522 60.8638 63.6668 59.3801 63.6668 57.833V46.1664C63.6668 45.8569 63.5439 45.5602 63.3251 45.3414C63.1063 45.1226 62.8096 44.9997 62.5002 44.9997Z" fill="#C4C4C4"/>
</g>
<defs>
<clipPath id="clip0_1_6">
<rect width="104" height="104" fill="white"/>
</clipPath>
</defs>
</svg>
