<svg width="32" height="32" viewBox="0 0 32 32" fill="none" xmlns="http://www.w3.org/2000/svg">
<rect x="32" y="32" width="32" height="32" rx="16" transform="rotate(-180 32 32)" fill="#DA002B"/>
<path d="M20.9999 14.1702C20.8126 13.9839 20.5591 13.8794 20.2949 13.8794C20.0308 13.8794 19.7773 13.9839 19.5899 14.1702L15.9999 17.7102L12.4599 14.1702C12.2726 13.9839 12.0191 13.8794 11.7549 13.8794C11.4908 13.8794 11.2373 13.9839 11.0499 14.1702C10.9562 14.2631 10.8818 14.3738 10.8311 14.4956C10.7803 14.6175 10.7542 14.7482 10.7542 14.8802C10.7542 15.0122 10.7803 15.1429 10.8311 15.2648C10.8818 15.3866 10.9562 15.4972 11.0499 15.5902L15.2899 19.8302C15.3829 19.9239 15.4935 19.9983 15.6154 20.0491C15.7372 20.0998 15.8679 20.126 15.9999 20.126C16.132 20.126 16.2627 20.0998 16.3845 20.0491C16.5064 19.9983 16.617 19.9239 16.7099 19.8302L20.9999 15.5902C21.0937 15.4972 21.1681 15.3866 21.2188 15.2648C21.2696 15.1429 21.2957 15.0122 21.2957 14.8802C21.2957 14.7482 21.2696 14.6175 21.2188 14.4956C21.1681 14.3738 21.0937 14.2631 20.9999 14.1702Z" fill="white"/>
</svg>
