<svg width="49" height="48" viewBox="0 0 49 48" fill="none" xmlns="http://www.w3.org/2000/svg">
<g filter="url(#filter0_b_2507_32060)">
<rect x="0.5" width="48" height="48" rx="16" fill="white"/>
<rect x="0.5" width="48" height="48" rx="16" fill="#F97316" fill-opacity="0.15"/>
<path opacity="0.3" d="M22.4998 32H26.4998C30.271 32 32.1566 32 33.3282 30.8284C34.4998 29.6569 34.4998 27.7712 34.4998 24C34.4998 23.5581 34.4981 22.392 34.4962 22H14.5C14.4981 22.392 14.4998 23.5581 14.4998 24C14.4998 27.7712 14.4998 29.6569 15.6713 30.8284C16.8429 32 18.7285 32 22.4998 32Z" fill="#F97316"/>
<path d="M22.4948 16H26.5052C30.2861 16 32.1766 16 33.3512 17.1158C34.1969 17.9192 34.4337 19.0751 34.5 21V22H14.5V21C14.5663 19.0751 14.8031 17.9192 15.6488 17.1158C16.8234 16 18.7139 16 22.4948 16Z" fill="#F97316"/>
<path d="M25 27.25C24.5858 27.25 24.25 27.5858 24.25 28C24.25 28.4142 24.5858 28.75 25 28.75H26.5C26.9142 28.75 27.25 28.4142 27.25 28C27.25 27.5858 26.9142 27.25 26.5 27.25H25Z" fill="#F97316"/>
<path d="M18.5 27.25C18.0858 27.25 17.75 27.5858 17.75 28C17.75 28.4142 18.0858 28.75 18.5 28.75H22.5C22.9142 28.75 23.25 28.4142 23.25 28C23.25 27.5858 22.9142 27.25 22.5 27.25H18.5Z" fill="#F97316"/>
</g>
<defs>
<filter id="filter0_b_2507_32060" x="-9.5" y="-10" width="68" height="68" filterUnits="userSpaceOnUse" color-interpolation-filters="sRGB">
<feFlood flood-opacity="0" result="BackgroundImageFix"/>
<feGaussianBlur in="BackgroundImageFix" stdDeviation="5"/>
<feComposite in2="SourceAlpha" operator="in" result="effect1_backgroundBlur_2507_32060"/>
<feBlend mode="normal" in="SourceGraphic" in2="effect1_backgroundBlur_2507_32060" result="shape"/>
</filter>
</defs>
</svg>
