<svg width="16" height="16" viewBox="0 0 16 16" fill="none" xmlns="http://www.w3.org/2000/svg">
<path d="M10 7.33301H8.66671V4.66634C8.66671 4.48953 8.59647 4.31996 8.47145 4.19494C8.34642 4.06991 8.17686 3.99967 8.00004 3.99967C7.82323 3.99967 7.65366 4.06991 7.52864 4.19494C7.40362 4.31996 7.33338 4.48953 7.33338 4.66634V7.99967C7.33338 8.17649 7.40362 8.34606 7.52864 8.47108C7.65366 8.5961 7.82323 8.66634 8.00004 8.66634H10C10.1769 8.66634 10.3464 8.5961 10.4714 8.47108C10.5965 8.34606 10.6667 8.17649 10.6667 7.99967C10.6667 7.82286 10.5965 7.65329 10.4714 7.52827C10.3464 7.40325 10.1769 7.33301 10 7.33301ZM8.00004 1.33301C6.6815 1.33301 5.39257 1.724 4.29624 2.45654C3.19991 3.18909 2.34543 4.23028 1.84085 5.44845C1.33626 6.66663 1.20424 8.00707 1.46148 9.30028C1.71871 10.5935 2.35365 11.7814 3.286 12.7137C4.21835 13.6461 5.40624 14.281 6.69944 14.5382C7.99265 14.7955 9.33309 14.6635 10.5513 14.1589C11.7694 13.6543 12.8106 12.7998 13.5432 11.7035C14.2757 10.6071 14.6667 9.31822 14.6667 7.99967C14.6667 7.1242 14.4943 6.25729 14.1592 5.44845C13.8242 4.63961 13.3331 3.90469 12.7141 3.28563C12.095 2.66657 11.3601 2.17551 10.5513 1.84048C9.74243 1.50545 8.87552 1.33301 8.00004 1.33301ZM8.00004 13.333C6.94521 13.333 5.91406 13.0202 5.037 12.4342C4.15994 11.8481 3.47635 11.0152 3.07269 10.0407C2.66902 9.06611 2.5634 7.99376 2.76919 6.95919C2.97498 5.92463 3.48293 4.97432 4.22881 4.22844C4.97469 3.48256 5.925 2.97461 6.95956 2.76882C7.99413 2.56303 9.06648 2.66865 10.041 3.07232C11.0156 3.47598 11.8485 4.15957 12.4345 5.03663C13.0206 5.9137 13.3334 6.94484 13.3334 7.99967C13.3334 9.41416 12.7715 10.7707 11.7713 11.7709C10.7711 12.7711 9.41453 13.333 8.00004 13.333Z" fill="#2676FF"/>
</svg>
