<svg width="16" height="16" viewBox="0 0 16 16" fill="none" xmlns="http://www.w3.org/2000/svg">
<path d="M4.66678 9.88622C4.79169 10.0104 4.96066 10.0801 5.13678 10.0801C5.31291 10.0801 5.48187 10.0104 5.60678 9.88622L8.00012 7.52622L10.3601 9.88622C10.485 10.0104 10.654 10.0801 10.8301 10.0801C11.0062 10.0801 11.1752 10.0104 11.3001 9.88622C11.3626 9.82424 11.4122 9.75051 11.446 9.66927C11.4799 9.58803 11.4973 9.50089 11.4973 9.41288C11.4973 9.32488 11.4799 9.23774 11.446 9.1565C11.4122 9.07526 11.3626 9.00153 11.3001 8.93955L8.47345 6.11288C8.41147 6.0504 8.33774 6.0008 8.2565 5.96696C8.17526 5.93311 8.08812 5.91568 8.00012 5.91568C7.91211 5.91568 7.82497 5.93311 7.74373 5.96696C7.66249 6.0008 7.58876 6.0504 7.52678 6.11288L4.66678 8.93955C4.6043 9.00153 4.5547 9.07526 4.52086 9.1565C4.48701 9.23774 4.46958 9.32488 4.46958 9.41288C4.46958 9.50089 4.48701 9.58803 4.52086 9.66927C4.5547 9.75051 4.6043 9.82424 4.66678 9.88622Z" fill="#2F2F2F"/>
</svg>
