<svg width="17" height="16" viewBox="0 0 17 16" fill="none" xmlns="http://www.w3.org/2000/svg">
<path d="M9.08701 7.64605L8.73262 7.99988L9.08701 8.35371L13.287 12.547L13.2882 12.5482C13.3038 12.5637 13.3162 12.5821 13.3247 12.6025L13.7862 12.4102L13.3247 12.6025C13.3331 12.6228 13.3375 12.6445 13.3375 12.6665C13.3375 12.6885 13.3331 12.7103 13.3247 12.7306C13.3162 12.7509 13.3038 12.7694 13.2882 12.7849L13.2853 12.7878C13.2698 12.8034 13.2514 12.8158 13.231 12.8243L13.4233 13.2858L13.231 12.8243C13.2107 12.8327 13.189 12.8371 13.167 12.8371C13.1449 12.8371 13.1232 12.8327 13.1029 12.8243C13.0825 12.8158 13.0641 12.8034 13.0486 12.7878L13.0475 12.7866L8.85412 8.58661L8.50029 8.23221L8.14645 8.58661L3.95312 12.7866L3.95195 12.7878C3.93646 12.8034 3.91802 12.8158 3.89771 12.8243C3.87741 12.8327 3.85562 12.8371 3.83362 12.8371C3.81161 12.8371 3.78983 12.8327 3.76952 12.8243C3.74921 12.8158 3.73078 12.8034 3.71529 12.7878L3.71239 12.7849C3.69676 12.7694 3.68437 12.751 3.6759 12.7306C3.66744 12.7103 3.66309 12.6885 3.66309 12.6665C3.66309 12.6445 3.66744 12.6228 3.6759 12.6025L3.21436 12.4102L3.6759 12.6024C3.68437 12.5821 3.69676 12.5637 3.71239 12.5482L3.71356 12.547L7.91356 8.35371L8.26795 7.99988L7.91356 7.64605L3.71384 3.45299C3.71381 3.45296 3.71378 3.45293 3.71375 3.4529C3.68204 3.42114 3.66422 3.3781 3.66422 3.33321C3.66422 3.28829 3.68207 3.2452 3.71384 3.21343C3.74561 3.18167 3.78869 3.16382 3.83362 3.16382C3.8785 3.16382 3.92155 3.18163 3.95331 3.21334C3.95334 3.21337 3.95337 3.2134 3.9534 3.21343L8.14645 7.41315L8.50029 7.76755L8.85412 7.41315L13.0472 3.21343C13.0472 3.21337 13.0473 3.2133 13.0474 3.21324C13.0791 3.18159 13.1221 3.16382 13.167 3.16382C13.2119 3.16382 13.255 3.18166 13.2867 3.21343C13.3185 3.2452 13.3363 3.28829 13.3363 3.33321C13.3363 3.37807 13.3186 3.42109 13.2869 3.45284C13.2868 3.45289 13.2868 3.45294 13.2867 3.45299L9.08701 7.64605Z" fill="#111111" stroke="#2F2F2F"/>
</svg>
