<svg width="16" height="16" viewBox="0 0 16 16" fill="none" xmlns="http://www.w3.org/2000/svg">
<path d="M11.3332 6.11378C11.2083 5.98962 11.0393 5.91992 10.8632 5.91992C10.6871 5.91992 10.5181 5.98962 10.3932 6.11378L7.99988 8.47378L5.63988 6.11378C5.51498 5.98962 5.34601 5.91992 5.16988 5.91992C4.99376 5.91992 4.82479 5.98962 4.69988 6.11378C4.6374 6.17576 4.5878 6.24949 4.55396 6.33073C4.52011 6.41197 4.50269 6.49911 4.50269 6.58712C4.50269 6.67512 4.52011 6.76226 4.55396 6.8435C4.5878 6.92474 4.6374 6.99847 4.69988 7.06045L7.52655 9.88712C7.58853 9.9496 7.66226 9.9992 7.7435 10.033C7.82474 10.0669 7.91188 10.0843 7.99988 10.0843C8.08789 10.0843 8.17503 10.0669 8.25627 10.033C8.33751 9.9992 8.41124 9.9496 8.47322 9.88712L11.3332 7.06045C11.3957 6.99847 11.4453 6.92474 11.4791 6.8435C11.513 6.76226 11.5304 6.67512 11.5304 6.58712C11.5304 6.49911 11.513 6.41197 11.4791 6.33073C11.4453 6.24949 11.3957 6.17576 11.3332 6.11378Z" fill="#2F2F2F"/>
</svg>
