<svg width="24" height="24" viewBox="0 0 24 24" fill="none" xmlns="http://www.w3.org/2000/svg">
<path d="M21.1498 2.86025C20.7678 2.47082 20.2833 2.19747 19.7524 2.07183C19.2215 1.94619 18.6659 1.97338 18.1498 2.15025L3.9998 6.88025C3.42912 7.06705 2.93049 7.4264 2.57276 7.90869C2.21502 8.39098 2.01582 8.97242 2.00265 9.57276C1.98948 10.1731 2.16299 10.7627 2.49923 11.2602C2.83547 11.7577 3.31786 12.1386 3.87981 12.3503L9.1198 14.3503C9.23912 14.3959 9.34776 14.4656 9.43895 14.5551C9.53014 14.6445 9.60191 14.7518 9.6498 14.8703L11.6498 20.1203C11.8534 20.6742 12.2228 21.152 12.7078 21.4884C13.1927 21.8248 13.7696 22.0036 14.3598 22.0003H14.4298C15.0308 21.9893 15.6134 21.7906 16.0958 21.4319C16.5781 21.0733 16.9362 20.5727 17.1198 20.0003L21.8498 5.83025C22.0218 5.31919 22.0474 4.7702 21.9237 4.24534C21.8 3.72048 21.5319 3.24071 21.1498 2.86025ZM19.9998 5.20025L15.2198 19.3803C15.1643 19.5597 15.0528 19.7167 14.9017 19.8283C14.7505 19.9398 14.5677 20.0001 14.3798 20.0003C14.1931 20.0033 14.0098 19.9495 13.8544 19.8459C13.699 19.7423 13.5788 19.5938 13.5098 19.4203L11.5098 14.1703C11.3648 13.7888 11.1412 13.4421 10.8535 13.1526C10.5658 12.8632 10.2204 12.6375 9.83981 12.4903L4.58981 10.4903C4.4127 10.4254 4.26046 10.3065 4.15459 10.1503C4.04872 9.99423 3.99458 9.8088 3.9998 9.62025C3.99996 9.4324 4.06022 9.24952 4.17178 9.09838C4.28334 8.94724 4.44034 8.83576 4.6198 8.78025L18.7998 4.05025C18.9626 3.9839 19.1411 3.96613 19.3138 3.99908C19.4865 4.03203 19.646 4.1143 19.7729 4.23594C19.8998 4.35758 19.9888 4.51338 20.0291 4.68451C20.0693 4.85565 20.0592 5.03478 19.9998 5.20025Z" fill="#111111"/>
</svg>
