<svg width="28" height="28" viewBox="0 0 28 28" fill="none" xmlns="http://www.w3.org/2000/svg">
<rect width="28" height="28" rx="14" fill="white"/>
<path d="M12.3333 19.0003C12.5543 19.0003 12.7663 18.9125 12.9226 18.7562C13.0789 18.6 13.1667 18.388 13.1667 18.167V13.167C13.1667 12.946 13.0789 12.734 12.9226 12.5777C12.7663 12.4215 12.5543 12.3337 12.3333 12.3337C12.1123 12.3337 11.9004 12.4215 11.7441 12.5777C11.5878 12.734 11.5 12.946 11.5 13.167V18.167C11.5 18.388 11.5878 18.6 11.7441 18.7562C11.9004 18.9125 12.1123 19.0003 12.3333 19.0003ZM20.6667 9.00033H17.3333V8.16699C17.3333 7.50395 17.0699 6.86807 16.6011 6.39923C16.1323 5.93038 15.4964 5.66699 14.8333 5.66699H13.1667C12.5036 5.66699 11.8677 5.93038 11.3989 6.39923C10.9301 6.86807 10.6667 7.50395 10.6667 8.16699V9.00033H7.33333C7.11232 9.00033 6.90036 9.08812 6.74408 9.2444C6.5878 9.40068 6.5 9.61265 6.5 9.83366C6.5 10.0547 6.5878 10.2666 6.74408 10.4229C6.90036 10.5792 7.11232 10.667 7.33333 10.667H8.16667V19.8337C8.16667 20.4967 8.43006 21.1326 8.8989 21.6014C9.36774 22.0703 10.0036 22.3337 10.6667 22.3337H17.3333C17.9964 22.3337 18.6323 22.0703 19.1011 21.6014C19.5699 21.1326 19.8333 20.4967 19.8333 19.8337V10.667H20.6667C20.8877 10.667 21.0996 10.5792 21.2559 10.4229C21.4122 10.2666 21.5 10.0547 21.5 9.83366C21.5 9.61265 21.4122 9.40068 21.2559 9.2444C21.0996 9.08812 20.8877 9.00033 20.6667 9.00033ZM12.3333 8.16699C12.3333 7.94598 12.4211 7.73402 12.5774 7.57774C12.7337 7.42146 12.9457 7.33366 13.1667 7.33366H14.8333C15.0543 7.33366 15.2663 7.42146 15.4226 7.57774C15.5789 7.73402 15.6667 7.94598 15.6667 8.16699V9.00033H12.3333V8.16699ZM18.1667 19.8337C18.1667 20.0547 18.0789 20.2666 17.9226 20.4229C17.7663 20.5792 17.5543 20.667 17.3333 20.667H10.6667C10.4457 20.667 10.2337 20.5792 10.0774 20.4229C9.92113 20.2666 9.83333 20.0547 9.83333 19.8337V10.667H18.1667V19.8337ZM15.6667 19.0003C15.8877 19.0003 16.0996 18.9125 16.2559 18.7562C16.4122 18.6 16.5 18.388 16.5 18.167V13.167C16.5 12.946 16.4122 12.734 16.2559 12.5777C16.0996 12.4215 15.8877 12.3337 15.6667 12.3337C15.4457 12.3337 15.2337 12.4215 15.0774 12.5777C14.9211 12.734 14.8333 12.946 14.8333 13.167V18.167C14.8333 18.388 14.9211 18.6 15.0774 18.7562C15.2337 18.9125 15.4457 19.0003 15.6667 19.0003Z" fill="#999999"/>
</svg>
