<svg width="20" height="20" viewBox="0 0 20 20" fill="none" xmlns="http://www.w3.org/2000/svg">
<path d="M9.99935 1.66699C7.863 1.67309 5.81059 2.49942 4.26602 3.97533V2.50033C4.26602 2.27931 4.17822 2.06735 4.02194 1.91107C3.86566 1.75479 3.6537 1.66699 3.43268 1.66699C3.21167 1.66699 2.99971 1.75479 2.84343 1.91107C2.68715 2.06735 2.59935 2.27931 2.59935 2.50033V6.25033C2.59935 6.47134 2.68715 6.6833 2.84343 6.83958C2.99971 6.99586 3.21167 7.08366 3.43268 7.08366H7.18268C7.4037 7.08366 7.61566 6.99586 7.77194 6.83958C7.92822 6.6833 8.01602 6.47134 8.01602 6.25033C8.01602 6.02931 7.92822 5.81735 7.77194 5.66107C7.61566 5.50479 7.4037 5.41699 7.18268 5.41699H5.18268C6.25416 4.29729 7.68227 3.58587 9.22146 3.40505C10.7607 3.22423 12.3148 3.5853 13.6166 4.4262C14.9184 5.26709 15.8865 6.53525 16.3546 8.01265C16.8227 9.49005 16.7614 11.0844 16.1814 12.5215C15.6013 13.9586 14.5386 15.1487 13.1761 15.8872C11.8136 16.6258 10.2364 16.8665 8.71565 16.5681C7.19487 16.2697 5.82557 15.4508 4.84317 14.2522C3.86078 13.0535 3.32667 11.5501 3.33268 10.0003C3.33268 9.77931 3.24489 9.56735 3.0886 9.41107C2.93232 9.25479 2.72036 9.16699 2.49935 9.16699C2.27834 9.16699 2.06637 9.25479 1.91009 9.41107C1.75381 9.56735 1.66602 9.77931 1.66602 10.0003C1.66602 11.6485 2.15476 13.2597 3.07044 14.6301C3.98611 16.0005 5.2876 17.0686 6.81032 17.6993C8.33304 18.3301 10.0086 18.4951 11.6251 18.1735C13.2416 17.852 14.7265 17.0583 15.8919 15.8929C17.0573 14.7274 17.851 13.2426 18.1726 11.6261C18.4941 10.0096 18.3291 8.33401 17.6983 6.8113C17.0676 5.28858 15.9995 3.98709 14.6291 3.07141C13.2587 2.15573 11.6475 1.66699 9.99935 1.66699ZM9.99935 6.66699C9.77834 6.66699 9.56637 6.75479 9.41009 6.91107C9.25381 7.06735 9.16602 7.27931 9.16602 7.50033V10.0003C9.16602 10.2213 9.25381 10.4333 9.41009 10.5896C9.56637 10.7459 9.77834 10.8337 9.99935 10.8337H11.666C11.887 10.8337 12.099 10.7459 12.2553 10.5896C12.4116 10.4333 12.4993 10.2213 12.4993 10.0003C12.4993 9.77931 12.4116 9.56735 12.2553 9.41107C12.099 9.25479 11.887 9.16699 11.666 9.16699H10.8327V7.50033C10.8327 7.27931 10.7449 7.06735 10.5886 6.91107C10.4323 6.75479 10.2204 6.66699 9.99935 6.66699Z" fill="#999999"/>
</svg>
