<svg width="118" height="36" viewBox="0 0 118 36" fill="none" xmlns="http://www.w3.org/2000/svg">
<path d="M0 22.6691V22.5723C0 15.1618 5.88553 9.14564 13.8095 9.14564C21.687 9.14564 27.5212 15.0657 27.5212 22.4762V22.5723C27.5212 29.9829 21.6383 36 13.7141 36C5.83881 36 0 30.077 0 22.6691ZM30.6986 3.65938C30.6986 1.63964 32.3122 0 34.3046 0C36.2985 0 37.9096 1.63964 37.9096 3.65938V32.0533C37.9096 34.074 36.2985 35.7107 34.3046 35.7107C32.3122 35.7107 30.6986 34.074 30.6986 32.0533V3.65938ZM41.0886 22.6691V22.5723C41.0886 15.2092 46.6399 9.14564 54.422 9.14564C58.2649 9.14564 60.9698 10.2054 63.1052 12.0323C63.5813 12.4166 64.2432 13.2855 64.2432 14.5355C64.2432 16.3633 62.7736 17.8088 60.9698 17.8088C60.0203 17.8088 59.3094 17.4224 58.8821 17.0861C57.6007 16.0757 56.2729 15.4494 54.3759 15.4494C50.7683 15.4494 48.2049 18.6753 48.2049 22.4762V22.5723C48.2049 26.5193 50.7216 29.6959 54.6589 29.6959C56.5584 29.6959 58.028 29.0196 59.4048 27.9158C59.7851 27.6232 60.4961 27.2394 61.3501 27.2394C63.0569 27.2394 64.3876 28.6358 64.3876 30.3693C64.3876 31.3329 63.9596 32.1004 63.3424 32.6796C61.2086 34.65 58.5037 36 54.3273 36C46.6886 36 41.0886 30.0323 41.0886 22.6691ZM67.9913 3.65938C67.9913 1.63964 69.605 0 71.597 0C73.5913 0 75.202 1.63964 75.202 3.65938V13.2835C76.8627 11.1193 78.9982 9.14597 82.6529 9.14597C88.1088 9.14597 91.2894 12.8037 91.2894 18.7207V32.0533C91.2894 34.074 89.6734 35.7107 87.6817 35.7107C85.6894 35.7107 84.0764 34.074 84.0764 32.0533V21.0311C84.0764 17.5669 82.4624 15.7861 79.7111 15.7861C76.9572 15.7861 75.202 17.5669 75.202 21.0311V32.0533C75.202 34.074 73.5913 35.7107 71.597 35.7107C69.605 35.7107 67.9913 34.074 67.9913 32.0533V3.65938ZM94.6092 28.0089V27.9148C94.6092 22.2827 98.8323 19.6854 104.857 19.6854C107.418 19.6854 109.271 20.1188 111.072 20.7428V20.3113C111.072 17.2783 109.222 15.5949 105.616 15.5949C103.622 15.5949 102.008 15.8818 100.634 16.3176C100.206 16.4614 99.9213 16.5088 99.589 16.5088C97.9293 16.5088 96.6009 15.2085 96.6009 13.5251C96.6009 12.2251 97.4065 11.119 98.5448 10.6849C100.821 9.81833 103.289 9.33817 106.661 9.33817C110.598 9.33817 113.445 10.3979 115.249 12.2251C117.146 14.1511 118 16.9913 118 20.4548V32.1985C118 34.1721 116.435 35.712 114.489 35.712C112.4 35.712 111.023 34.2189 111.023 32.679V32.6312C109.271 34.6026 106.849 35.9026 103.337 35.9026C98.5448 35.9026 94.6092 33.1124 94.6092 28.0089ZM111.167 26.3255V25.0258C109.935 24.4512 108.321 24.0648 106.565 24.0648C103.48 24.0648 101.583 25.3155 101.583 27.6251V27.7219C101.583 29.6952 103.197 30.8494 105.521 30.8494C108.889 30.8494 111.167 28.9748 111.167 26.3255ZM20.4049 22.6691V22.5723C20.4049 18.7721 17.701 15.4494 13.7141 15.4494C9.58628 15.4494 7.11824 18.6753 7.11824 22.4762V22.5723C7.11824 26.3732 9.82315 29.6959 13.8095 29.6959C17.9398 29.6959 20.4049 26.47 20.4049 22.6691Z" fill="#DA002B"/>
</svg>
