<svg width="25" height="24" viewBox="0 0 25 24" fill="none" xmlns="http://www.w3.org/2000/svg">
<path fill-rule="evenodd" clip-rule="evenodd" d="M23.25 12C23.25 6.06294 18.4371 1.25 12.5 1.25C6.56294 1.25 1.75 6.06294 1.75 12C1.75 13.7183 2.15371 15.3445 2.87213 16.7869C2.97933 17.0021 3.00208 17.2219 2.9526 17.4068L2.357 19.6328C1.94927 21.1566 3.34337 22.5507 4.8672 22.143L7.09324 21.5474C7.27814 21.4979 7.49791 21.5207 7.71315 21.6279C9.15553 22.3463 10.7817 22.75 12.5 22.75C18.4371 22.75 23.25 17.9371 23.25 12ZM12.5 2.75C17.6086 2.75 21.75 6.89137 21.75 12C21.75 17.1086 17.6086 21.25 12.5 21.25C11.0189 21.25 9.62121 20.9025 8.38191 20.2852C7.88451 20.0375 7.28973 19.9421 6.70553 20.0984L4.47949 20.694C4.07066 20.8034 3.69663 20.4293 3.80602 20.0205L4.40163 17.7945C4.55794 17.2103 4.46254 16.6155 4.2148 16.1181C3.59752 14.8788 3.25 13.4811 3.25 12C3.25 6.89137 7.39137 2.75 12.5 2.75Z" fill="#2F2F2F"/>
<path fill-rule="evenodd" clip-rule="evenodd" d="M12.375 8.5C11.7537 8.5 11.25 9.00368 11.25 9.625C11.25 10.0392 10.9142 10.375 10.5 10.375C10.0858 10.375 9.75 10.0392 9.75 9.625C9.75 8.17525 10.9253 7 12.375 7C13.8247 7 15 8.17525 15 9.625C15 10.5883 14.4806 11.4296 13.7103 11.8854C13.5135 12.0018 13.3511 12.1289 13.2453 12.2536C13.1425 12.3746 13.125 12.4536 13.125 12.5V13.75C13.125 14.1642 12.7892 14.5 12.375 14.5C11.9608 14.5 11.625 14.1642 11.625 13.75V12.5C11.625 11.9941 11.8465 11.5836 12.1016 11.283C12.3536 10.986 12.6679 10.7592 12.9465 10.5944C13.2794 10.3974 13.5 10.0366 13.5 9.625C13.5 9.00368 12.9963 8.5 12.375 8.5Z" fill="#2F2F2F"/>
<path d="M13.375 16.75C13.375 17.3023 12.9273 17.75 12.375 17.75C11.8227 17.75 11.375 17.3023 11.375 16.75C11.375 16.1977 11.8227 15.75 12.375 15.75C12.9273 15.75 13.375 16.1977 13.375 16.75Z" fill="#2F2F2F"/>
</svg>
