<svg width="101" height="47" viewBox="0 0 101 47" fill="none" xmlns="http://www.w3.org/2000/svg">
<path fill-rule="evenodd" clip-rule="evenodd" d="M8.00199 16.4707C7.47679 16.5779 6.99376 16.8629 6.23506 17.5132C4.66034 18.8628 3.15843 20.8475 2.22873 22.8073C-1.28546 30.2146 1.17228 39.0615 8.01425 43.6326C9.95461 44.929 12.2635 45.8334 14.7062 46.2539C15.9418 46.4665 18.7403 46.4446 20.0157 46.2122C26.001 45.1215 30.8076 41.1213 32.8724 35.5124C33.4763 33.8719 33.7598 32.3702 33.8278 30.4505C33.978 26.2105 32.5968 22.3168 29.7887 19.0646C28.9645 18.1101 27.7575 17.012 27.2238 16.7312C25.927 16.0488 24.2878 16.5846 23.6381 17.9031C23.446 18.2928 23.414 18.4558 23.4147 19.0409C23.4158 20.0545 23.5367 20.2594 24.9659 21.6729C26.2603 22.9532 26.7718 23.628 27.3973 24.8802C28.211 26.5094 28.5647 28.0275 28.564 29.888C28.5629 33.0125 27.4765 35.6093 25.2333 37.8498C23.0262 40.0541 20.3609 41.1581 17.246 41.1581C15.8721 41.1581 14.9058 41.0093 13.7266 40.616C11.9488 40.0233 10.5854 39.1797 9.25896 37.8518C7.56959 36.1606 6.62852 34.4338 6.10114 32.0574C5.85628 30.954 5.85716 28.8915 6.10299 27.7536C6.67851 25.0898 7.81179 23.158 9.88914 21.2997C10.8601 20.4312 11.0781 20.0171 11.0781 19.0409C11.0781 18.4443 11.0481 18.299 10.8408 17.8913C10.313 16.8532 9.10053 16.2465 8.00199 16.4707ZM57.4979 20.3534C57.1048 20.4955 56.6944 20.8543 56.4908 21.2341L56.3095 21.5719L56.2845 28.8435C56.2669 33.9326 56.2861 36.2385 56.3484 36.5264C56.5243 37.34 57.2626 37.9194 58.1236 37.9194C58.9846 37.9194 59.7229 37.34 59.8989 36.5264C59.9612 36.2385 59.9804 33.9326 59.9628 28.8435L59.9377 21.5719L59.7637 21.2505C59.3107 20.4139 58.3658 20.0398 57.4979 20.3534ZM76.0937 20.4707C75.7797 20.6341 75.5963 20.8018 75.4193 21.087L75.1761 21.4789L75.1548 29.0162L75.1334 36.5536L75.305 36.9173C75.9344 38.2519 77.8521 38.2709 78.5748 36.9496C78.7107 36.7012 78.7277 36.3798 78.7693 33.2627C78.8008 30.8976 78.8452 29.7558 78.9136 29.5485C79.0701 29.0743 79.496 28.5836 79.9743 28.3265C80.3505 28.1243 80.4993 28.0911 81.0196 28.0932C81.9861 28.0971 82.6062 28.4703 82.9666 29.2648C83.1564 29.6833 83.1586 29.7186 83.1985 33.1421C83.2375 36.4893 83.2442 36.6072 83.4128 36.9185C83.769 37.5763 84.335 37.9229 85.0529 37.9229C85.7708 37.9229 86.3368 37.5763 86.693 36.9185C86.8646 36.6016 86.867 36.5416 86.867 32.6199C86.867 29.0645 86.8515 28.5769 86.7211 28.0233C86.2604 26.0664 84.9529 24.9578 82.9019 24.7849C81.5626 24.672 80.3999 25.1144 79.3895 26.1214L78.764 26.7447L78.7635 24.2788C78.7633 22.7884 78.7293 21.6916 78.6776 21.506C78.6305 21.3371 78.4584 21.0513 78.295 20.8707C77.7013 20.2144 76.8745 20.0641 76.0937 20.4707ZM46.7245 24.8371C45.4175 25.0042 43.9217 25.7018 42.9317 26.6059C42.0141 27.4438 41.4413 28.3667 41.0595 29.6223C40.8741 30.2322 40.8435 30.4798 40.8387 31.4146C40.8322 32.6678 40.9815 33.3351 41.5131 34.4277C42.3061 36.0578 43.872 37.3025 45.8281 37.8576C46.6965 38.104 48.6642 38.1208 49.5369 37.8892C50.7653 37.5632 51.71 37.049 52.5965 36.224C54.0245 34.895 54.6878 33.3679 54.6856 31.4146C54.6832 29.4191 54.0636 27.9875 52.608 26.6144C51.0982 25.1901 48.9759 24.549 46.7245 24.8371ZM67.5569 24.7953C65.384 25.057 63.6266 26.1407 62.5313 27.8946C61.7814 29.0954 61.4016 30.8167 61.5802 32.2046C61.9417 35.0137 63.7104 37.0858 66.4098 37.8626C66.9419 38.0157 67.2212 38.0414 68.3229 38.0384C69.2969 38.0357 69.7414 38 70.137 37.8927C71.2171 37.5997 72.5226 36.8253 73.0097 36.1888C73.2179 35.9168 73.2411 35.8248 73.2411 35.2714C73.2411 34.7168 73.2181 34.6263 73.0079 34.3516C72.6937 33.941 72.1722 33.7166 71.6351 33.761C71.3044 33.7883 71.0948 33.8787 70.5846 34.2138C69.7385 34.7699 69.0393 34.9817 68.209 34.9338C66.2216 34.8192 64.885 33.0015 65.2006 30.843C65.3222 30.0118 65.5883 29.4364 66.1004 28.8967C66.8517 28.1051 67.7007 27.809 68.7817 27.9618C69.3363 28.0402 69.863 28.2712 70.6375 28.7758C71.3532 29.2421 72.1924 29.1593 72.765 28.566C73.5328 27.7704 73.3766 26.7179 72.3824 25.9886C71.7249 25.5062 71.0253 25.1837 70.2204 24.9921C69.5649 24.8361 68.1105 24.7286 67.5569 24.7953ZM92.8334 24.9566C91.768 25.1065 90.5266 25.4795 90.1518 25.7621C89.3661 26.3545 89.3921 27.6287 90.2009 28.162C90.6489 28.4576 91.0365 28.4908 91.7517 28.2953C92.6169 28.0588 93.7084 27.932 94.4134 27.9861C95.5223 28.0712 96.2743 28.4895 96.6243 29.2158C96.8012 29.5832 96.8912 30.4505 96.7525 30.4505C96.7021 30.4505 96.4008 30.3786 96.0828 30.2907C94.1929 29.7689 91.8242 29.954 90.4098 30.7342C88.3297 31.8816 87.8954 34.9879 89.5686 36.7509C90.3716 37.5971 91.5134 38.02 92.9946 38.02C94.395 38.02 95.5167 37.6334 96.3921 36.849L96.8008 36.4829L96.8953 36.7975C97.1044 37.493 97.7444 37.9242 98.5632 37.9211C99.1596 37.919 99.6162 37.7211 99.9463 37.3221C100.375 36.8032 100.387 36.6765 100.352 32.6965C100.316 28.6399 100.31 28.5852 99.7468 27.3972C99.3693 26.601 98.6714 25.9079 97.8571 25.5203C96.8361 25.0344 96.4775 24.9692 94.6878 24.9446C93.8009 24.9325 92.9664 24.9378 92.8334 24.9566ZM48.8516 28.1009C50.1202 28.5197 51.1049 29.9521 51.1082 31.3836C51.1116 32.8593 50.3915 34.0877 49.1903 34.6548C48.6901 34.8909 48.5872 34.9098 47.8034 34.9098C47.0186 34.9098 46.9172 34.8911 46.4134 34.6533C44.6206 33.807 43.8848 31.4744 44.8288 29.6303C45.0849 29.1301 45.7295 28.4962 46.2311 28.2515C46.9831 27.8845 48.0164 27.8251 48.8516 28.1009ZM95.2925 32.2209C95.6251 32.2638 96.1283 32.3755 96.4108 32.4692L96.9246 32.6395L96.8878 33.2524C96.8452 33.9641 96.6567 34.3962 96.2233 34.7753C95.466 35.438 94.2339 35.6916 93.224 35.3927C91.9935 35.0286 91.6823 33.5772 92.6525 32.7281C92.9699 32.4505 93.3308 32.309 93.9542 32.2179C94.5341 32.1332 94.615 32.1334 95.2925 32.2209Z" fill="#DA002B"/>
<path d="M5.8398 4.89846C7.93551 2.25073 10.2752 0.747692 12.9489 0.331396C13.2117 0.29042 13.9905 0.271606 14.6793 0.289463C16.1574 0.327728 17.3582 0.5464 18.8435 1.04768C19.8798 1.39741 21.7902 2.26492 21.7902 2.3857C21.7902 2.50671 21.2063 3.51453 20.742 4.19494C19.047 6.67861 16.9863 8.435 14.829 9.23435C13.6241 9.68086 13.034 9.77461 11.4471 9.77166C9.98676 9.76887 9.28181 9.67823 7.97243 9.32491C6.49425 8.92607 4.09375 7.90039 4.09375 7.66761C4.09375 7.46791 5.22051 5.68091 5.8398 4.89846Z" fill="#12BF6C"/>
<path d="M19.1426 9.06733C21.2202 6.19144 24.785 2.62446 25.9922 2.21374C27.1698 1.81299 28.5496 2.34049 29.1694 3.42851C29.367 3.77545 29.421 3.9769 29.4504 4.47786C29.5132 5.54842 29.221 6.11531 28.1418 7.01614C25.2076 9.46553 22.4988 12.9433 21.1803 15.9536C19.9962 18.6575 19.5436 20.677 19.4743 23.5669C19.4236 25.6808 19.5274 26.7289 19.9408 28.2795C20.3602 29.8527 20.3843 30.0541 20.2237 30.6393C19.5851 32.9667 16.2774 33.2669 15.286 31.0875C15.1626 30.8163 14.9411 30.1073 14.7936 29.512C13.5867 24.6407 14.0652 19.2327 16.1308 14.3984C16.8585 12.6955 18.0668 10.5567 19.1426 9.06733Z" fill="#12BF6C"/>
</svg>
