<svg width="73" height="72" viewBox="0 0 73 72" fill="none" xmlns="http://www.w3.org/2000/svg">
<circle cx="36.5" cy="36" r="35.5" fill="white" stroke="#E2E2E2"/>
<path d="M44.4201 25.8056C45.3875 24.8382 47.046 24.8382 48.0134 25.8056L50.0173 27.8096C50.9847 28.777 50.9847 30.4354 50.0173 31.4029L34.815 46.5361C33.8476 47.5035 32.1891 47.5035 31.2217 46.5361L29.2178 44.5322C28.2503 43.5647 28.2503 41.9063 29.2178 40.9389L44.4201 25.8056Z" fill="#12BF6C"/>
<path d="M36.751 41.0772C37.7185 42.0446 37.7185 43.703 36.751 44.6704L34.7471 46.6744C33.7797 47.6418 32.1212 47.6418 31.1538 46.6744L22.3779 37.8294C21.4105 36.862 21.4105 35.2035 22.3779 34.2361L24.3819 32.2322C25.3493 31.2647 27.0077 31.2647 27.9751 32.2322L36.751 41.0772Z" fill="#75F2B6"/>
</svg>
