<svg width="20" height="20" viewBox="0 0 20 20" fill="none" xmlns="http://www.w3.org/2000/svg">
<path d="M6.46523 8.96449C6.95968 8.96449 7.44303 8.81787 7.85415 8.54317C8.26528 8.26847 8.58571 7.87802 8.77493 7.4212C8.96414 6.96439 9.01365 6.46172 8.91719 5.97677C8.82073 5.49182 8.58263 5.04636 8.23299 4.69673C7.88336 4.3471 7.43791 4.10899 6.95295 4.01253C6.468 3.91607 5.96533 3.96558 5.50852 4.1548C5.0517 4.34401 4.66126 4.66445 4.38655 5.07557C4.11185 5.48669 3.96523 5.97004 3.96523 6.46449C3.96595 7.12731 4.22958 7.76278 4.69826 8.23146C5.16694 8.70015 5.80241 8.96377 6.46523 8.96449ZM6.46523 5.63116C6.63004 5.63116 6.79116 5.68004 6.9282 5.7716C7.06524 5.86317 7.17205 5.99332 7.23513 6.14559C7.2982 6.29786 7.3147 6.46542 7.28255 6.62707C7.25039 6.78872 7.17103 6.93721 7.05448 7.05375C6.93794 7.17029 6.78945 7.24966 6.6278 7.28182C6.46615 7.31397 6.2986 7.29747 6.14632 7.23439C5.99405 7.17132 5.8639 7.06451 5.77234 6.92747C5.68077 6.79043 5.63189 6.62931 5.63189 6.46449C5.63204 6.24353 5.71989 6.03165 5.87613 5.8754C6.03238 5.71915 6.24426 5.63131 6.46523 5.63116ZM13.5355 11.0348C13.0411 11.0348 12.5577 11.1814 12.1466 11.4561C11.7355 11.7308 11.4151 12.1213 11.2258 12.5781C11.0366 13.0349 10.9871 13.5376 11.0836 14.0225C11.18 14.5075 11.4181 14.9529 11.7678 15.3026C12.1174 15.6522 12.5629 15.8903 13.0478 15.9868C13.5328 16.0832 14.0354 16.0337 14.4923 15.8445C14.9491 15.6553 15.3395 15.3349 15.6142 14.9237C15.8889 14.5126 16.0355 14.0293 16.0355 13.5348C16.0348 12.872 15.7712 12.2365 15.3025 11.7678C14.8338 11.2992 14.1984 11.0355 13.5355 11.0348ZM13.5355 14.3681C13.3707 14.3681 13.2096 14.3193 13.0726 14.2277C12.9355 14.1361 12.8287 14.006 12.7656 13.8537C12.7026 13.7014 12.6861 13.5339 12.7182 13.3722C12.7504 13.2106 12.8297 13.0621 12.9463 12.9456C13.0628 12.829 13.2113 12.7496 13.373 12.7175C13.5346 12.6853 13.7022 12.7018 13.8544 12.7649C14.0067 12.828 14.1369 12.9348 14.2284 13.0718C14.32 13.2089 14.3689 13.37 14.3689 13.5348C14.3687 13.7558 14.2809 13.9677 14.1246 14.1239C13.9684 14.2802 13.7565 14.368 13.5355 14.3681ZM16.4229 3.57715C16.3455 3.49975 16.2537 3.43835 16.1526 3.39646C16.0515 3.35457 15.9431 3.33301 15.8337 3.33301C15.7243 3.33301 15.6159 3.35457 15.5148 3.39646C15.4137 3.43835 15.3219 3.49975 15.2445 3.57715L3.57784 15.2438C3.49966 15.321 3.43753 15.4129 3.39501 15.5142C3.35249 15.6155 3.33043 15.7242 3.33008 15.8341C3.32974 15.944 3.35113 16.0528 3.39301 16.1544C3.4349 16.2559 3.49645 16.3482 3.57414 16.4259C3.65183 16.5036 3.74411 16.5651 3.84568 16.607C3.94725 16.6489 4.0561 16.6703 4.16596 16.6699C4.27582 16.6696 4.38453 16.6475 4.48583 16.605C4.58713 16.5625 4.67903 16.5003 4.75622 16.4222L16.4229 4.75549C16.5003 4.67813 16.5617 4.58628 16.6036 4.48519C16.6454 4.3841 16.667 4.27574 16.667 4.16632C16.667 4.05689 16.6454 3.94854 16.6036 3.84745C16.5617 3.74636 16.5003 3.65451 16.4229 3.57715Z" fill="#EF4444"/>
</svg>
