<svg width="24" height="24" viewBox="0 0 24 24" fill="none" xmlns="http://www.w3.org/2000/svg">
<path fill-rule="evenodd" clip-rule="evenodd" d="M14.5 17.5C17.8137 17.5 20.5 14.8137 20.5 11.5C20.5 8.18629 17.8137 5.5 14.5 5.5C11.1863 5.5 8.5 8.18629 8.5 11.5C8.5 14.8137 11.1863 17.5 14.5 17.5ZM14.5 19C16.301 19 17.9536 18.3652 19.2465 17.3072L22.4697 20.5303C22.7626 20.8232 23.2374 20.8232 23.5303 20.5303C23.8232 20.2374 23.8232 19.7626 23.5303 19.4697L20.3072 16.2465C21.3652 14.9536 22 13.301 22 11.5C22 7.35786 18.6421 4 14.5 4C10.3579 4 7 7.35786 7 11.5C7 15.6421 10.3579 19 14.5 19ZM0.75 5C0.335786 5 0 5.33579 0 5.75C0 6.16421 0.335787 6.5 0.75 6.5H6.25C6.66421 6.5 7 6.16421 7 5.75C7 5.33579 6.66421 5 6.25 5H0.75ZM0 11.75C0 11.3358 0.335786 11 0.75 11H4.25C4.66421 11 5 11.3358 5 11.75C5 12.1642 4.66421 12.5 4.25 12.5H0.75C0.335786 12.5 0 12.1642 0 11.75ZM0.75 17C0.335786 17 0 17.3358 0 17.75C0 18.1642 0.335787 18.5 0.75 18.5H6.25C6.66421 18.5 7 18.1642 7 17.75C7 17.3358 6.66421 17 6.25 17H0.75Z" fill="#A2A2A2"/>
</svg>
