<svg width="25" height="24" viewBox="0 0 25 24" fill="none" xmlns="http://www.w3.org/2000/svg">
<path fill-rule="evenodd" clip-rule="evenodd" d="M12.5 1.25C11.8953 1.25 11.3384 1.40029 10.7288 1.65242C10.1401 1.89588 9.45633 2.25471 8.6049 2.70153L6.53739 3.78651C5.49242 4.33487 4.65616 4.77371 4.01047 5.20491C3.34154 5.65164 2.82632 6.12201 2.45112 6.75918C2.07718 7.39421 1.90896 8.08184 1.82829 8.90072C1.74999 9.69558 1.74999 10.6731 1.75 11.9026V12.0974C1.74999 13.3268 1.74999 14.3044 1.82829 15.0993C1.90896 15.9182 2.07718 16.6058 2.45112 17.2408C2.82632 17.878 3.34154 18.3484 4.01047 18.7951C4.65613 19.2263 5.49233 19.6651 6.53723 20.2134L8.60486 21.2985C9.45628 21.7453 10.1401 22.1041 10.7288 22.3476C11.3384 22.5997 11.8953 22.75 12.5 22.75C13.1047 22.75 13.6616 22.5997 14.2712 22.3476C14.8599 22.1041 15.5437 21.7453 16.3951 21.2985L18.4626 20.2135C19.5076 19.6651 20.3438 19.2263 20.9895 18.7951C21.6585 18.3484 22.1737 17.878 22.5489 17.2408C22.9228 16.6058 23.091 15.9182 23.1717 15.0993C23.25 14.3044 23.25 13.3269 23.25 12.0975V11.9025C23.25 10.6731 23.25 9.69557 23.1717 8.90072C23.091 8.08184 22.9228 7.39421 22.5489 6.75918C22.1737 6.12201 21.6585 5.65164 20.9895 5.20491C20.3438 4.77371 19.5076 4.33487 18.4626 3.7865L16.3951 2.70154C15.5437 2.25472 14.8599 1.89589 14.2712 1.65242C13.6616 1.40029 13.1047 1.25 12.5 1.25ZM9.2708 4.04608C10.1605 3.57917 10.784 3.2528 11.302 3.03856C11.8062 2.83004 12.1605 2.75 12.5 2.75C12.8395 2.75 13.1938 2.83004 13.698 3.03856C14.216 3.2528 14.8395 3.57917 15.7292 4.04608L17.7292 5.09563C18.8189 5.66748 19.5845 6.07032 20.1565 6.45232C20.4387 6.64078 20.6604 6.81578 20.8395 6.99174L12.5 11.1615L4.16054 6.99174C4.33956 6.81578 4.56132 6.64078 4.84352 6.45232C5.41553 6.07032 6.18111 5.66747 7.2708 5.09563L9.2708 4.04608ZM3.43768 8.30736C3.38718 8.52125 3.34901 8.76412 3.32106 9.04778C3.25084 9.7606 3.25 10.6644 3.25 11.9415V12.0585C3.25 13.3356 3.25084 14.2394 3.32106 14.9522C3.38974 15.6494 3.52022 16.1002 3.74367 16.4797C3.96587 16.857 4.28727 17.1762 4.84352 17.5477C5.41553 17.9297 6.18111 18.3325 7.2708 18.9044L9.2708 19.9539C10.1605 20.4208 10.784 20.7472 11.302 20.9614C11.4656 21.0291 11.6134 21.0832 11.75 21.1255V12.4635L3.43768 8.30736ZM13.25 21.1255C13.3866 21.0832 13.5344 21.0291 13.698 20.9614C14.216 20.7472 14.8395 20.4208 15.7292 19.9539L17.7292 18.9044C18.8189 18.3325 19.5845 17.9297 20.1565 17.5477C20.7127 17.1762 21.0341 16.857 21.2563 16.4797C21.4798 16.1002 21.6103 15.6494 21.6789 14.9522C21.7492 14.2394 21.75 13.3356 21.75 12.0585V11.9415C21.75 10.6644 21.7492 9.7606 21.6789 9.04778C21.651 8.76412 21.6128 8.52125 21.5623 8.30736L13.25 12.4635V21.1255Z" fill="#2F2F2F"/>
</svg>
