<svg width="21" height="20" viewBox="0 0 21 20" fill="none" xmlns="http://www.w3.org/2000/svg">
<path d="M7.75817 6.42508L9.6665 4.50841V12.5001C9.6665 12.7211 9.7543 12.9331 9.91058 13.0893C10.0669 13.2456 10.2788 13.3334 10.4998 13.3334C10.7209 13.3334 10.9328 13.2456 11.0891 13.0893C11.2454 12.9331 11.3332 12.7211 11.3332 12.5001V4.50841L13.2415 6.42508C13.319 6.50318 13.4111 6.56518 13.5127 6.60749C13.6142 6.64979 13.7232 6.67158 13.8332 6.67158C13.9432 6.67158 14.0521 6.64979 14.1537 6.60749C14.2552 6.56518 14.3474 6.50318 14.4248 6.42508C14.5029 6.34761 14.5649 6.25544 14.6072 6.15389C14.6496 6.05234 14.6713 5.94342 14.6713 5.83341C14.6713 5.7234 14.6496 5.61448 14.6072 5.51293C14.5649 5.41138 14.5029 5.31921 14.4248 5.24174L11.0915 1.90841C11.0123 1.83254 10.9188 1.77307 10.8165 1.73341C10.6136 1.65006 10.3861 1.65006 10.1832 1.73341C10.0809 1.77307 9.98742 1.83254 9.90817 1.90841L6.57484 5.24174C6.49714 5.31944 6.4355 5.41168 6.39345 5.5132C6.3514 5.61472 6.32976 5.72353 6.32976 5.83341C6.32976 5.94329 6.3514 6.0521 6.39345 6.15362C6.4355 6.25514 6.49714 6.34738 6.57484 6.42508C6.65254 6.50278 6.74478 6.56441 6.8463 6.60646C6.94781 6.64851 7.05662 6.67015 7.1665 6.67015C7.27639 6.67015 7.38519 6.64851 7.48671 6.60646C7.58823 6.56441 7.68047 6.50278 7.75817 6.42508ZM17.9998 10.0001C17.7788 10.0001 17.5669 10.0879 17.4106 10.2442C17.2543 10.4004 17.1665 10.6124 17.1665 10.8334V15.8334C17.1665 16.0544 17.0787 16.2664 16.9224 16.4227C16.7661 16.5789 16.5542 16.6667 16.3332 16.6667H4.6665C4.44549 16.6667 4.23353 16.5789 4.07725 16.4227C3.92097 16.2664 3.83317 16.0544 3.83317 15.8334V10.8334C3.83317 10.6124 3.74537 10.4004 3.58909 10.2442C3.43281 10.0879 3.22085 10.0001 2.99984 10.0001C2.77882 10.0001 2.56686 10.0879 2.41058 10.2442C2.2543 10.4004 2.1665 10.6124 2.1665 10.8334V15.8334C2.1665 16.4965 2.4299 17.1323 2.89874 17.6012C3.36758 18.07 4.00346 18.3334 4.6665 18.3334H16.3332C16.9962 18.3334 17.6321 18.07 18.1009 17.6012C18.5698 17.1323 18.8332 16.4965 18.8332 15.8334V10.8334C18.8332 10.6124 18.7454 10.4004 18.5891 10.2442C18.4328 10.0879 18.2209 10.0001 17.9998 10.0001Z" fill="#111111"/>
</svg>
