<svg width="24" height="24" viewBox="0 0 24 24" fill="none" xmlns="http://www.w3.org/2000/svg">
<path d="M21.2903 4.61183C20.7796 4.10083 20.1731 3.69547 19.5057 3.41891C18.8382 3.14235 18.1228 3 17.4003 3C16.6778 3 15.9624 3.14235 15.295 3.41891C14.6275 3.69547 14.0211 4.10083 13.5103 4.61183L12.4503 5.67183L11.3903 4.61183C10.3586 3.58013 8.95935 3.00053 7.50031 3.00053C6.04128 3.00053 4.64201 3.58013 3.61031 4.61183C2.57862 5.64352 1.99902 7.04279 1.99902 8.50183C1.99902 9.96086 2.57862 11.3601 3.61031 12.3918L4.67031 13.4518L12.4503 21.2318L20.2303 13.4518L21.2903 12.3918C21.8013 11.8811 22.2067 11.2746 22.4832 10.6072C22.7598 9.93972 22.9021 9.22432 22.9021 8.50183C22.9021 7.77934 22.7598 7.06393 22.4832 6.39647C22.2067 5.72901 21.8013 5.12258 21.2903 4.61183V4.61183Z" stroke="#111111" stroke-width="2" stroke-linecap="round" stroke-linejoin="round"/>
</svg>
