<svg width="20" height="20" viewBox="0 0 20 20" fill="none" xmlns="http://www.w3.org/2000/svg">
<path d="M0.833008 10.4163V14.583C0.833008 14.804 0.920805 15.016 1.07709 15.1723C1.23337 15.3285 1.44533 15.4163 1.66634 15.4163H2.49967C2.49967 16.0794 2.76307 16.7153 3.23191 17.1841C3.70075 17.6529 4.33663 17.9163 4.99967 17.9163C5.66272 17.9163 6.2986 17.6529 6.76744 17.1841C7.23628 16.7153 7.49967 16.0794 7.49967 15.4163H12.4997C12.4997 16.0794 12.7631 16.7153 13.2319 17.1841C13.7007 17.6529 14.3366 17.9163 14.9997 17.9163C15.6627 17.9163 16.2986 17.6529 16.7674 17.1841C17.2363 16.7153 17.4997 16.0794 17.4997 15.4163H18.333C18.554 15.4163 18.766 15.3285 18.9223 15.1723C19.0785 15.016 19.1663 14.804 19.1663 14.583V4.58301C19.1663 3.91997 18.9029 3.28408 18.4341 2.81524C17.9653 2.3464 17.3294 2.08301 16.6663 2.08301H9.16634C8.5033 2.08301 7.86741 2.3464 7.39857 2.81524C6.92973 3.28408 6.66634 3.91997 6.66634 4.58301V6.24967H4.99967C4.61156 6.24967 4.22878 6.34004 3.88164 6.51361C3.5345 6.68718 3.23254 6.93918 2.99967 7.24967L0.999674 9.91634C0.975301 9.95256 0.955695 9.99178 0.941341 10.033L0.891341 10.1247C0.854563 10.2176 0.834804 10.3164 0.833008 10.4163ZM14.1663 15.4163C14.1663 15.2515 14.2152 15.0904 14.3068 14.9534C14.3983 14.8163 14.5285 14.7095 14.6808 14.6464C14.833 14.5834 15.0006 14.5669 15.1622 14.599C15.3239 14.6312 15.4724 14.7105 15.5889 14.8271C15.7055 14.9436 15.7848 15.0921 15.817 15.2538C15.8491 15.4154 15.8326 15.583 15.7696 15.7352C15.7065 15.8875 15.5997 16.0177 15.4626 16.1092C15.3256 16.2008 15.1645 16.2497 14.9997 16.2497C14.7787 16.2497 14.5667 16.1619 14.4104 16.0056C14.2541 15.8493 14.1663 15.6374 14.1663 15.4163ZM8.33301 4.58301C8.33301 4.36199 8.4208 4.15003 8.57709 3.99375C8.73337 3.83747 8.94533 3.74967 9.16634 3.74967H16.6663C16.8874 3.74967 17.0993 3.83747 17.2556 3.99375C17.4119 4.15003 17.4997 4.36199 17.4997 4.58301V13.7497H16.8497C16.6154 13.4919 16.3297 13.2859 16.0112 13.145C15.6926 13.004 15.348 12.9312 14.9997 12.9312C14.6513 12.9312 14.3068 13.004 13.9882 13.145C13.6696 13.2859 13.384 13.4919 13.1497 13.7497H8.33301V4.58301ZM6.66634 9.58301H3.33301L4.33301 8.24967C4.41063 8.14618 4.51128 8.06217 4.627 8.00432C4.74271 7.94646 4.8703 7.91634 4.99967 7.91634H6.66634V9.58301ZM4.16634 15.4163C4.16634 15.2515 4.21521 15.0904 4.30678 14.9534C4.39835 14.8163 4.5285 14.7095 4.68077 14.6464C4.83304 14.5834 5.0006 14.5669 5.16225 14.599C5.3239 14.6312 5.47239 14.7105 5.58893 14.8271C5.70547 14.9436 5.78484 15.0921 5.817 15.2538C5.84915 15.4154 5.83265 15.583 5.76957 15.7352C5.7065 15.8875 5.59969 16.0177 5.46265 16.1092C5.32561 16.2008 5.16449 16.2497 4.99967 16.2497C4.77866 16.2497 4.5667 16.1619 4.41042 16.0056C4.25414 15.8493 4.16634 15.6374 4.16634 15.4163ZM2.49967 11.2497H6.66634V13.5663C6.17453 13.1268 5.52895 12.8994 4.87025 12.9338C4.21155 12.9681 3.59311 13.2614 3.14967 13.7497H2.49967V11.2497Z" fill="#7600EC"/>
</svg>
