<svg width="26" height="26" viewBox="0 0 26 26" fill="none" xmlns="http://www.w3.org/2000/svg">
<path d="M20.5833 5.4165H10.6492C9.78752 5.41726 8.96142 5.76017 8.35252 6.36984L2.48085 12.2307C2.37931 12.3314 2.29872 12.4512 2.24372 12.5832C2.18872 12.7152 2.1604 12.8568 2.1604 12.9998C2.1604 13.1429 2.18872 13.2844 2.24372 13.4165C2.29872 13.5485 2.37931 13.6683 2.48085 13.769L8.35252 19.6298C8.96142 20.2395 9.78752 20.5824 10.6492 20.5832H20.5833C21.4453 20.5832 22.272 20.2408 22.8814 19.6313C23.4909 19.0218 23.8333 18.1951 23.8333 17.3332V8.6665C23.8333 7.80455 23.4909 6.9779 22.8814 6.36841C22.272 5.75891 21.4453 5.4165 20.5833 5.4165ZM21.6667 17.3332C21.6667 17.6205 21.5525 17.896 21.3494 18.0992C21.1462 18.3024 20.8707 18.4165 20.5833 18.4165H10.6492C10.3624 18.4125 10.0876 18.3003 9.88002 18.1023L4.77752 12.9998L9.88002 7.89734C10.0876 7.69938 10.3624 7.58716 10.6492 7.58317H20.5833C20.8707 7.58317 21.1462 7.69731 21.3494 7.90047C21.5525 8.10364 21.6667 8.37919 21.6667 8.6665V17.3332ZM18.1025 10.064C18.0018 9.96246 17.882 9.88187 17.75 9.82687C17.618 9.77187 17.4764 9.74356 17.3333 9.74356C17.1903 9.74356 17.0487 9.77187 16.9167 9.82687C16.7847 9.88187 16.6649 9.96246 16.5642 10.064L15.1667 11.4723L13.7692 10.064C13.5652 9.86001 13.2885 9.74541 13 9.74541C12.7115 9.74541 12.4348 9.86001 12.2308 10.064C12.0269 10.268 11.9123 10.5447 11.9123 10.8332C11.9123 11.1217 12.0269 11.3983 12.2308 11.6023L13.6392 12.9998L12.2308 14.3973C12.1293 14.498 12.0487 14.6179 11.9937 14.7499C11.9387 14.8819 11.9104 15.0235 11.9104 15.1665C11.9104 15.3095 11.9387 15.4511 11.9937 15.5831C12.0487 15.7151 12.1293 15.835 12.2308 15.9357C12.3316 16.0372 12.4514 16.1178 12.5834 16.1728C12.7154 16.2278 12.857 16.2561 13 16.2561C13.143 16.2561 13.2846 16.2278 13.4166 16.1728C13.5487 16.1178 13.6685 16.0372 13.7692 15.9357L15.1667 14.5273L16.5642 15.9357C16.6649 16.0372 16.7847 16.1178 16.9167 16.1728C17.0487 16.2278 17.1903 16.2561 17.3333 16.2561C17.4764 16.2561 17.618 16.2278 17.75 16.1728C17.882 16.1178 18.0018 16.0372 18.1025 15.9357C18.2041 15.835 18.2846 15.7151 18.3396 15.5831C18.3946 15.4511 18.423 15.3095 18.423 15.1665C18.423 15.0235 18.3946 14.8819 18.3396 14.7499C18.2846 14.6179 18.2041 14.498 18.1025 14.3973L16.6942 12.9998L18.1025 11.6023C18.2041 11.5016 18.2846 11.3818 18.3396 11.2498C18.3946 11.1178 18.423 10.9762 18.423 10.8332C18.423 10.6902 18.3946 10.5486 18.3396 10.4165C18.2846 10.2845 18.2041 10.1647 18.1025 10.064Z" fill="#111111"/>
</svg>
