<svg width="20" height="20" viewBox="0 0 20 20" fill="none" xmlns="http://www.w3.org/2000/svg">
<path fill-rule="evenodd" clip-rule="evenodd" d="M4 0C1.79086 0 0 1.79086 0 4V16C0 18.2091 1.79086 20 4 20H16C18.2091 20 20 18.2091 20 16V4C20 1.79086 18.2091 0 16 0H4ZM13.7369 6.29043L8.43692 11.5904L6.31692 9.47043C6.22727 9.36574 6.11695 9.28072 5.99289 9.2207C5.86882 9.16068 5.73369 9.12695 5.59597 9.12163C5.45825 9.11631 5.32092 9.13951 5.19259 9.18979C5.06427 9.24006 4.94772 9.31632 4.85027 9.41378C4.75281 9.51123 4.67655 9.62778 4.62628 9.7561C4.576 9.88443 4.5528 10.0218 4.55812 10.1595C4.56344 10.2972 4.59717 10.4323 4.65719 10.5564C4.71721 10.6805 4.80224 10.7908 4.90692 10.8804L7.73692 13.7104C7.92318 13.8952 8.17458 13.9993 8.43692 14.0004C8.56852 14.0012 8.69899 13.976 8.82082 13.9262C8.94266 13.8764 9.05348 13.8031 9.14692 13.7104L15.1469 7.71043C15.2406 7.61746 15.315 7.50686 15.3658 7.385C15.4166 7.26314 15.4427 7.13244 15.4427 7.00043C15.4427 6.86841 15.4166 6.73771 15.3658 6.61585C15.315 6.49399 15.2406 6.38339 15.1469 6.29043C14.9596 6.10418 14.7061 5.99963 14.4419 5.99963C14.1777 5.99963 13.9243 6.10418 13.7369 6.29043Z" fill="#DA002B"/>
</svg>
