<svg width="25" height="24" viewBox="0 0 25 24" fill="none" xmlns="http://www.w3.org/2000/svg">
<path d="M7.21275 10.6736C7.66723 8.15492 9.88539 6.25 12.5437 6.25C14.1212 6.25 15.5431 6.9209 16.5328 7.9907C16.8141 8.29476 16.7956 8.76927 16.4915 9.05055C16.1875 9.33183 15.713 9.31337 15.4317 9.0093C14.7154 8.23504 13.6879 7.75 12.5437 7.75C10.7056 7.75 9.16974 9.00212 8.74452 10.6853L8.98095 10.4586C9.27994 10.172 9.75471 10.182 10.0414 10.4809C10.328 10.7799 10.318 11.2547 10.0191 11.5414L8.39662 13.0969C8.24932 13.2381 8.05084 13.3133 7.84695 13.3049C7.64306 13.2966 7.45137 13.2056 7.31608 13.0528L5.93852 11.4972C5.66391 11.1871 5.69267 10.7131 6.00277 10.4385C6.31286 10.1639 6.78686 10.1927 7.06148 10.5028L7.21275 10.6736Z" fill="#2F2F2F"/>
<path d="M17.1485 10.6959C17.3523 10.704 17.544 10.7947 17.6795 10.9472L19.0607 12.5019C19.3358 12.8115 19.3078 13.2856 18.9981 13.5607C18.6885 13.8358 18.2144 13.8078 17.9393 13.4981L17.7841 13.3234C17.3295 15.8458 15.1011 17.7509 12.4348 17.7509C10.8635 17.7509 9.44543 17.0895 8.45312 16.0322C8.16966 15.7302 8.18472 15.2555 8.48675 14.9721C8.78879 14.6886 9.26342 14.7037 9.54688 15.0057C10.2655 15.7714 11.292 16.2509 12.4348 16.2509C14.2819 16.2509 15.822 14.9991 16.2503 13.3193L16.0195 13.5409C15.7208 13.8278 15.246 13.8183 14.9591 13.5195C14.6721 13.2208 14.6817 12.746 14.9805 12.4591L16.5993 10.9044C16.7464 10.7631 16.9447 10.6878 17.1485 10.6959Z" fill="#2F2F2F"/>
<path fill-rule="evenodd" clip-rule="evenodd" d="M12.4426 1.25C10.1342 1.24999 8.32519 1.24998 6.9137 1.43975C5.46897 1.63399 4.32895 2.03933 3.43414 2.93414C2.53933 3.82895 2.13399 4.96897 1.93975 6.41371C1.74998 7.82519 1.74999 9.63423 1.75 11.9426V12.0574C1.74999 14.3658 1.74998 16.1748 1.93975 17.5863C2.13399 19.031 2.53933 20.1711 3.43414 21.0659C4.32895 21.9607 5.46897 22.366 6.9137 22.5603C8.32519 22.75 10.1342 22.75 12.4426 22.75H12.5574C14.8658 22.75 16.6748 22.75 18.0863 22.5603C19.531 22.366 20.6711 21.9607 21.5659 21.0659C22.4607 20.1711 22.866 19.031 23.0603 17.5863C23.25 16.1748 23.25 14.3658 23.25 12.0574V11.9426C23.25 9.63423 23.25 7.82519 23.0603 6.41371C22.866 4.96897 22.4607 3.82895 21.5659 2.93414C20.6711 2.03933 19.531 1.63399 18.0863 1.43975C16.6748 1.24998 14.8658 1.24999 12.5574 1.25H12.4426ZM4.4948 3.9948C5.06445 3.42514 5.83517 3.09825 7.11358 2.92637C8.41356 2.75159 10.1218 2.75 12.5 2.75C14.8782 2.75 16.5864 2.75159 17.8864 2.92637C19.1648 3.09825 19.9355 3.42514 20.5052 3.9948C21.0749 4.56445 21.4018 5.33517 21.5736 6.61358C21.7484 7.91356 21.75 9.62178 21.75 12C21.75 14.3782 21.7484 16.0864 21.5736 17.3864C21.4018 18.6648 21.0749 19.4355 20.5052 20.0052C19.9355 20.5749 19.1648 20.9018 17.8864 21.0736C16.5864 21.2484 14.8782 21.25 12.5 21.25C10.1218 21.25 8.41356 21.2484 7.11358 21.0736C5.83517 20.9018 5.06445 20.5749 4.4948 20.0052C3.92514 19.4355 3.59825 18.6648 3.42637 17.3864C3.25159 16.0864 3.25 14.3782 3.25 12C3.25 9.62178 3.25159 7.91356 3.42637 6.61358C3.59825 5.33517 3.92514 4.56445 4.4948 3.9948Z" fill="#2F2F2F"/>
</svg>
