<svg width="25" height="24" viewBox="0 0 25 24" fill="none" xmlns="http://www.w3.org/2000/svg">
<path d="M20.6603 5.00017C19.6002 3.93737 18.1951 3.28871 16.6986 3.17134C15.2021 3.05397 13.713 3.47563 12.5003 4.36017C11.2279 3.4138 9.64427 2.98468 8.0682 3.1592C6.49212 3.33373 5.04072 4.09894 4.00625 5.30075C2.97178 6.50256 2.4311 8.05169 2.49308 9.63618C2.55506 11.2207 3.21509 12.7228 4.34028 13.8402L10.5503 20.0602C11.0703 20.5719 11.7707 20.8588 12.5003 20.8588C13.2299 20.8588 13.9303 20.5719 14.4503 20.0602L20.6603 13.8402C21.8279 12.6654 22.4832 11.0764 22.4832 9.42017C22.4832 7.76389 21.8279 6.1749 20.6603 5.00017ZM19.2503 12.4602L13.0403 18.6702C12.9696 18.7415 12.8855 18.7982 12.7928 18.8368C12.7001 18.8755 12.6007 18.8954 12.5003 18.8954C12.3999 18.8954 12.3004 18.8755 12.2077 18.8368C12.115 18.7982 12.0309 18.7415 11.9603 18.6702L5.75028 12.4302C4.96603 11.6285 4.52689 10.5516 4.52689 9.43017C4.52689 8.3087 4.96603 7.23182 5.75028 6.43017C6.54943 5.64115 7.62725 5.19873 8.75028 5.19873C9.8733 5.19873 10.9511 5.64115 11.7503 6.43017C11.8432 6.52389 11.9538 6.59829 12.0757 6.64906C12.1976 6.69983 12.3283 6.72596 12.4603 6.72596C12.5923 6.72596 12.723 6.69983 12.8449 6.64906C12.9667 6.59829 13.0773 6.52389 13.1703 6.43017C13.9694 5.64115 15.0472 5.19873 16.1703 5.19873C17.2933 5.19873 18.3711 5.64115 19.1703 6.43017C19.9653 7.22132 20.4189 8.29236 20.4338 9.41385C20.4488 10.5353 20.0239 11.6181 19.2503 12.4302V12.4602Z" fill="#999999"/>
</svg>
