<svg width="25" height="24" viewBox="0 0 25 24" fill="none" xmlns="http://www.w3.org/2000/svg">
<path fill-rule="evenodd" clip-rule="evenodd" d="M5.75 7.70031C5.75 4.10215 8.80876 1.25 12.5 1.25C16.108 1.25 19.1116 3.97488 19.2454 7.45788L19.7231 7.61714C20.1863 7.77148 20.5922 7.90676 20.9142 8.05657C21.2623 8.21853 21.5814 8.42714 21.8253 8.76554C22.0692 9.10394 22.1662 9.47259 22.2098 9.85407C22.2501 10.207 22.25 10.6348 22.25 11.123V16.8712C22.25 17.4806 22.2501 18.0005 22.2028 18.4176C22.153 18.8563 22.0418 19.2875 21.7404 19.6553C21.5674 19.8665 21.3573 20.0445 21.1205 20.1805C20.7081 20.4173 20.2645 20.4561 19.8236 20.433C19.4044 20.4111 18.8915 20.3256 18.2904 20.2254L18.2488 20.2185C16.956 20.003 16.4351 19.9216 15.9274 19.9641C15.7417 19.9796 15.5571 20.0074 15.375 20.0471C14.8774 20.1558 14.3988 20.3891 13.216 20.9805C13.1749 21.0011 13.1342 21.0214 13.094 21.0415C11.7114 21.7331 10.8595 22.1592 9.94031 22.2923C9.66384 22.3323 9.38482 22.3522 9.10546 22.3516C8.17668 22.3499 7.27995 22.0508 5.82536 21.5657C5.78328 21.5517 5.74074 21.5375 5.69772 21.5231L5.31415 21.3953L5.27684 21.3828C4.81373 21.2285 4.40783 21.0932 4.0858 20.9434C3.73766 20.7815 3.41861 20.5729 3.17471 20.2345C2.9308 19.8961 2.83379 19.5274 2.79024 19.1459C2.74995 18.793 2.74997 18.3652 2.75 17.877L2.75 12.8572C2.74997 12.0711 2.74994 11.4085 2.81729 10.8895C2.88759 10.3478 3.04652 9.81811 3.48262 9.4198C3.61082 9.30271 3.75213 9.20085 3.90375 9.11626C4.41953 8.8285 4.97226 8.84521 5.50841 8.94983C5.61717 8.97105 5.73109 8.99718 5.85019 9.02754C5.78411 8.5817 5.75 8.13723 5.75 7.70031ZM6.24869 10.7093C5.82072 10.5713 5.49224 10.475 5.22113 10.4221C4.82599 10.345 4.69646 10.3917 4.63459 10.4262C4.58405 10.4544 4.53694 10.4883 4.49421 10.5274C4.4419 10.5751 4.35663 10.6833 4.30482 11.0825C4.25151 11.4933 4.25 12.0575 4.25 12.908V17.8377C4.25 18.3768 4.25114 18.7181 4.28055 18.9758C4.30779 19.2143 4.35234 19.303 4.39157 19.3574C4.4308 19.4118 4.50083 19.4821 4.71849 19.5834C4.95364 19.6928 5.27709 19.8018 5.78849 19.9723L6.17205 20.1001C7.79563 20.6413 8.45089 20.8504 9.1083 20.8516C9.31478 20.852 9.52101 20.8374 9.72537 20.8078C10.3758 20.7136 11.0009 20.411 12.5452 19.6389C12.5765 19.6232 12.6074 19.6078 12.638 19.5925C13.6987 19.062 14.352 18.7352 15.055 18.5817C15.3014 18.5279 15.551 18.4903 15.8023 18.4693C16.5193 18.4093 17.2344 18.5286 18.3945 18.7221C18.4278 18.7276 18.4614 18.7332 18.4954 18.7389C19.1497 18.8479 19.5779 18.9181 19.9019 18.9351C20.2138 18.9514 20.321 18.9098 20.3735 18.8797C20.4524 18.8344 20.5225 18.775 20.5801 18.7046C20.6185 18.6578 20.6771 18.5589 20.7123 18.2486C20.7489 17.9262 20.75 17.4923 20.75 16.829V11.1623C20.75 10.6232 20.7489 10.2819 20.7195 10.0242C20.6922 9.7857 20.6477 9.69703 20.6084 9.64261C20.5692 9.58818 20.4992 9.51787 20.2815 9.41661C20.0464 9.30722 19.7229 9.19821 19.2115 9.02774L19.1527 9.00813C18.9625 10.3095 18.4996 11.6233 17.8173 12.7959C16.9048 14.364 15.5697 15.7299 13.8971 16.4595C13.0094 16.8468 11.9906 16.8468 11.1029 16.4595C9.43027 15.7299 8.09519 14.364 7.18273 12.7959C6.79871 12.136 6.4842 11.4313 6.24869 10.7093ZM12.5 2.75C9.56383 2.75 7.25 5.00208 7.25 7.70031C7.25 9.11775 7.68744 10.6808 8.47922 12.0415C9.27121 13.4026 10.3875 14.5109 11.7027 15.0847C12.208 15.3051 12.792 15.3051 13.2973 15.0847C14.6125 14.5109 15.7288 13.4026 16.5208 12.0415C17.3126 10.6808 17.75 9.11775 17.75 7.70031C17.75 5.00208 15.4362 2.75 12.5 2.75ZM12.5 6.75C11.8096 6.75 11.25 7.30964 11.25 8C11.25 8.69036 11.8096 9.25 12.5 9.25C13.1904 9.25 13.75 8.69036 13.75 8C13.75 7.30964 13.1904 6.75 12.5 6.75ZM9.75 8C9.75 6.48122 10.9812 5.25 12.5 5.25C14.0188 5.25 15.25 6.48122 15.25 8C15.25 9.51878 14.0188 10.75 12.5 10.75C10.9812 10.75 9.75 9.51878 9.75 8Z" fill="#2F2F2F"/>
</svg>
