<svg width="20" height="20" viewBox="0 0 20 20" fill="none" xmlns="http://www.w3.org/2000/svg">
<path d="M18.333 13.3337H16.5163C16.6134 13.0664 16.6641 12.7846 16.6663 12.5003V8.33366C16.6663 7.67062 16.4029 7.03473 15.9341 6.56589C15.4653 6.09705 14.8294 5.83366 14.1663 5.83366H9.16634C8.5033 5.83366 7.86741 6.09705 7.39857 6.56589C6.92973 7.03473 6.66634 7.67062 6.66634 8.33366V12.5003C6.66859 12.7846 6.71932 13.0664 6.81634 13.3337H5.83301C5.61199 13.3337 5.40003 13.2459 5.24375 13.0896C5.08747 12.9333 4.99967 12.7213 4.99967 12.5003V4.16699C4.99967 3.50395 4.73628 2.86807 4.26744 2.39923C3.7986 1.93038 3.16272 1.66699 2.49967 1.66699H1.66634C1.44533 1.66699 1.23337 1.75479 1.07709 1.91107C0.920805 2.06735 0.833008 2.27931 0.833008 2.50033C0.833008 2.72134 0.920805 2.9333 1.07709 3.08958C1.23337 3.24586 1.44533 3.33366 1.66634 3.33366H2.49967C2.72069 3.33366 2.93265 3.42146 3.08893 3.57774C3.24521 3.73402 3.33301 3.94598 3.33301 4.16699V12.5003C3.33608 13.0477 3.51874 13.579 3.85294 14.0126C4.18715 14.4461 4.65441 14.758 5.18301 14.9003C5.02954 15.2758 4.96972 15.6829 5.00873 16.0867C5.04774 16.4904 5.18439 16.8786 5.4069 17.2177C5.62941 17.5568 5.9311 17.8367 6.28592 18.0333C6.64075 18.2298 7.03806 18.337 7.44358 18.3457C7.8491 18.3544 8.25064 18.2643 8.61356 18.0831C8.97648 17.902 9.28988 17.6353 9.52671 17.306C9.76355 16.9767 9.91671 16.5947 9.97297 16.193C10.0292 15.7914 9.98692 15.382 9.84967 15.0003H12.6497C12.5126 15.3779 12.4686 15.783 12.5213 16.1812C12.574 16.5795 12.7219 16.9592 12.9524 17.2881C13.183 17.6171 13.4894 17.8856 13.8458 18.071C14.2022 18.2565 14.598 18.3533 14.9997 18.3533C15.4014 18.3533 15.7972 18.2565 16.1535 18.071C16.5099 17.8856 16.8163 17.6171 17.0469 17.2881C17.2775 16.9592 17.4254 16.5795 17.4781 16.1812C17.5308 15.783 17.4867 15.3779 17.3497 15.0003H18.333C18.554 15.0003 18.766 14.9125 18.9223 14.7562C19.0785 14.6 19.1663 14.388 19.1663 14.167C19.1663 13.946 19.0785 13.734 18.9223 13.5777C18.766 13.4215 18.554 13.3337 18.333 13.3337ZM7.49967 16.667C7.33486 16.667 7.17374 16.6181 7.0367 16.5266C6.89966 16.435 6.79285 16.3048 6.72977 16.1526C6.6667 16.0003 6.6502 15.8327 6.68235 15.6711C6.71451 15.5094 6.79387 15.3609 6.91042 15.2444C7.02696 15.1279 7.17545 15.0485 7.3371 15.0163C7.49875 14.9842 7.66631 15.0007 7.81858 15.0638C7.97085 15.1268 8.101 15.2336 8.19256 15.3707C8.28413 15.5077 8.33301 15.6688 8.33301 15.8337C8.33301 16.0547 8.24521 16.2666 8.08893 16.4229C7.93265 16.5792 7.72069 16.667 7.49967 16.667ZM9.16634 13.3337C8.94533 13.3337 8.73337 13.2459 8.57709 13.0896C8.4208 12.9333 8.33301 12.7213 8.33301 12.5003V8.33366C8.33301 8.11265 8.4208 7.90068 8.57709 7.7444C8.73337 7.58812 8.94533 7.50033 9.16634 7.50033H14.1663C14.3874 7.50033 14.5993 7.58812 14.7556 7.7444C14.9119 7.90068 14.9997 8.11265 14.9997 8.33366V12.5003C14.9997 12.7213 14.9119 12.9333 14.7556 13.0896C14.5993 13.2459 14.3874 13.3337 14.1663 13.3337H9.16634ZM14.9997 16.667C14.8349 16.667 14.6737 16.6181 14.5367 16.5266C14.3997 16.435 14.2928 16.3048 14.2298 16.1526C14.1667 16.0003 14.1502 15.8327 14.1824 15.6711C14.2145 15.5094 14.2939 15.3609 14.4104 15.2444C14.527 15.1279 14.6754 15.0485 14.8371 15.0163C14.9987 14.9842 15.1663 15.0007 15.3186 15.0638C15.4708 15.1268 15.601 15.2336 15.6926 15.3707C15.7841 15.5077 15.833 15.6688 15.833 15.8337C15.833 16.0547 15.7452 16.2666 15.5889 16.4229C15.4326 16.5792 15.2207 16.667 14.9997 16.667Z" fill="#12BF6C"/>
</svg>
