<svg width="24" height="24" viewBox="0 0 24 24" fill="none" xmlns="http://www.w3.org/2000/svg">
<path d="M8.6421 13.645L8.64211 13.645L8.645 13.6421C8.69148 13.5952 8.74678 13.558 8.80771 13.5327C8.86864 13.5073 8.93399 13.4942 9 13.4942C9.06601 13.4942 9.13136 13.5073 9.19229 13.5327C9.25322 13.558 9.30852 13.5952 9.355 13.6421L9.35508 13.6422L10.6451 14.9422L11.5 15.8037V14.59V3C11.5 2.86739 11.5527 2.74021 11.6464 2.64645C11.7402 2.55268 11.8674 2.5 12 2.5C12.1326 2.5 12.2598 2.55268 12.3536 2.64645C12.4473 2.74021 12.5 2.86739 12.5 3V14.59V15.8037L13.3549 14.9422L14.6436 13.6436C14.6437 13.6434 14.6438 13.6433 14.644 13.6431C14.7385 13.5489 14.8665 13.4959 15 13.4959C15.1337 13.4959 15.2619 13.549 15.3564 13.6436C15.451 13.7381 15.5041 13.8663 15.5041 14C15.5041 14.1337 15.451 14.2619 15.3564 14.3564L12.3564 17.3564L12.355 17.3579C12.3085 17.4048 12.2532 17.442 12.1923 17.4673C12.1314 17.4927 12.066 17.5058 12 17.5058C11.934 17.5058 11.8686 17.4927 11.8077 17.4673C11.7468 17.442 11.6915 17.4048 11.645 17.3579L11.6436 17.3564L8.64356 14.3564L8.6421 14.355C8.59524 14.3085 8.55804 14.2532 8.53266 14.1923C8.50727 14.1314 8.4942 14.066 8.4942 14C8.4942 13.934 8.50727 13.8686 8.53266 13.8077C8.55804 13.7468 8.59524 13.6915 8.6421 13.645ZM16 9.5H18C18.663 9.5 19.2989 9.76339 19.7678 10.2322C20.2366 10.7011 20.5 11.337 20.5 12V19C20.5 19.663 20.2366 20.2989 19.7678 20.7678C19.2989 21.2366 18.663 21.5 18 21.5H6C5.33696 21.5 4.70107 21.2366 4.23223 20.7678C3.76339 20.2989 3.5 19.663 3.5 19V12C3.5 11.337 3.76339 10.7011 4.23223 10.2322C4.70107 9.76339 5.33696 9.5 6 9.5H8C8.13261 9.5 8.25978 9.55268 8.35355 9.64645C8.44732 9.74022 8.5 9.86739 8.5 10C8.5 10.1326 8.44732 10.2598 8.35355 10.3536C8.25978 10.4473 8.13261 10.5 8 10.5H6C5.60217 10.5 5.22064 10.658 4.93934 10.9393C4.65804 11.2206 4.5 11.6022 4.5 12V19C4.5 19.3978 4.65804 19.7794 4.93934 20.0607C5.22065 20.342 5.60218 20.5 6 20.5H18C18.3978 20.5 18.7794 20.342 19.0607 20.0607C19.342 19.7794 19.5 19.3978 19.5 19V12C19.5 11.6022 19.342 11.2206 19.0607 10.9393C18.7794 10.658 18.3978 10.5 18 10.5H16C15.8674 10.5 15.7402 10.4473 15.6464 10.3536C15.5527 10.2598 15.5 10.1326 15.5 10C15.5 9.86739 15.5527 9.74022 15.6464 9.64645C15.7402 9.55268 15.8674 9.5 16 9.5Z" fill="#4D4D4D" stroke="#4D4D4D"/>
</svg>
