<svg width="20" height="20" viewBox="0 0 20 20" fill="none" xmlns="http://www.w3.org/2000/svg">
<path d="M3.33398 5.5L5.55621 2.5H14.4451L16.6673 5.5M3.33398 5.5V16C3.33398 16.3978 3.49007 16.7794 3.7679 17.0607C4.04573 17.342 4.42255 17.5 4.81547 17.5H15.1858C15.5787 17.5 15.9556 17.342 16.2334 17.0607C16.5112 16.7794 16.6673 16.3978 16.6673 16V5.5M3.33398 5.5H16.6673M12.9636 8.5C12.9636 9.29565 12.6514 10.0587 12.0958 10.6213C11.5401 11.1839 10.7865 11.5 10.0007 11.5C9.21482 11.5 8.46118 11.1839 7.90552 10.6213C7.34986 10.0587 7.03769 9.29565 7.03769 8.5" stroke="white" stroke-width="1.66667" stroke-linecap="round" stroke-linejoin="round"/>
</svg>
