<svg width="32" height="32" viewBox="0 0 32 32" fill="none" xmlns="http://www.w3.org/2000/svg">
<rect x="32" y="32" width="32" height="32" rx="16" transform="rotate(-180 32 32)" fill="#DA002B"/>
<path d="M20.9999 14.1697C20.8126 13.9834 20.5591 13.8789 20.2949 13.8789C20.0308 13.8789 19.7773 13.9834 19.5899 14.1697L15.9999 17.7097L12.4599 14.1697C12.2726 13.9834 12.0191 13.8789 11.7549 13.8789C11.4908 13.8789 11.2373 13.9834 11.0499 14.1697C10.9562 14.2627 10.8818 14.3733 10.8311 14.4951C10.7803 14.617 10.7542 14.7477 10.7542 14.8797C10.7542 15.0117 10.7803 15.1424 10.8311 15.2643C10.8818 15.3861 10.9562 15.4967 11.0499 15.5897L15.2899 19.8297C15.3829 19.9234 15.4935 19.9978 15.6154 20.0486C15.7372 20.0994 15.8679 20.1255 15.9999 20.1255C16.132 20.1255 16.2627 20.0994 16.3845 20.0486C16.5064 19.9978 16.617 19.9234 16.7099 19.8297L20.9999 15.5897C21.0937 15.4967 21.1681 15.3861 21.2188 15.2643C21.2696 15.1424 21.2957 15.0117 21.2957 14.8797C21.2957 14.7477 21.2696 14.617 21.2188 14.4951C21.1681 14.3733 21.0937 14.2627 20.9999 14.1697Z" fill="white"/>
</svg>
