<svg width="40" height="40" viewBox="0 0 40 40" fill="none" xmlns="http://www.w3.org/2000/svg">
<rect width="40" height="40" rx="20" fill="#FEF9C3"/>
<path d="M24.6667 25.333H15.3334C15.1565 25.333 14.987 25.4032 14.8619 25.5283C14.7369 25.6533 14.6667 25.8229 14.6667 25.9997C14.6667 26.1765 14.7369 26.3461 14.8619 26.4711C14.987 26.5961 15.1565 26.6663 15.3334 26.6663H24.6667C24.8435 26.6663 25.0131 26.5961 25.1381 26.4711C25.2631 26.3461 25.3334 26.1765 25.3334 25.9997C25.3334 25.8229 25.2631 25.6533 25.1381 25.5283C25.0131 25.4032 24.8435 25.333 24.6667 25.333ZM19.5267 23.8063C19.5901 23.867 19.6649 23.9146 19.7467 23.9463C19.8265 23.9816 19.9128 23.9998 20 23.9998C20.0873 23.9998 20.1736 23.9816 20.2534 23.9463C20.3352 23.9146 20.41 23.867 20.4734 23.8063L23.14 21.1397C23.2656 21.0141 23.3361 20.8439 23.3361 20.6663C23.3361 20.4888 23.2656 20.3185 23.14 20.193C23.0145 20.0675 22.8442 19.9969 22.6667 19.9969C22.4892 19.9969 22.3189 20.0675 22.1934 20.193L20.6667 21.7263V13.9997C20.6667 13.8229 20.5964 13.6533 20.4714 13.5283C20.3464 13.4032 20.1768 13.333 20 13.333C19.8232 13.333 19.6536 13.4032 19.5286 13.5283C19.4036 13.6533 19.3334 13.8229 19.3334 13.9997V21.7263L17.8067 20.193C17.7445 20.1308 17.6707 20.0815 17.5895 20.0479C17.5083 20.0143 17.4213 19.9969 17.3334 19.9969C17.2454 19.9969 17.1584 20.0143 17.0772 20.0479C16.996 20.0815 16.9222 20.1308 16.86 20.193C16.7979 20.2552 16.7486 20.329 16.7149 20.4102C16.6813 20.4914 16.664 20.5784 16.664 20.6663C16.664 20.7542 16.6813 20.8413 16.7149 20.9225C16.7486 21.0037 16.7979 21.0775 16.86 21.1397L19.5267 23.8063Z" fill="#2F2F2F"/>
</svg>
