<svg width="25" height="24" viewBox="0 0 25 24" fill="none" xmlns="http://www.w3.org/2000/svg">
<path fill-rule="evenodd" clip-rule="evenodd" d="M6.12436 4.4241C4.46537 5.18243 3.25 6.98614 3.25 9.13701C3.25 11.3344 4.14922 13.0281 5.43829 14.4797C6.50072 15.676 7.78684 16.6675 9.04113 17.6345C9.33904 17.8642 9.63515 18.0925 9.92605 18.3218C10.4521 18.7365 10.9213 19.1004 11.3736 19.3647C11.8261 19.6292 12.1904 19.7499 12.5 19.7499C12.8096 19.7499 13.1739 19.6292 13.6264 19.3647C14.0787 19.1004 14.5479 18.7365 15.074 18.3218C15.3649 18.0925 15.661 17.8642 15.9589 17.6345C17.2132 16.6675 18.4993 15.676 19.5617 14.4797C20.8508 13.0281 21.75 11.3344 21.75 9.13701C21.75 6.98614 20.5346 5.18243 18.8756 4.4241C17.2639 3.68739 15.0983 3.88249 13.0404 6.02065C12.899 6.16754 12.7039 6.25054 12.5 6.25054C12.2961 6.25054 12.101 6.16754 11.9596 6.02065C9.90166 3.88249 7.73607 3.68739 6.12436 4.4241ZM12.5 4.45873C10.1879 2.39015 7.59896 2.10078 5.50076 3.05987C3.28471 4.07283 1.75 6.42494 1.75 9.13701C1.75 11.8025 2.8605 13.836 4.31672 15.4757C5.48287 16.7888 6.91022 17.8879 8.17083 18.8585C8.45659 19.0785 8.73378 19.292 8.99742 19.4998C9.50965 19.9036 10.0595 20.3342 10.6168 20.6598C11.1739 20.9853 11.8096 21.2499 12.5 21.2499C13.1904 21.2499 13.8261 20.9853 14.3832 20.6598C14.9405 20.3342 15.4903 19.9036 16.0026 19.4998C16.2662 19.292 16.5434 19.0785 16.8292 18.8585C18.0898 17.8879 19.5171 16.7888 20.6833 15.4757C22.1395 13.836 23.25 11.8025 23.25 9.13701C23.25 6.42494 21.7153 4.07283 19.4992 3.05987C17.401 2.10078 14.8121 2.39015 12.5 4.45873Z" fill="#2F2F2F"/>
</svg>
