<svg width="46" height="77" viewBox="0 0 46 77" fill="none" xmlns="http://www.w3.org/2000/svg">
<g opacity="0.5" clip-path="url(#clip0_187_10763)">
<path fill-rule="evenodd" clip-rule="evenodd" d="M-8.64095 15.6036C-4.93604 9.18646 3.26946 6.9878 9.68656 10.6927L29.8938 22.3594C36.3109 26.0643 38.5096 34.2698 34.8047 40.6869L23.138 60.8941C19.4331 67.3112 11.2276 69.5099 4.81048 65.805L-15.3968 54.1383C-21.8139 50.4334 -24.0125 42.2279 -20.3076 35.8108L-8.64095 15.6036Z" fill="#FFF3E6"/>
<path fill-rule="evenodd" clip-rule="evenodd" d="M18.5012 35.2335C18.7513 36.1671 18.1973 37.1267 17.2637 37.3768L-1.86062 42.5012C-2.79419 42.7513 -3.75378 42.1973 -4.00393 41.2637C-4.25408 40.3302 -3.70006 39.3706 -2.76649 39.1204L16.3579 33.9961C17.2914 33.7459 18.251 34.2999 18.5012 35.2335Z" fill="#FD8200" fill-opacity="0.8"/>
<path fill-rule="evenodd" clip-rule="evenodd" d="M6.15041 44.3504C7.18134 42.5647 9.46465 41.9529 11.2503 42.9839C13.0359 44.0148 13.6476 46.2981 12.6167 48.0837C11.5858 49.8693 9.30257 50.4811 7.51694 49.4502C5.73135 48.4193 5.11945 46.136 6.15041 44.3504Z" fill="#FD8200" fill-opacity="0.8"/>
<path fill-rule="evenodd" clip-rule="evenodd" d="M1.88039 28.4139C2.91132 26.6282 5.19463 26.0164 6.98026 27.0473C8.76593 28.0783 9.37762 30.3616 8.34671 32.1472C7.31578 33.9328 5.03255 34.5446 3.24692 33.5137C1.46133 32.4828 0.849432 30.1995 1.88039 28.4139Z" fill="#FD8200" fill-opacity="0.8"/>
</g>
<defs>
<clipPath id="clip0_187_10763">
<rect width="56" height="56" fill="white" transform="translate(-3) rotate(30)"/>
</clipPath>
</defs>
</svg>
