<svg width="28" height="31" viewBox="0 0 28 31" fill="none" xmlns="http://www.w3.org/2000/svg">
<g filter="url(#filter0_ii_2522_33019)">
<rect width="28" height="28" rx="8" fill="url(#paint0_linear_2522_33019)"/>
<rect width="28" height="28" rx="8" fill="url(#paint1_linear_2522_33019)" fill-opacity="0.2" style="mix-blend-mode:soft-light"/>
<g filter="url(#filter1_dii_2522_33019)">
<path d="M6.64306 10.6013C5.66675 11.5776 5.66675 13.149 5.66675 16.2917C5.66675 19.4344 5.66675 21.0057 6.64306 21.982C7.61937 22.9583 9.19072 22.9583 12.3334 22.9583H15.6667C18.8094 22.9583 20.3808 22.9583 21.3571 21.982C22.3334 21.0057 22.3334 19.4344 22.3334 16.2917C22.3334 13.149 22.3334 11.5776 21.3571 10.6013C20.3808 9.625 18.8094 9.625 15.6667 9.625H12.3334C9.19072 9.625 7.61937 9.625 6.64306 10.6013Z" fill="white"/>
<path d="M6.64306 10.6013C5.66675 11.5776 5.66675 13.149 5.66675 16.2917C5.66675 19.4344 5.66675 21.0057 6.64306 21.982C7.61937 22.9583 9.19072 22.9583 12.3334 22.9583H15.6667C18.8094 22.9583 20.3808 22.9583 21.3571 21.982C22.3334 21.0057 22.3334 19.4344 22.3334 16.2917C22.3334 13.149 22.3334 11.5776 21.3571 10.6013C20.3808 9.625 18.8094 9.625 15.6667 9.625H12.3334C9.19072 9.625 7.61937 9.625 6.64306 10.6013Z" fill="url(#paint2_linear_2522_33019)" fill-opacity="0.2"/>
<g filter="url(#filter2_dii_2522_33019)">
<path d="M17.3333 12.9582C17.7935 12.9582 18.1666 12.5851 18.1666 12.1248C18.1666 11.6646 17.7935 11.2915 17.3333 11.2915C16.873 11.2915 16.4999 11.6646 16.4999 12.1248C16.4999 12.5851 16.873 12.9582 17.3333 12.9582Z" fill="#3B82F6"/>
<path d="M11.4999 12.1248C11.4999 12.5851 11.1268 12.9582 10.6666 12.9582C10.2063 12.9582 9.83325 12.5851 9.83325 12.1248C9.83325 11.6646 10.2063 11.2915 10.6666 11.2915C11.1268 11.2915 11.4999 11.6646 11.4999 12.1248Z" fill="#3B82F6"/>
</g>
<g filter="url(#filter3_ii_2522_33019)">
<path d="M14.0434 5.6665H13.9568C13.208 5.66648 12.5837 5.66646 12.088 5.7331C11.5649 5.80344 11.0925 5.95816 10.713 6.33772C10.3334 6.71728 10.1787 7.18961 10.1083 7.71277C10.0417 8.20842 10.0417 8.83276 10.0417 9.58148L10.0417 9.64627C10.4226 9.63381 10.8379 9.62859 11.2918 9.62641V9.62484C11.2918 8.8215 11.2931 8.28186 11.3472 7.87933C11.3989 7.49478 11.4883 7.3302 11.5968 7.2216C11.7054 7.11301 11.87 7.02365 12.2546 6.97195C12.6571 6.91783 13.1967 6.91651 14.0001 6.91651C14.8034 6.91651 15.3431 6.91783 15.7456 6.97195C16.1301 7.02365 16.2947 7.11301 16.4033 7.2216C16.5119 7.3302 16.6013 7.49478 16.653 7.87933C16.7071 8.28186 16.7084 8.8215 16.7084 9.62484V9.62641C17.1623 9.62859 17.5776 9.63381 17.9584 9.64627V9.58151C17.9584 8.83279 17.9585 8.20842 17.8918 7.71277C17.8215 7.18961 17.6668 6.71728 17.2872 6.33772C16.9076 5.95816 16.4353 5.80344 15.9122 5.7331C15.4165 5.66646 14.7921 5.66648 14.0434 5.6665Z" fill="#3B82F6"/>
</g>
</g>
</g>
<defs>
<filter id="filter0_ii_2522_33019" x="-0.218519" y="-0.218519" width="28.437" height="28.437" filterUnits="userSpaceOnUse" color-interpolation-filters="sRGB">
<feFlood flood-opacity="0" result="BackgroundImageFix"/>
<feBlend mode="normal" in="SourceGraphic" in2="BackgroundImageFix" result="shape"/>
<feColorMatrix in="SourceAlpha" type="matrix" values="0 0 0 0 0 0 0 0 0 0 0 0 0 0 0 0 0 0 127 0" result="hardAlpha"/>
<feOffset dx="0.218519" dy="0.218519"/>
<feGaussianBlur stdDeviation="0.10926"/>
<feComposite in2="hardAlpha" operator="arithmetic" k2="-1" k3="1"/>
<feColorMatrix type="matrix" values="0 0 0 0 1 0 0 0 0 1 0 0 0 0 1 0 0 0 0.2 0"/>
<feBlend mode="normal" in2="shape" result="effect1_innerShadow_2522_33019"/>
<feColorMatrix in="SourceAlpha" type="matrix" values="0 0 0 0 0 0 0 0 0 0 0 0 0 0 0 0 0 0 127 0" result="hardAlpha"/>
<feOffset dx="-0.218519" dy="-0.218519"/>
<feGaussianBlur stdDeviation="0.10926"/>
<feComposite in2="hardAlpha" operator="arithmetic" k2="-1" k3="1"/>
<feColorMatrix type="matrix" values="0 0 0 0 0 0 0 0 0 0 0 0 0 0 0 0 0 0 0.05 0"/>
<feBlend mode="normal" in2="effect1_innerShadow_2522_33019" result="effect2_innerShadow_2522_33019"/>
</filter>
<filter id="filter1_dii_2522_33019" x="-1.20232" y="1.63531" width="30.4046" height="30.4046" filterUnits="userSpaceOnUse" color-interpolation-filters="sRGB">
<feFlood flood-opacity="0" result="BackgroundImageFix"/>
<feColorMatrix in="SourceAlpha" type="matrix" values="0 0 0 0 0 0 0 0 0 0 0 0 0 0 0 0 0 0 127 0" result="hardAlpha"/>
<feOffset dy="2.83763"/>
<feGaussianBlur stdDeviation="2.60116"/>
<feColorMatrix type="matrix" values="0 0 0 0 0 0 0 0 0 0.0825001 0 0 0 0 0.825 0 0 0 0.2 0"/>
<feBlend mode="normal" in2="BackgroundImageFix" result="effect1_dropShadow_2522_33019"/>
<feBlend mode="normal" in="SourceGraphic" in2="effect1_dropShadow_2522_33019" result="shape"/>
<feColorMatrix in="SourceAlpha" type="matrix" values="0 0 0 0 0 0 0 0 0 0 0 0 0 0 0 0 0 0 127 0" result="hardAlpha"/>
<feOffset dy="-0.702609"/>
<feGaussianBlur stdDeviation="0.263478"/>
<feComposite in2="hardAlpha" operator="arithmetic" k2="-1" k3="1"/>
<feColorMatrix type="matrix" values="0 0 0 0 0.690196 0 0 0 0 0.776941 0 0 0 0 1 0 0 0 0.8 0"/>
<feBlend mode="normal" in2="shape" result="effect2_innerShadow_2522_33019"/>
<feColorMatrix in="SourceAlpha" type="matrix" values="0 0 0 0 0 0 0 0 0 0 0 0 0 0 0 0 0 0 127 0" result="hardAlpha"/>
<feOffset dy="-0.709408"/>
<feGaussianBlur stdDeviation="0.472939"/>
<feComposite in2="hardAlpha" operator="arithmetic" k2="-1" k3="1"/>
<feColorMatrix type="matrix" values="0 0 0 0 0.766667 0 0 0 0 0.93 0 0 0 0 1 0 0 0 0.4 0"/>
<feBlend mode="normal" in2="effect2_innerShadow_2522_33019" result="effect3_innerShadow_2522_33019"/>
</filter>
<filter id="filter2_dii_2522_33019" x="8.81876" y="10.8045" width="10.3622" height="3.73607" filterUnits="userSpaceOnUse" color-interpolation-filters="sRGB">
<feFlood flood-opacity="0" result="BackgroundImageFix"/>
<feColorMatrix in="SourceAlpha" type="matrix" values="0 0 0 0 0 0 0 0 0 0 0 0 0 0 0 0 0 0 127 0" result="hardAlpha"/>
<feOffset dy="0.568116"/>
<feGaussianBlur stdDeviation="0.507246"/>
<feColorMatrix type="matrix" values="0 0 0 0 0.0206597 0 0 0 0 0.281755 0 0 0 0 0.708333 0 0 0 0.4 0"/>
<feBlend mode="normal" in2="BackgroundImageFix" result="effect1_dropShadow_2522_33019"/>
<feBlend mode="normal" in="SourceGraphic" in2="effect1_dropShadow_2522_33019" result="shape"/>
<feColorMatrix in="SourceAlpha" type="matrix" values="0 0 0 0 0 0 0 0 0 0 0 0 0 0 0 0 0 0 127 0" result="hardAlpha"/>
<feOffset dy="-0.486957"/>
<feGaussianBlur stdDeviation="0.507246"/>
<feComposite in2="hardAlpha" operator="arithmetic" k2="-1" k3="1"/>
<feColorMatrix type="matrix" values="0 0 0 0 0.231373 0 0 0 0 0.509804 0 0 0 0 0.964706 0 0 0 1 0"/>
<feBlend mode="normal" in2="shape" result="effect2_innerShadow_2522_33019"/>
<feColorMatrix in="SourceAlpha" type="matrix" values="0 0 0 0 0 0 0 0 0 0 0 0 0 0 0 0 0 0 127 0" result="hardAlpha"/>
<feOffset dy="-0.202899"/>
<feGaussianBlur stdDeviation="0.202899"/>
<feComposite in2="hardAlpha" operator="arithmetic" k2="-1" k3="1"/>
<feColorMatrix type="matrix" values="0 0 0 0 1 0 0 0 0 1 0 0 0 0 1 0 0 0 0.4 0"/>
<feBlend mode="normal" in2="effect2_innerShadow_2522_33019" result="effect3_innerShadow_2522_33019"/>
</filter>
<filter id="filter3_ii_2522_33019" x="10.0417" y="5.46361" width="7.91675" height="4.91331" filterUnits="userSpaceOnUse" color-interpolation-filters="sRGB">
<feFlood flood-opacity="0" result="BackgroundImageFix"/>
<feBlend mode="normal" in="SourceGraphic" in2="BackgroundImageFix" result="shape"/>
<feColorMatrix in="SourceAlpha" type="matrix" values="0 0 0 0 0 0 0 0 0 0 0 0 0 0 0 0 0 0 127 0" result="hardAlpha"/>
<feOffset dy="0.730435"/>
<feGaussianBlur stdDeviation="0.507246"/>
<feComposite in2="hardAlpha" operator="arithmetic" k2="-1" k3="1"/>
<feColorMatrix type="matrix" values="0 0 0 0 0.231373 0 0 0 0 0.509804 0 0 0 0 0.964706 0 0 0 1 0"/>
<feBlend mode="normal" in2="shape" result="effect1_innerShadow_2522_33019"/>
<feColorMatrix in="SourceAlpha" type="matrix" values="0 0 0 0 0 0 0 0 0 0 0 0 0 0 0 0 0 0 127 0" result="hardAlpha"/>
<feOffset dy="-0.202899"/>
<feGaussianBlur stdDeviation="0.202899"/>
<feComposite in2="hardAlpha" operator="arithmetic" k2="-1" k3="1"/>
<feColorMatrix type="matrix" values="0 0 0 0 1 0 0 0 0 1 0 0 0 0 1 0 0 0 0.4 0"/>
<feBlend mode="normal" in2="effect1_innerShadow_2522_33019" result="effect2_innerShadow_2522_33019"/>
</filter>
<linearGradient id="paint0_linear_2522_33019" x1="14" y1="0" x2="14" y2="28" gradientUnits="userSpaceOnUse">
<stop stop-color="#CDE7FF"/>
<stop offset="1" stop-color="#C1E1FF"/>
</linearGradient>
<linearGradient id="paint1_linear_2522_33019" x1="14" y1="0" x2="14" y2="28" gradientUnits="userSpaceOnUse">
<stop offset="0.328125" stop-color="white"/>
<stop offset="1" stop-opacity="0.1"/>
</linearGradient>
<linearGradient id="paint2_linear_2522_33019" x1="14.0001" y1="9.625" x2="14.0001" y2="22.9583" gradientUnits="userSpaceOnUse">
<stop stop-color="#D1EAFF" stop-opacity="0.2"/>
<stop offset="1" stop-color="#3B82F6"/>
</linearGradient>
</defs>
</svg>
