<svg width="49" height="48" viewBox="0 0 49 48" fill="none" xmlns="http://www.w3.org/2000/svg">
<g filter="url(#filter0_b_2507_32056)">
<rect x="0.5" width="48" height="48" rx="16" fill="white"/>
<rect x="0.5" width="48" height="48" rx="16" fill="#FACC15" fill-opacity="0.15"/>
<path opacity="0.8" d="M15.7929 21.2929C15.5 21.5858 15.5 22.0572 15.5 23V29C15.5 29.9428 15.5 30.4142 15.7929 30.7071C16.0858 31 16.5572 31 17.5 31C18.4428 31 18.9142 31 19.2071 30.7071C19.5 30.4142 19.5 29.9428 19.5 29V23C19.5 22.0572 19.5 21.5858 19.2071 21.2929C18.9142 21 18.4428 21 17.5 21C16.5572 21 16.0858 21 15.7929 21.2929Z" fill="#FACC15"/>
<path opacity="0.3" d="M29.7929 14.2929C29.5 14.5858 29.5 15.0572 29.5 16V29C29.5 29.9428 29.5 30.4142 29.7929 30.7071C30.0858 31 30.5572 31 31.5 31C32.4428 31 32.9142 31 33.2071 30.7071C33.5 30.4142 33.5 29.9428 33.5 29V16C33.5 15.0572 33.5 14.5858 33.2071 14.2929C32.9142 14 32.4428 14 31.5 14C30.5572 14 30.0858 14 29.7929 14.2929Z" fill="#FACC15"/>
<path opacity="0.5" d="M22.5 19C22.5 18.0572 22.5 17.5858 22.7929 17.2929C23.0858 17 23.5572 17 24.5 17C25.4428 17 25.9142 17 26.2071 17.2929C26.5 17.5858 26.5 18.0572 26.5 19V29C26.5 29.9428 26.5 30.4142 26.2071 30.7071C25.9142 31 25.4428 31 24.5 31C23.5572 31 23.0858 31 22.7929 30.7071C22.5 30.4142 22.5 29.9428 22.5 29V19Z" fill="#FACC15"/>
<path d="M15.5 33.25C15.0858 33.25 14.75 33.5858 14.75 34C14.75 34.4142 15.0858 34.75 15.5 34.75H33.5C33.9142 34.75 34.25 34.4142 34.25 34C34.25 33.5858 33.9142 33.25 33.5 33.25H15.5Z" fill="#FACC15"/>
</g>
<defs>
<filter id="filter0_b_2507_32056" x="-9.5" y="-10" width="68" height="68" filterUnits="userSpaceOnUse" color-interpolation-filters="sRGB">
<feFlood flood-opacity="0" result="BackgroundImageFix"/>
<feGaussianBlur in="BackgroundImageFix" stdDeviation="5"/>
<feComposite in2="SourceAlpha" operator="in" result="effect1_backgroundBlur_2507_32056"/>
<feBlend mode="normal" in="SourceGraphic" in2="effect1_backgroundBlur_2507_32056" result="shape"/>
</filter>
</defs>
</svg>
