<svg width="28" height="28" viewBox="0 0 28 28" fill="none" xmlns="http://www.w3.org/2000/svg">
<rect width="28" height="28" rx="14" fill="white"/>
<path fill-rule="evenodd" clip-rule="evenodd" d="M8.82222 7.5C9.27632 7.5 9.64444 7.84822 9.64444 8.27778V20.7222C9.64444 21.1518 9.27632 21.5 8.82222 21.5C8.36812 21.5 8 21.1518 8 20.7222V8.27778C8 7.84822 8.36812 7.5 8.82222 7.5Z" fill="#2F2F2F"/>
<path fill-rule="evenodd" clip-rule="evenodd" d="M14.3037 10.6111C14.7578 10.6111 15.1259 10.9593 15.1259 11.3889V20.7222C15.1259 21.1518 14.7578 21.5 14.3037 21.5C13.8496 21.5 13.4815 21.1518 13.4815 20.7222V11.3889C13.4815 10.9593 13.8496 10.6111 14.3037 10.6111Z" fill="#2F2F2F"/>
<path fill-rule="evenodd" clip-rule="evenodd" d="M19.7852 12.6852C20.2393 12.6852 20.6074 13.0334 20.6074 13.463V20.7222C20.6074 21.1518 20.2393 21.5 19.7852 21.5C19.3311 21.5 18.963 21.1518 18.963 20.7222V13.463C18.963 13.0334 19.3311 12.6852 19.7852 12.6852Z" fill="#2F2F2F"/>
</svg>
