<svg width="63" height="16" viewBox="0 0 63 16" fill="none" xmlns="http://www.w3.org/2000/svg">
<path d="M11.5783 0.977434C11.529 1.0382 11.4233 1.14203 11.4545 1.23142C11.4857 1.32009 11.6776 1.29955 11.7584 1.33992C11.8967 1.40933 11.9524 1.54858 11.9481 1.69647C11.943 1.86858 11.9412 3.51942 11.9347 5.79411C9.9367 5.78249 7.93899 5.77059 5.94113 5.7587C5.90225 5.26135 5.88925 4.70365 5.92473 4.09681C5.95738 3.53741 6.02878 2.98043 6.13791 2.43095C6.18569 2.19042 6.24067 1.95131 6.30273 1.71404C6.37087 1.45311 6.55845 1.13297 6.53852 0.860144C6.53598 0.823597 6.52735 0.786054 6.50431 0.75744C6.45059 0.690862 6.34768 0.701772 6.26485 0.72302C5.75609 0.853909 5.26147 1.12588 4.87173 1.47789C4.752 1.58612 4.43125 1.89125 4.14061 2.41282C3.37146 3.7931 3.31125 5.74778 3.31125 5.74778C3.27237 7.01177 3.22261 9.57288 4.56625 12.232C4.56625 12.232 5.508 14.0961 6.8546 14.5553C7.12065 14.6462 7.19288 14.586 7.21579 14.5564C7.32082 14.4217 7.09563 14.1897 7.02905 14.0868C6.90634 13.8966 6.80145 13.6952 6.71112 13.4878C6.52425 13.0587 6.40055 12.6044 6.30824 12.1465C6.02694 10.7524 5.845 9.34184 5.88388 7.91836H11.9347V13.2688C11.9347 13.6235 12.079 13.9642 12.4056 14.1308C12.6022 14.2312 12.8247 14.2667 13.0438 14.2938C13.4273 14.3415 13.8186 14.3682 14.1979 14.2951C14.42 14.2524 14.6415 14.172 14.8072 14.018C15.0739 13.7695 15.078 13.4335 15.078 13.0951C15.078 10.4078 15.1032 7.72033 15.0998 5.033C15.0989 4.36638 15.0944 3.69989 15.0864 3.0334C15.0755 2.12852 14.7949 1.21697 13.9973 0.709282C13.6528 0.490001 13.2581 0.369878 12.8722 0.369878C12.3882 0.369878 11.9182 0.558703 11.5783 0.977434Z" fill="#111111"/>
<path d="M2.13807 4.23342C1.34291 5.18576 1.28015 6.29747 1.24156 7.4028C1.15123 9.9972 2.09637 11.8431 2.30813 12.24C2.78367 13.131 3.29992 13.7178 3.45245 13.8868C3.99584 14.4888 4.54135 14.9072 4.95978 15.1843C4.62801 15.1027 4.15798 14.9476 3.65572 14.6377C3.19079 14.3507 2.85901 14.0301 2.64089 13.7846C2.32594 13.381 2.10443 13.0259 1.95897 12.7732C1.57079 12.0989 1.08705 11.2586 0.840516 10.1323C0.771107 9.81602 0.72446 9.49461 0.600344 9.48186C0.421098 9.46359 0.218526 10.1039 0.174846 10.242C0.0333432 10.6886 -0.00242011 11.1003 0.000124391 11.319C0.0104438 12.1683 0.645722 13.822 2.16634 14.9436C2.16634 14.9436 3.49542 15.9242 5.76851 15.9997C5.86124 16.0028 6.41199 15.9898 6.82024 15.6968C7.02111 15.5529 7.15399 15.3321 6.79733 15.2275C4.35532 14.5116 3.40283 11.92 2.88135 9.67182C2.76769 9.18198 2.65941 8.69936 2.59481 8.19861C2.39987 6.6873 2.40807 5.02513 2.89732 3.56708C2.52469 3.65094 2.35591 3.97235 2.13807 4.23342Z" fill="#111111"/>
<path d="M2.89697 3.56738C2.90018 3.5668 2.90281 3.56534 2.90602 3.56461L2.89989 3.55847C2.89887 3.56139 2.89799 3.56431 2.89697 3.56738Z" fill="#111111"/>
<path d="M2.89893 3.55872L2.90465 3.56445L2.93205 3.52661C2.93205 3.52661 2.89879 3.55858 2.89893 3.55872Z" fill="#111111"/>
<path d="M45.2826 0.400956C45.1727 0.402372 45.0627 0.408885 44.9527 0.408885C44.8003 0.410159 44.6479 0.412858 44.4954 0.414133C44.3915 0.415124 44.2873 0.414836 44.1831 0.414695C43.9906 0.414412 43.7976 0.413991 43.6055 0.42079C43.3393 0.43113 43.0907 0.521786 42.902 0.721235C42.6769 0.957373 42.4984 1.29451 42.2008 2.01752C42.1509 2.13693 42.1122 2.23807 42.0846 2.30762C41.9721 2.55297 40.375 6.01968 39.7728 7.02344C39.729 7.09823 39.6303 7.25831 39.5078 7.25307C39.3853 7.25831 39.2865 7.09823 39.2427 7.02344C38.6405 6.01968 37.0433 2.55297 36.9309 2.30762C36.9033 2.23807 36.8646 2.13693 36.8147 2.01752C36.5172 1.29451 36.3384 0.957373 36.1135 0.721235C35.9248 0.521786 35.6761 0.43113 35.41 0.42079C35.2177 0.413991 35.0249 0.414412 34.8324 0.414695C34.7282 0.414836 34.6241 0.415124 34.5201 0.414133C34.3677 0.412858 34.2152 0.410159 34.0628 0.408885C33.9528 0.408885 33.8428 0.402372 33.7329 0.400956C33.5741 0.399681 33.4254 0.450816 33.2904 0.536092C33.0405 0.697577 32.933 0.933718 32.8943 1.02296C32.8218 1.18714 32.8081 1.32865 32.7968 1.38772C32.6868 1.94414 32.6756 2.40593 32.6855 2.717C32.5695 6.28471 32.4531 9.85129 32.3369 13.4189C32.3407 13.4779 32.3519 13.5607 32.3844 13.6524C32.5669 14.1747 33.2279 14.432 33.7378 14.4383C34.2528 14.445 34.8676 14.2011 35.085 13.7271C35.0875 13.7219 35.1275 13.6301 35.1487 13.5279C35.3 12.801 35.3875 6.94993 35.4199 4.40043C36.8134 7.26227 37.9043 9.40111 38.4081 10.3445C38.5104 10.5387 38.7291 10.9284 39.1316 11.061C39.2478 11.1004 39.3764 11.1212 39.5078 11.1226C39.6389 11.1212 39.7677 11.1004 39.8839 11.061C40.2864 10.9284 40.5049 10.5387 40.6075 10.3445C41.1112 9.40111 42.2021 7.26227 43.5955 4.40043C43.628 6.94993 43.7155 12.801 43.8668 13.5279C43.8881 13.6301 43.928 13.7219 43.9305 13.7271C44.1479 14.2011 44.7628 14.445 45.2777 14.4383C45.7876 14.432 46.4487 14.1747 46.6311 13.6524C46.6637 13.5607 46.6749 13.4779 46.6786 13.4189C46.5622 9.85129 46.4462 6.28471 46.33 2.717C46.3399 2.40593 46.3289 1.94414 46.2187 1.38772C46.2074 1.32865 46.1937 1.18714 46.1213 1.02296C46.0825 0.933718 45.9752 0.697577 45.7251 0.536092C45.5917 0.451807 45.4451 0.400956 45.2884 0.400956C45.2865 0.400956 45.2846 0.400956 45.2826 0.400956Z" fill="#111111"/>
<path d="M21.5026 11.1636C21.5341 11.1674 21.5642 11.174 21.5929 11.182C21.5929 11.1845 21.5917 11.1858 21.5904 11.1885C21.5668 11.2279 21.4844 11.2055 21.5026 11.1636Z" fill="#111111"/>
<path d="M26.9151 0.804693C26.7155 1.02695 26.6612 1.28944 26.6442 1.44795C26.6359 4.08074 26.6274 6.71338 26.6192 9.34603C26.624 9.60412 26.5981 10.0894 26.3385 10.6239C26.0644 11.1882 25.6758 11.5073 25.576 11.5863C25.576 11.5863 24.9144 12.1099 24.0491 12.1803C23.9626 12.1872 23.8717 12.1903 23.8717 12.1903C23.8489 12.1912 23.8262 12.1917 23.8034 12.1919C23.7805 12.1917 23.7579 12.1912 23.7353 12.1903C23.7351 12.1903 23.6443 12.1872 23.5576 12.1803C22.6925 12.1099 22.0308 11.5863 22.0308 11.5863C21.9311 11.5073 21.5425 11.1882 21.2685 10.6239C21.0089 10.0894 20.9827 9.60412 20.9877 9.34603C20.9793 6.71338 20.971 4.08074 20.9626 1.44795C20.9457 1.28944 20.8914 1.02695 20.6918 0.804693C20.3324 0.404802 19.7589 0.420673 19.3077 0.432997C18.8323 0.446171 18.337 0.459627 18.0473 0.826653C17.8199 1.11464 17.8378 1.47019 17.8561 1.62488V9.89126C17.8561 10.6604 18.0767 11.6796 18.8125 12.647C19.6392 13.7336 20.8135 14.2178 21.1757 14.3528C21.909 14.6258 22.6313 14.7023 22.8523 14.7245C23.2357 14.7629 23.562 14.7647 23.8034 14.7572C24.0449 14.7647 24.3713 14.7629 24.7546 14.7245C24.9756 14.7023 25.6977 14.6258 26.4312 14.3528C26.7932 14.2178 27.9675 13.7336 28.7943 12.647C29.5301 11.6796 29.7508 10.6604 29.7508 9.89126V1.62488C29.769 1.47019 29.7868 1.11464 29.5595 0.826653C29.2699 0.459627 28.7747 0.446171 28.2991 0.432997C28.218 0.430731 28.1326 0.428458 28.0454 0.428458C27.6482 0.428458 27.2095 0.476905 26.9151 0.804693Z" fill="#111111"/>
<path d="M22.1782 14.5756C22.2032 14.5793 22.2273 14.5865 22.2499 14.5967C22.2495 14.5963 22.2083 14.6221 22.2083 14.6221L22.1782 14.5756Z" fill="#111111"/>
<path d="M51.2345 1.47526C50.128 2.30861 49.3135 3.47768 48.9154 4.80555C47.7775 8.61606 49.4889 13.4775 53.5863 14.5522C54.2474 14.7255 54.9271 14.7989 55.6053 14.7804C56.2836 14.7989 56.9631 14.7255 57.6244 14.5522C61.7216 13.4775 63.4331 8.61606 62.2953 4.80555C61.897 3.47768 61.0825 2.30861 59.9762 1.47526C58.7218 0.531837 57.1675 0.0370398 55.6053 0.000351906C54.0432 0.0370398 52.4889 0.531837 51.2345 1.47526ZM51.9572 9.05944C51.5447 7.32092 51.6207 5.27401 52.5922 3.72303C53.2654 2.6483 54.4097 2.01184 55.6053 2.00278C56.8008 2.01184 57.9451 2.6483 58.6183 3.72303C59.59 5.27401 59.6658 7.32092 59.2533 9.05944C58.8253 10.8637 57.6296 12.8031 55.6053 12.824C53.5811 12.8031 52.3854 10.8637 51.9572 9.05944Z" fill="#111111"/>
</svg>
