<svg width="32" height="32" viewBox="0 0 32 32" fill="none" xmlns="http://www.w3.org/2000/svg">
<path d="M24.4341 7.4839L5.16865 14.9146C3.85375 15.4422 3.86155 16.1756 4.92898 16.5026L9.73385 18.0023L11.5723 23.6389C11.7958 24.2558 11.6856 24.5005 12.3335 24.5005C12.8334 24.5005 13.0552 24.2725 13.3336 24.0005C13.5107 23.8273 14.562 22.8051 15.7359 21.6638L20.7339 25.3565C21.6536 25.8639 22.3177 25.601 22.5467 24.5023L25.8274 9.04205C26.1633 7.69538 25.3141 7.08454 24.4341 7.4839ZM10.4879 17.6578L21.3181 10.8249C21.8588 10.497 22.3545 10.6733 21.9475 11.0346L12.674 19.4016L12.3129 23.2528L10.4879 17.6578Z" fill="white"/>
</svg>
