<svg width="25" height="24" viewBox="0 0 25 24" fill="none" xmlns="http://www.w3.org/2000/svg">
<path d="M16.21 12.7096C17.1904 11.9383 17.906 10.8806 18.2572 9.68358C18.6085 8.4866 18.5779 7.2099 18.1698 6.0311C17.7617 4.85231 16.9963 3.83003 15.9801 3.10649C14.9639 2.38296 13.7474 1.99414 12.5 1.99414C11.2525 1.99414 10.0361 2.38296 9.01993 3.10649C8.00374 3.83003 7.23834 4.85231 6.83021 6.0311C6.42208 7.2099 6.39151 8.4866 6.74276 9.68358C7.09401 10.8806 7.8096 11.9383 8.79 12.7096C7.11007 13.3827 5.64428 14.499 4.54889 15.9396C3.45349 17.3801 2.76956 19.0909 2.57 20.8896C2.55555 21.021 2.56711 21.1538 2.60402 21.2807C2.64093 21.4075 2.70246 21.5259 2.78511 21.629C2.95202 21.8371 3.19478 21.9705 3.46 21.9996C3.72521 22.0288 3.99116 21.9514 4.19932 21.7845C4.40749 21.6176 4.54082 21.3749 4.57 21.1096C4.78958 19.1548 5.72168 17.3494 7.18822 16.0384C8.65475 14.7274 10.5529 14.0027 12.52 14.0027C14.4871 14.0027 16.3852 14.7274 17.8518 16.0384C19.3183 17.3494 20.2504 19.1548 20.47 21.1096C20.4972 21.3554 20.6144 21.5823 20.7991 21.7467C20.9838 21.911 21.2228 22.0011 21.47 21.9996H21.58C21.8421 21.9695 22.0817 21.8369 22.2466 21.6309C22.4114 21.4248 22.4881 21.162 22.46 20.8996C22.2595 19.0958 21.5719 17.3806 20.4708 15.9378C19.3698 14.4951 17.8969 13.3791 16.21 12.7096ZM12.5 11.9996C11.7089 11.9996 10.9355 11.765 10.2777 11.3255C9.61992 10.886 9.10723 10.2613 8.80448 9.53037C8.50173 8.79947 8.42251 7.9952 8.57686 7.21928C8.7312 6.44335 9.11216 5.73062 9.67157 5.17121C10.231 4.6118 10.9437 4.23084 11.7196 4.0765C12.4956 3.92215 13.2998 4.00137 14.0307 4.30412C14.7616 4.60687 15.3863 5.11956 15.8259 5.77736C16.2654 6.43515 16.5 7.20851 16.5 7.99964C16.5 9.0605 16.0786 10.0779 15.3284 10.8281C14.5783 11.5782 13.5609 11.9996 12.5 11.9996Z" fill="#999999"/>
</svg>
