<svg width="20" height="20" viewBox="0 0 20 20" fill="none" xmlns="http://www.w3.org/2000/svg">
<path d="M15.8332 5.41701H14.7665L14.4998 4.58368C14.327 4.0947 14.0063 3.6716 13.5823 3.37298C13.1582 3.07436 12.6518 2.91501 12.1332 2.91701H7.8665C7.34279 2.91799 6.83262 3.08341 6.40798 3.38993C5.98334 3.69645 5.66568 4.12859 5.49984 4.62534L5.23317 5.45868H4.1665C3.50346 5.45868 2.86758 5.72207 2.39874 6.19091C1.9299 6.65975 1.6665 7.29564 1.6665 7.95868V14.6253C1.6665 15.2884 1.9299 15.9243 2.39874 16.3931C2.86758 16.862 3.50346 17.1253 4.1665 17.1253H15.8332C16.4962 17.1253 17.1321 16.862 17.6009 16.3931C18.0698 15.9243 18.3332 15.2884 18.3332 14.6253V7.95868C18.3387 7.62688 18.2781 7.29731 18.155 6.98917C18.0318 6.68103 17.8485 6.40049 17.6158 6.16391C17.3831 5.92734 17.1057 5.73945 16.7996 5.61122C16.4935 5.48298 16.165 5.41697 15.8332 5.41701ZM16.6665 14.5837C16.6665 14.8047 16.5787 15.0167 16.4224 15.1729C16.2661 15.3292 16.0542 15.417 15.8332 15.417H4.1665C3.94549 15.417 3.73353 15.3292 3.57725 15.1729C3.42097 15.0167 3.33317 14.8047 3.33317 14.5837V7.91701C3.33317 7.696 3.42097 7.48404 3.57725 7.32776C3.73353 7.17148 3.94549 7.08368 4.1665 7.08368H5.83317C6.01489 7.09316 6.19472 7.04291 6.3452 6.94058C6.49567 6.83826 6.60852 6.6895 6.6665 6.51701L7.1165 5.15034C7.17241 4.98483 7.27892 4.84107 7.42098 4.73938C7.56304 4.63769 7.73347 4.58323 7.90817 4.58368H12.1748C12.3495 4.58323 12.52 4.63769 12.662 4.73938C12.8041 4.84107 12.9106 4.98483 12.9665 5.15034L13.4165 6.51701C13.47 6.67597 13.5702 6.81509 13.704 6.91619C13.8378 7.01729 13.999 7.07566 14.1665 7.08368H15.8332C16.0542 7.08368 16.2661 7.17148 16.4224 7.32776C16.5787 7.48404 16.6665 7.696 16.6665 7.91701V14.5837ZM9.99984 7.08368C9.34057 7.08368 8.6961 7.27917 8.14794 7.64545C7.59977 8.01172 7.17253 8.53231 6.92024 9.1414C6.66795 9.75049 6.60194 10.4207 6.73055 11.0673C6.85917 11.7139 7.17664 12.3079 7.64281 12.774C8.10899 13.2402 8.70293 13.5577 9.34954 13.6863C9.99614 13.8149 10.6664 13.7489 11.2754 13.4966C11.8845 13.2443 12.4051 12.8171 12.7714 12.2689C13.1377 11.7207 13.3332 11.0763 13.3332 10.417C13.3332 9.53296 12.982 8.68511 12.3569 8.05999C11.7317 7.43487 10.8839 7.08368 9.99984 7.08368ZM9.99984 12.0837C9.6702 12.0837 9.34797 11.9859 9.07389 11.8028C8.79981 11.6197 8.58618 11.3594 8.46004 11.0548C8.33389 10.7503 8.30089 10.4152 8.36519 10.0919C8.4295 9.76856 8.58824 9.47159 8.82133 9.2385C9.05441 9.00541 9.35139 8.84668 9.67469 8.78237C9.99799 8.71806 10.3331 8.75107 10.6376 8.87721C10.9422 9.00336 11.2025 9.21698 11.3856 9.49106C11.5688 9.76514 11.6665 10.0874 11.6665 10.417C11.6665 10.859 11.4909 11.283 11.1783 11.5955C10.8658 11.9081 10.4419 12.0837 9.99984 12.0837Z" fill="white"/>
</svg>
