<svg width="21" height="20" viewBox="0 0 21 20" fill="none" xmlns="http://www.w3.org/2000/svg">
<path d="M9.61747 5.06747C9.90977 5.02267 10.2051 5.00038 10.5008 5.00081C13.1508 5.00081 15.6425 6.90914 17.0925 10.0008C16.8707 10.4713 16.6202 10.9277 16.3425 11.3675C16.2543 11.504 16.2079 11.6633 16.2091 11.8258C16.211 12.0077 16.2723 12.1839 16.3837 12.3277C16.4951 12.4715 16.6505 12.5748 16.8261 12.6221C17.0017 12.6693 17.188 12.6577 17.3565 12.5892C17.5249 12.5207 17.6663 12.3989 17.7591 12.2425C18.1474 11.6324 18.4847 10.9913 18.7675 10.3258C18.8122 10.2218 18.8352 10.1098 18.8352 9.99664C18.8352 9.88345 18.8122 9.77145 18.7675 9.66747C17.0841 5.75914 13.9175 3.33414 10.5008 3.33414C10.1097 3.33217 9.71921 3.36564 9.33414 3.43414C9.2247 3.45274 9.12 3.49272 9.02602 3.55179C8.93203 3.61085 8.8506 3.68785 8.78638 3.77839C8.72215 3.86893 8.67638 3.97123 8.65169 4.07945C8.627 4.18768 8.62387 4.2997 8.64247 4.40914C8.66108 4.51857 8.70105 4.62327 8.76012 4.71726C8.81919 4.81124 8.89619 4.89267 8.98672 4.9569C9.07726 5.02113 9.17956 5.06689 9.28779 5.09159C9.39601 5.11628 9.50804 5.11941 9.61747 5.10081V5.06747ZM3.59247 1.90914C3.51477 1.83144 3.42253 1.76981 3.32101 1.72776C3.21949 1.68571 3.11069 1.66406 3.00081 1.66406C2.89092 1.66406 2.78212 1.68571 2.6806 1.72776C2.57908 1.76981 2.48684 1.83144 2.40914 1.90914C2.25222 2.06606 2.16406 2.27889 2.16406 2.50081C2.16406 2.72272 2.25222 2.93555 2.40914 3.09247L4.99247 5.66747C3.81378 6.80208 2.87569 8.16246 2.23414 9.66747C2.18825 9.77261 2.16457 9.88609 2.16457 10.0008C2.16457 10.1155 2.18825 10.229 2.23414 10.3341C3.91747 14.2425 7.08414 16.6675 10.5008 16.6675C11.9984 16.6571 13.4606 16.2112 14.7091 15.3841L17.4091 18.0925C17.4866 18.1706 17.5788 18.2326 17.6803 18.2749C17.7819 18.3172 17.8908 18.339 18.0008 18.339C18.1108 18.339 18.2197 18.3172 18.3213 18.2749C18.4228 18.2326 18.515 18.1706 18.5925 18.0925C18.6706 18.015 18.7326 17.9228 18.7749 17.8213C18.8172 17.7197 18.839 17.6108 18.839 17.5008C18.839 17.3908 18.8172 17.2819 18.7749 17.1803C18.7326 17.0788 18.6706 16.9866 18.5925 16.9091L3.59247 1.90914ZM8.89247 9.56747L10.9341 11.6091C10.7933 11.6495 10.6473 11.6692 10.5008 11.6675C10.0588 11.6675 9.63485 11.4919 9.32229 11.1793C9.00973 10.8668 8.83414 10.4428 8.83414 10.0008C8.83243 9.85429 8.85208 9.70832 8.89247 9.56747ZM10.5008 15.0008C7.8508 15.0008 5.35914 13.0925 3.91747 10.0008C4.45588 8.81226 5.22003 7.73962 6.16747 6.84247L7.64247 8.33414C7.29601 8.96647 7.16392 9.69409 7.26602 10.4079C7.36812 11.1216 7.6989 11.783 8.20874 12.2929C8.71859 12.8027 9.38 13.1335 10.0938 13.2356C10.8075 13.3377 11.5351 13.2056 12.1675 12.8591L13.4925 14.1675C12.585 14.7015 11.5537 14.9888 10.5008 15.0008Z" fill="#111111"/>
</svg>
