<svg width="30" height="30" viewBox="0 0 30 30" fill="none" xmlns="http://www.w3.org/2000/svg">
<g id=" close" opacity="0.8">
<path id="Icon" fill-rule="evenodd" clip-rule="evenodd" d="M16.7676 15.0003L22.1339 9.63406C22.6226 9.14531 22.6226 8.35531 22.1339 7.86656C21.6451 7.37781 20.8551 7.37781 20.3664 7.86656L15.0001 13.2328L9.63388 7.86656C9.14513 7.37781 8.35513 7.37781 7.86638 7.86656C7.37763 8.35531 7.37763 9.14531 7.86638 9.63406L13.2326 15.0003L7.86638 20.3666C7.37763 20.8553 7.37763 21.6453 7.86638 22.1341C8.11013 22.3778 8.43013 22.5003 8.75013 22.5003C9.07013 22.5003 9.39013 22.3778 9.63388 22.1341L15.0001 16.7678L20.3664 22.1341C20.6101 22.3778 20.9301 22.5003 21.2501 22.5003C21.5701 22.5003 21.8901 22.3778 22.1339 22.1341C22.6226 21.6453 22.6226 20.8553 22.1339 20.3666L16.7676 15.0003Z" fill="#111111"/>
</g>
</svg>
