<svg width="24" height="24" viewBox="0 0 24 24" fill="none" xmlns="http://www.w3.org/2000/svg">
<path d="M3.09375 6.41211L6.09375 2.41211H18.0938L21.0938 6.41211M3.09375 6.41211V20.4121C3.09375 20.9425 3.30446 21.4512 3.67954 21.8263C4.05461 22.2014 4.56332 22.4121 5.09375 22.4121H19.0938C19.6242 22.4121 20.1329 22.2014 20.508 21.8263C20.883 21.4512 21.0938 20.9425 21.0938 20.4121V6.41211M3.09375 6.41211H21.0938M16.0938 10.4121C16.0938 11.473 15.6723 12.4904 14.9222 13.2405C14.172 13.9907 13.1546 14.4121 12.0938 14.4121C11.0329 14.4121 10.0155 13.9907 9.26532 13.2405C8.51518 12.4904 8.09375 11.473 8.09375 10.4121" stroke="#111111" stroke-width="2" stroke-linecap="round" stroke-linejoin="round"/>
</svg>
