<svg width="24" height="24" viewBox="0 0 24 24" fill="none" xmlns="http://www.w3.org/2000/svg">
<path d="M17.09 2.82031C16.1703 2.0639 15.0933 1.52234 13.9377 1.23516C12.782 0.947971 11.5768 0.922401 10.41 1.16031C8.85638 1.47413 7.43099 2.24239 6.31469 3.36759C5.19838 4.4928 4.44147 5.92425 4.14 7.48031C3.91985 8.64703 3.95985 9.84796 4.25716 10.9974C4.55448 12.1469 5.10177 13.2166 5.86 14.1303C6.56369 14.9244 6.96704 15.9398 7 17.0003V20.0003C7 20.796 7.31607 21.559 7.87868 22.1216C8.44129 22.6842 9.20435 23.0003 10 23.0003H14C14.7957 23.0003 15.5587 22.6842 16.1213 22.1216C16.6839 21.559 17 20.796 17 20.0003V17.1903C17.0336 16.0195 17.4637 14.8947 18.22 14.0003C19.5451 12.3611 20.1698 10.2651 19.9582 8.16794C19.7466 6.07074 18.7159 4.1418 17.09 2.80031V2.82031ZM15 20.0003C15 20.2655 14.8946 20.5199 14.7071 20.7074C14.5196 20.895 14.2652 21.0003 14 21.0003H10C9.73479 21.0003 9.48043 20.895 9.2929 20.7074C9.10536 20.5199 9 20.2655 9 20.0003V19.0003H15V20.0003ZM16.67 12.7603C15.6645 13.9529 15.0779 15.4424 15 17.0003H13V14.0003C13 13.7351 12.8946 13.4807 12.7071 13.2932C12.5196 13.1057 12.2652 13.0003 12 13.0003C11.7348 13.0003 11.4804 13.1057 11.2929 13.2932C11.1054 13.4807 11 13.7351 11 14.0003V17.0003H9C8.97362 15.4684 8.40695 13.9951 7.4 12.8403C6.73564 12.0443 6.28889 11.0897 6.10331 10.0697C5.91773 9.04959 5.99965 7.99883 6.34109 7.01984C6.68253 6.04086 7.27182 5.16706 8.05153 4.48364C8.83123 3.80022 9.77472 3.33051 10.79 3.12031C11.6626 2.94066 12.5642 2.95756 13.4294 3.16978C14.2946 3.38201 15.1017 3.78424 15.7921 4.34727C16.4824 4.91029 17.0388 5.61999 17.4207 6.42483C17.8026 7.22967 18.0005 8.10946 18 9.00031C18.0074 10.3702 17.5371 11.6998 16.67 12.7603Z" fill="#111111"/>
</svg>
