<svg width="25" height="24" viewBox="0 0 25 24" fill="none" xmlns="http://www.w3.org/2000/svg">
<path d="M9.5 17.2498C9.08579 17.2498 8.75 17.5856 8.75 17.9998C8.75 18.414 9.08579 18.7498 9.5 18.7498H15.5C15.9142 18.7498 16.25 18.414 16.25 17.9998C16.25 17.5856 15.9142 17.2498 15.5 17.2498H9.5Z" fill="#999999"/>
<path fill-rule="evenodd" clip-rule="evenodd" d="M12.4999 1.25C11.7749 1.25 11.1133 1.44911 10.3892 1.7871C9.68823 2.11428 8.87763 2.59716 7.86174 3.20233L6.40613 4.06943C5.28702 4.73606 4.39526 5.26727 3.72006 5.77524C3.02304 6.29963 2.4999 6.8396 2.15898 7.55072C1.81789 8.26219 1.72545 9.0068 1.7551 9.87584C1.7838 10.717 1.93096 11.7397 2.11547 13.0219L2.40783 15.0537C2.64522 16.7036 2.83359 18.0128 3.11503 19.0322C3.40514 20.0829 3.81676 20.9169 4.55956 21.5565C5.30174 22.1956 6.18975 22.4814 7.27625 22.6177C8.33145 22.75 9.66271 22.75 11.3422 22.75H13.6576C15.3371 22.75 16.6684 22.75 17.7236 22.6177C18.8101 22.4814 19.6981 22.1956 20.4403 21.5565C21.1831 20.9169 21.5947 20.0829 21.8848 19.0322C22.1662 18.0129 22.3546 16.7036 22.592 15.0537L22.8844 13.0219C23.0689 11.7396 23.216 10.717 23.2447 9.87584C23.2744 9.0068 23.1819 8.26219 22.8408 7.55072C22.4999 6.8396 21.9768 6.29963 21.2798 5.77524C20.6046 5.26727 19.7128 4.73606 18.5937 4.06943L17.1381 3.20233C16.1222 2.59716 15.3116 2.11428 14.6106 1.7871C13.8865 1.44911 13.225 1.25 12.4999 1.25ZM8.59549 4.51121C9.653 3.88126 10.3991 3.43781 11.0236 3.14633C11.6327 2.86203 12.0707 2.75 12.4999 2.75C12.9292 2.75 13.3671 2.86203 13.9762 3.14633C14.6007 3.43781 15.3468 3.88126 16.4043 4.51121L17.7892 5.33615C18.9535 6.02973 19.7751 6.52034 20.378 6.9739C20.9664 7.41662 21.2887 7.78294 21.4882 8.19917C21.6876 8.61505 21.7705 9.09337 21.7456 9.82469C21.72 10.5745 21.5855 11.5163 21.3935 12.8511L21.1147 14.7884C20.8682 16.5016 20.692 17.7162 20.4389 18.633C20.1915 19.5289 19.8938 20.0476 19.4615 20.4198C19.0286 20.7926 18.4675 21.0127 17.5369 21.1294C16.5859 21.2486 15.3487 21.25 13.606 21.25H11.3938C9.65115 21.25 8.41396 21.2486 7.4629 21.1294C6.53236 21.0127 5.9712 20.7926 5.53832 20.4198C5.10605 20.0476 4.80829 19.5289 4.56093 18.633C4.30781 17.7162 4.13161 16.5016 3.8851 14.7884L3.60634 12.851C3.41428 11.5163 3.27982 10.5745 3.25423 9.82469C3.22928 9.09337 3.3122 8.61505 3.51158 8.19917C3.71112 7.78294 4.03338 7.41662 4.62184 6.9739C5.22472 6.52034 6.04634 6.02973 7.21065 5.33615L8.59549 4.51121Z" fill="#999999"/>
</svg>
