<svg width="32" height="32" viewBox="0 0 32 32" fill="none" xmlns="http://www.w3.org/2000/svg">
<rect x="32" y="32" width="32" height="32" rx="16" transform="rotate(-180 32 32)" fill="#DA002B"/>
<path d="M11.0001 17.8298C11.1874 18.0161 11.4409 18.1206 11.7051 18.1206C11.9692 18.1206 12.2227 18.0161 12.4101 17.8298L16.0001 14.2898L19.5401 17.8298C19.7274 18.0161 19.9809 18.1206 20.2451 18.1206C20.5092 18.1206 20.7627 18.0161 20.9501 17.8298C21.0438 17.7369 21.1182 17.6262 21.1689 17.5044C21.2197 17.3825 21.2458 17.2518 21.2458 17.1198C21.2458 16.9878 21.2197 16.8571 21.1689 16.7352C21.1182 16.6134 21.0438 16.5028 20.9501 16.4098L16.7101 12.1698C16.6171 12.0761 16.5065 12.0017 16.3846 11.9509C16.2628 11.9002 16.1321 11.874 16.0001 11.874C15.868 11.874 15.7373 11.9002 15.6155 11.9509C15.4936 12.0017 15.383 12.0761 15.2901 12.1698L11.0001 16.4098C10.9063 16.5028 10.8319 16.6134 10.7812 16.7352C10.7304 16.8571 10.7043 16.9878 10.7043 17.1198C10.7043 17.2518 10.7304 17.3825 10.7812 17.5044C10.8319 17.6262 10.9063 17.7368 11.0001 17.8298Z" fill="white"/>
</svg>
