<svg width="20" height="20" viewBox="0 0 20 20" fill="none" xmlns="http://www.w3.org/2000/svg">
<path d="M10.0027 0C2.93614 0 0 3.43193 0 8.125V10.6679C0 15.361 2.93614 18.7929 10.0027 18.7929C10.3347 18.7929 11.2689 18.7668 11.2689 18.7668C11.6426 18.7668 11.9482 19.058 11.9482 19.4138V19.4643C11.9482 19.6493 11.8582 19.8077 11.7247 19.9236L11.7278 19.9255C11.7278 19.9255 11.63 20.0146 11.8006 19.9979C12.9778 19.8939 20 18.9277 20 10.6679V9.93278V8.125C20 3.43193 16.9335 0 10.0027 0ZM10 13.6435C8.97993 13.6435 8.11826 12.823 8.11826 11.8515C8.11826 10.8801 8.97993 10.0596 10 10.0596C11.0201 10.0596 11.8817 10.8801 11.8817 11.8515C11.8817 12.823 11.0201 13.6435 10 13.6435ZM10 8.82012C8.97993 8.82012 8.11826 7.99963 8.11826 7.0281C8.11826 6.05676 8.97993 5.23608 10 5.23608C11.0201 5.23608 11.8817 6.05676 11.8817 7.0281C11.8817 7.99963 11.0201 8.82012 10 8.82012Z" fill="white"/>
</svg>
