<svg width="22" height="22" viewBox="0 0 22 22" fill="none" xmlns="http://www.w3.org/2000/svg">
<path fill-rule="evenodd" clip-rule="evenodd" d="M18.244 9.3121C17.2627 8.64189 15.7695 7.91192 13.672 6.8896L8.92358 4.5753C7.23693 3.75326 6.01483 3.1583 5.09333 2.79758C4.12991 2.42045 3.69046 2.38501 3.47947 2.44316C2.82959 2.62228 2.32582 3.13638 2.15992 3.78975C2.10606 4.00188 2.15041 4.44052 2.547 5.3961C2.92634 6.31009 3.54596 7.51987 4.40205 9.1895C4.41557 9.21586 4.42893 9.24188 4.44213 9.26758C4.62489 9.62347 4.77589 9.9175 4.87133 10.2116L12.3583 10.1772C12.7826 10.1752 13.1281 10.5176 13.1301 10.942C13.132 11.3663 12.7897 11.7118 12.3653 11.7138L4.91136 11.7481C4.82514 12.0721 4.6697 12.3906 4.47779 12.7837C4.46512 12.8097 4.45229 12.8359 4.43931 12.8626C3.61726 14.5492 3.02231 15.7713 2.66159 16.6928C2.28446 17.6562 2.24901 18.0957 2.30717 18.3067C2.48629 18.9566 3.00038 19.4603 3.65376 19.6262C3.86589 19.6801 4.30453 19.6357 5.2601 19.2391C6.1741 18.8598 7.38387 18.2402 9.05349 17.3841L13.754 14.974C15.8304 13.9093 17.3084 13.1492 18.2759 12.4592C19.248 11.766 19.4834 11.2974 19.4791 10.8733C19.4748 10.4491 19.23 9.9855 18.244 9.3121ZM19.1106 8.04319C20.2028 8.78914 21.0033 9.64792 21.0156 10.8577C21.0279 12.0675 20.2449 12.9423 19.1681 13.7103C18.0977 14.4736 16.5178 15.2837 14.5175 16.3093L9.71994 18.7692C8.09215 19.6039 6.82732 20.2524 5.84913 20.6584C4.90559 21.05 4.03162 21.3075 3.27559 21.1156C2.08693 20.8138 1.15166 19.8973 0.825794 18.715C0.618534 17.963 0.858318 17.084 1.2307 16.1327C1.61675 15.1465 2.23949 13.8688 3.04093 12.2244L3.05802 12.1894C3.3388 11.6133 3.4101 11.4522 3.43909 11.2976C3.47154 11.1245 3.46974 10.9468 3.43379 10.7744C3.40167 10.6204 3.32711 10.4609 3.0347 9.8906L3.01689 9.85586C2.18226 8.22809 1.53374 6.9633 1.12777 5.98513C0.736167 5.04158 0.478604 4.16761 0.670571 3.41158C0.972389 2.22292 1.88887 1.28766 3.07117 0.96179C3.82314 0.754528 4.70216 0.994311 5.65345 1.36669C6.63967 1.75275 7.91738 2.37549 9.56176 3.17694L14.4083 5.53905C16.4289 6.52388 18.025 7.30175 19.1106 8.04319Z" fill="#DA1600"/>
</svg>
