<svg width="20" height="20" viewBox="0 0 20 20" fill="none" xmlns="http://www.w3.org/2000/svg">
<path d="M16.2 10.8333C16.0167 10.8333 15.825 10.775 15.6417 10.7333C15.2704 10.6515 14.9056 10.5429 14.55 10.4083C14.1634 10.2677 13.7385 10.275 13.3569 10.4288C12.9754 10.5827 12.6642 10.8722 12.4833 11.2416L12.3 11.6166C11.4883 11.1651 10.7425 10.6043 10.0833 9.94997C9.42897 9.29082 8.86819 8.54497 8.41667 7.7333L8.76667 7.49997C9.13614 7.31907 9.42565 7.00791 9.57949 6.62638C9.73334 6.24485 9.74064 5.8199 9.6 5.4333C9.46769 5.07699 9.35911 4.7123 9.275 4.34164C9.23333 4.1583 9.2 3.96664 9.175 3.77497C9.0738 3.18799 8.76635 2.65642 8.30802 2.276C7.84968 1.89559 7.27058 1.69131 6.675 1.69997H4.175C3.81586 1.6966 3.46021 1.77065 3.13226 1.91708C2.80431 2.06351 2.51176 2.27888 2.27453 2.54854C2.03729 2.81819 1.86095 3.1358 1.75749 3.47973C1.65403 3.82367 1.6259 4.18585 1.675 4.54164C2.11895 8.03279 3.71336 11.2765 6.20638 13.7605C8.6994 16.2445 11.9489 17.8271 15.4417 18.2583H15.7583C16.3728 18.2592 16.9662 18.0337 17.425 17.625C17.6886 17.3892 17.8992 17.1001 18.0429 16.7769C18.1865 16.4537 18.26 16.1037 18.2583 15.75V13.25C18.2481 12.6711 18.0373 12.1138 17.6619 11.673C17.2866 11.2323 16.7698 10.9355 16.2 10.8333ZM16.6167 15.8333C16.6165 15.9516 16.5912 16.0686 16.5423 16.1763C16.4935 16.2841 16.4222 16.3802 16.3333 16.4583C16.2405 16.5391 16.1316 16.5995 16.0139 16.6354C15.8961 16.6713 15.7721 16.6819 15.65 16.6666C12.5291 16.2665 9.6302 14.8387 7.4106 12.6085C5.191 10.3784 3.77701 7.47275 3.39167 4.34997C3.3784 4.2279 3.39003 4.10441 3.42584 3.98696C3.46164 3.86951 3.52089 3.76054 3.6 3.66664C3.67809 3.57775 3.77422 3.50651 3.88198 3.45765C3.98975 3.4088 4.10668 3.38345 4.225 3.3833H6.725C6.91879 3.37899 7.10802 3.44237 7.26012 3.56253C7.41222 3.68269 7.51767 3.85211 7.55833 4.04164C7.59167 4.26942 7.63333 4.49442 7.68333 4.71664C7.7796 5.15593 7.90772 5.58762 8.06667 6.00831L6.9 6.54997C6.80025 6.59574 6.71052 6.66076 6.63596 6.7413C6.56141 6.82184 6.5035 6.91632 6.46556 7.0193C6.42762 7.12228 6.41039 7.23175 6.41487 7.34141C6.41935 7.45107 6.44545 7.55876 6.49167 7.6583C7.691 10.2273 9.75604 12.2923 12.325 13.4916C12.5279 13.575 12.7554 13.575 12.9583 13.4916C13.0623 13.4545 13.1578 13.397 13.2393 13.3226C13.3209 13.2482 13.3868 13.1584 13.4333 13.0583L13.95 11.8916C14.3808 12.0457 14.8205 12.1737 15.2667 12.275C15.4889 12.325 15.7139 12.3666 15.9417 12.4C16.1312 12.4406 16.3006 12.5461 16.4208 12.6982C16.5409 12.8503 16.6043 13.0395 16.6 13.2333L16.6167 15.8333Z" fill="#111111"/>
</svg>
