<svg width="57" height="56" viewBox="0 0 57 56" fill="none" xmlns="http://www.w3.org/2000/svg">
<rect x="0.5" width="56" height="56" rx="28" fill="#F2F2F2"/>
<path d="M36.1727 30.6666C37.8287 30.6666 39.1712 32.0091 39.1712 33.6651V34.4323C39.1712 35.6247 38.7451 36.7778 37.9697 37.6836C35.8772 40.1283 32.6943 41.3348 28.5005 41.3348C24.306 41.3348 21.1246 40.1279 19.0362 37.6822C18.2632 36.777 17.8385 35.6257 17.8385 34.4353V33.6651C17.8385 32.0091 19.181 30.6666 20.837 30.6666H36.1727ZM36.1727 32.6666H20.837C20.2856 32.6666 19.8385 33.1136 19.8385 33.6651V34.4353C19.8385 35.1495 20.0933 35.8403 20.5572 36.3835C22.2282 38.3404 24.8494 39.3348 28.5005 39.3348C32.1516 39.3348 34.775 38.3403 36.4503 36.3831C36.9155 35.8396 37.1712 35.1477 37.1712 34.4323V33.6651C37.1712 33.1136 36.7242 32.6666 36.1727 32.6666ZM28.5005 14.6729C32.1824 14.6729 35.1671 17.6576 35.1671 21.3395C35.1671 25.0214 32.1824 28.0062 28.5005 28.0062C24.8186 28.0062 21.8338 25.0214 21.8338 21.3395C21.8338 17.6576 24.8186 14.6729 28.5005 14.6729ZM28.5005 16.6729C25.9231 16.6729 23.8338 18.7622 23.8338 21.3395C23.8338 23.9168 25.9231 26.0062 28.5005 26.0062C31.0778 26.0062 33.1671 23.9168 33.1671 21.3395C33.1671 18.7622 31.0778 16.6729 28.5005 16.6729Z" fill="#2F2F2F"/>
</svg>
