<svg width="40" height="40" viewBox="0 0 40 40" fill="none" xmlns="http://www.w3.org/2000/svg">
<rect width="40" height="40" rx="20" fill="#334155"/>
<path d="M20.4734 16.194C20.41 16.1333 20.3352 16.0857 20.2534 16.054C20.091 15.9873 19.909 15.9873 19.7467 16.054C19.6649 16.0857 19.5901 16.1333 19.5267 16.194L16.86 18.8607C16.7979 18.9228 16.7486 18.9966 16.7149 19.0778C16.6813 19.159 16.664 19.2461 16.664 19.334C16.664 19.4219 16.6813 19.5089 16.7149 19.5902C16.7486 19.6714 16.7979 19.7452 16.86 19.8073C16.9222 19.8695 16.996 19.9188 17.0772 19.9524C17.1584 19.9861 17.2454 20.0034 17.3334 20.0034C17.4213 20.0034 17.5083 19.9861 17.5895 19.9524C17.6707 19.9188 17.7445 19.8695 17.8067 19.8073L19.3334 18.274V26.0007C19.3334 26.1775 19.4036 26.347 19.5286 26.4721C19.6536 26.5971 19.8232 26.6673 20 26.6673C20.1768 26.6673 20.3464 26.5971 20.4714 26.4721C20.5964 26.347 20.6667 26.1775 20.6667 26.0007V18.274L22.1934 19.8073C22.2553 19.8698 22.3291 19.9194 22.4103 19.9532C22.4915 19.9871 22.5787 20.0045 22.6667 20.0045C22.7547 20.0045 22.8418 19.9871 22.9231 19.9532C23.0043 19.9194 23.078 19.8698 23.14 19.8073C23.2025 19.7453 23.2521 19.6716 23.2859 19.5904C23.3198 19.5091 23.3372 19.422 23.3372 19.334C23.3372 19.246 23.3198 19.1588 23.2859 19.0776C23.2521 18.9964 23.2025 18.9226 23.14 18.8607L20.4734 16.194ZM24.6667 13.334H15.3334C15.1565 13.334 14.987 13.4042 14.8619 13.5292C14.7369 13.6543 14.6667 13.8238 14.6667 14.0007C14.6667 14.1775 14.7369 14.347 14.8619 14.4721C14.987 14.5971 15.1565 14.6673 15.3334 14.6673H24.6667C24.8435 14.6673 25.0131 14.5971 25.1381 14.4721C25.2631 14.347 25.3334 14.1775 25.3334 14.0007C25.3334 13.8238 25.2631 13.6543 25.1381 13.5292C25.0131 13.4042 24.8435 13.334 24.6667 13.334Z" fill="white"/>
</svg>
