<svg width="49" height="48" viewBox="0 0 49 48" fill="none" xmlns="http://www.w3.org/2000/svg">
<g filter="url(#filter0_b_2507_32048)">
<rect x="0.5" width="48" height="48" rx="16" fill="white"/>
<rect x="0.5" width="48" height="48" rx="16" fill="#3B82F6" fill-opacity="0.15"/>
<path opacity="0.3" d="M15.6716 19.9216C14.5 21.0931 14.5 22.9788 14.5 26.75C14.5 30.5212 14.5 32.4069 15.6716 33.5784C16.8431 34.75 18.7288 34.75 22.5 34.75H26.5C30.2712 34.75 32.1569 34.75 33.3284 33.5784C34.5 32.4069 34.5 30.5212 34.5 26.75C34.5 22.9788 34.5 21.0931 33.3284 19.9216C32.1569 18.75 30.2712 18.75 26.5 18.75H22.5C18.7288 18.75 16.8431 18.75 15.6716 19.9216Z" fill="#3B82F6"/>
<path d="M28.5 22.75C29.0523 22.75 29.5 22.3023 29.5 21.75C29.5 21.1977 29.0523 20.75 28.5 20.75C27.9477 20.75 27.5 21.1977 27.5 21.75C27.5 22.3023 27.9477 22.75 28.5 22.75Z" fill="#3B82F6"/>
<path d="M21.5 21.75C21.5 22.3023 21.0523 22.75 20.5 22.75C19.9477 22.75 19.5 22.3023 19.5 21.75C19.5 21.1977 19.9477 20.75 20.5 20.75C21.0523 20.75 21.5 21.1977 21.5 21.75Z" fill="#3B82F6"/>
<path d="M24.552 14H24.448C23.5495 14 22.8003 13.9999 22.2055 14.0799C21.5777 14.1643 21.0109 14.35 20.5555 14.8055C20.1 15.2609 19.9143 15.8277 19.8299 16.4555C19.7499 17.0503 19.75 17.7995 19.75 18.698L19.75 18.7757C20.207 18.7608 20.7053 18.7545 21.25 18.7519V18.75C21.25 17.786 21.2516 17.1384 21.3165 16.6554C21.3786 16.1939 21.4858 15.9964 21.6161 15.8661C21.7464 15.7358 21.9439 15.6286 22.4054 15.5665C22.8884 15.5016 23.536 15.5 24.5 15.5C25.464 15.5 26.1116 15.5016 26.5946 15.5665C27.0561 15.6286 27.2536 15.7358 27.3839 15.8661C27.5142 15.9964 27.6214 16.1939 27.6835 16.6554C27.7484 17.1384 27.75 17.786 27.75 18.75V18.7519C28.2947 18.7545 28.793 18.7608 29.25 18.7757V18.698C29.25 17.7995 29.2501 17.0503 29.1701 16.4555C29.0857 15.8277 28.9 15.2609 28.4445 14.8055C27.9891 14.35 27.4223 14.1643 26.7945 14.0799C26.1997 13.9999 25.4505 14 24.552 14Z" fill="#3B82F6"/>
</g>
<defs>
<filter id="filter0_b_2507_32048" x="-9.5" y="-10" width="68" height="68" filterUnits="userSpaceOnUse" color-interpolation-filters="sRGB">
<feFlood flood-opacity="0" result="BackgroundImageFix"/>
<feGaussianBlur in="BackgroundImageFix" stdDeviation="5"/>
<feComposite in2="SourceAlpha" operator="in" result="effect1_backgroundBlur_2507_32048"/>
<feBlend mode="normal" in="SourceGraphic" in2="effect1_backgroundBlur_2507_32048" result="shape"/>
</filter>
</defs>
</svg>
