<svg width="20" height="20" viewBox="0 0 20 20" fill="none" xmlns="http://www.w3.org/2000/svg">
<path d="M15 5.83308H14.7083C14.8985 5.44372 14.9982 5.0164 15 4.58308C15.0025 4.00252 14.8312 3.43449 14.5082 2.95211C14.1851 2.46972 13.7251 2.09507 13.1873 1.87636C12.6495 1.65766 12.0585 1.60491 11.4905 1.72492C10.9225 1.84493 10.4034 2.1322 10 2.54975C9.59662 2.1322 9.07751 1.84493 8.50948 1.72492C7.94146 1.60491 7.35051 1.65766 6.81271 1.87636C6.27491 2.09507 5.81488 2.46972 5.49182 2.95211C5.16877 3.43449 4.99748 4.00252 5 4.58308C5.00178 5.0164 5.10149 5.44372 5.29167 5.83308H5C4.33696 5.83308 3.70107 6.09647 3.23223 6.56531C2.76339 7.03415 2.5 7.67004 2.5 8.33308V9.99975C2.5 10.2208 2.5878 10.4327 2.74408 10.589C2.90036 10.7453 3.11232 10.8331 3.33333 10.8331H4.16667V15.8331C4.16667 16.4961 4.43006 17.132 4.8989 17.6008C5.36774 18.0697 6.00363 18.3331 6.66667 18.3331H13.3333C13.9964 18.3331 14.6323 18.0697 15.1011 17.6008C15.5699 17.132 15.8333 16.4961 15.8333 15.8331V10.8331H16.6667C16.8877 10.8331 17.0996 10.7453 17.2559 10.589C17.4122 10.4327 17.5 10.2208 17.5 9.99975V8.33308C17.5 7.67004 17.2366 7.03415 16.7678 6.56531C16.2989 6.09647 15.663 5.83308 15 5.83308ZM9.16667 16.6664H6.66667C6.44565 16.6664 6.23369 16.5786 6.07741 16.4223C5.92113 16.2661 5.83333 16.0541 5.83333 15.8331V10.8331H9.16667V16.6664ZM9.16667 9.16641H4.16667V8.33308C4.16667 8.11207 4.25446 7.9001 4.41074 7.74382C4.56702 7.58754 4.77899 7.49975 5 7.49975H9.16667V9.16641ZM9.16667 5.83308H7.91667C7.66944 5.83308 7.42777 5.75977 7.2222 5.62242C7.01664 5.48506 6.85643 5.28984 6.76182 5.06143C6.66721 4.83303 6.64245 4.58169 6.69068 4.33922C6.73892 4.09674 6.85797 3.87401 7.03278 3.6992C7.2076 3.52438 7.43033 3.40533 7.6728 3.3571C7.91528 3.30887 8.16661 3.33362 8.39502 3.42823C8.62343 3.52284 8.81865 3.68306 8.956 3.88862C9.09336 4.09418 9.16667 4.33585 9.16667 4.58308V5.83308ZM10.8333 4.58308C10.8333 4.33585 10.9066 4.09418 11.044 3.88862C11.1813 3.68306 11.3766 3.52284 11.605 3.42823C11.8334 3.33362 12.0847 3.30887 12.3272 3.3571C12.5697 3.40533 12.7924 3.52438 12.9672 3.6992C13.142 3.87401 13.2611 4.09674 13.3093 4.33922C13.3575 4.58169 13.3328 4.83303 13.2382 5.06143C13.1436 5.28984 12.9834 5.48506 12.7778 5.62242C12.5722 5.75977 12.3306 5.83308 12.0833 5.83308H10.8333V4.58308ZM14.1667 15.8331C14.1667 16.0541 14.0789 16.2661 13.9226 16.4223C13.7663 16.5786 13.5543 16.6664 13.3333 16.6664H10.8333V10.8331H14.1667V15.8331ZM15.8333 9.16641H10.8333V7.49975H15C15.221 7.49975 15.433 7.58754 15.5893 7.74382C15.7455 7.9001 15.8333 8.11207 15.8333 8.33308V9.16641Z" fill="#FD8200"/>
</svg>
