<svg width="25" height="24" viewBox="0 0 25 24" fill="none" xmlns="http://www.w3.org/2000/svg">
<path d="M22.5 2H2.5C2.23478 2 1.98043 2.10536 1.79289 2.29289C1.60536 2.48043 1.5 2.73478 1.5 3V7C1.50174 7.61894 1.69488 8.2222 2.05294 8.72707C2.411 9.23193 2.91645 9.61369 3.5 9.82V21C3.5 21.2652 3.60536 21.5196 3.79289 21.7071C3.98043 21.8946 4.23478 22 4.5 22H20.5C20.7652 22 21.0196 21.8946 21.2071 21.7071C21.3946 21.5196 21.5 21.2652 21.5 21V9.82C22.0835 9.61369 22.589 9.23193 22.9471 8.72707C23.3051 8.2222 23.4983 7.61894 23.5 7V3C23.5 2.73478 23.3946 2.48043 23.2071 2.29289C23.0196 2.10536 22.7652 2 22.5 2ZM15.5 4H17.5V7C17.5 7.26522 17.3946 7.51957 17.2071 7.70711C17.0196 7.89464 16.7652 8 16.5 8C16.2348 8 15.9804 7.89464 15.7929 7.70711C15.6054 7.51957 15.5 7.26522 15.5 7V4ZM11.5 4H13.5V7C13.5 7.26522 13.3946 7.51957 13.2071 7.70711C13.0196 7.89464 12.7652 8 12.5 8C12.2348 8 11.9804 7.89464 11.7929 7.70711C11.6054 7.51957 11.5 7.26522 11.5 7V4ZM7.5 4H9.5V7C9.5 7.26522 9.39464 7.51957 9.20711 7.70711C9.01957 7.89464 8.76522 8 8.5 8C8.23478 8 7.98043 7.89464 7.79289 7.70711C7.60536 7.51957 7.5 7.26522 7.5 7V4ZM4.5 8C4.23478 8 3.98043 7.89464 3.79289 7.70711C3.60536 7.51957 3.5 7.26522 3.5 7V4H5.5V7C5.5 7.26522 5.39464 7.51957 5.20711 7.70711C5.01957 7.89464 4.76522 8 4.5 8ZM14.5 20H10.5V16C10.5 15.4696 10.7107 14.9609 11.0858 14.5858C11.4609 14.2107 11.9696 14 12.5 14C13.0304 14 13.5391 14.2107 13.9142 14.5858C14.2893 14.9609 14.5 15.4696 14.5 16V20ZM19.5 20H16.5V16C16.5 14.9391 16.0786 13.9217 15.3284 13.1716C14.5783 12.4214 13.5609 12 12.5 12C11.4391 12 10.4217 12.4214 9.67157 13.1716C8.92143 13.9217 8.5 14.9391 8.5 16V20H5.5V9.82C5.86757 9.68356 6.20664 9.48012 6.5 9.22C7.05002 9.71196 7.76207 9.98393 8.5 9.98393C9.23793 9.98393 9.94998 9.71196 10.5 9.22C11.05 9.71196 11.7621 9.98393 12.5 9.98393C13.2379 9.98393 13.95 9.71196 14.5 9.22C15.05 9.71196 15.7621 9.98393 16.5 9.98393C17.2379 9.98393 17.95 9.71196 18.5 9.22C18.7934 9.48012 19.1324 9.68356 19.5 9.82V20ZM21.5 7C21.5 7.26522 21.3946 7.51957 21.2071 7.70711C21.0196 7.89464 20.7652 8 20.5 8C20.2348 8 19.9804 7.89464 19.7929 7.70711C19.6054 7.51957 19.5 7.26522 19.5 7V4H21.5V7Z" fill="#999999"/>
</svg>
