<svg width="50" height="50" viewBox="0 0 50 50" fill="none" xmlns="http://www.w3.org/2000/svg">
<rect x="1" y="1" width="48" height="48" rx="24" fill="#FAFAFA"/>
<path d="M29.6667 24.3337H25.6667V20.3337C25.6667 20.1568 25.5964 19.9873 25.4714 19.8623C25.3464 19.7372 25.1768 19.667 25 19.667C24.8232 19.667 24.6536 19.7372 24.5286 19.8623C24.4036 19.9873 24.3333 20.1568 24.3333 20.3337V24.3337H20.3333C20.1565 24.3337 19.987 24.4039 19.8619 24.5289C19.7369 24.6539 19.6667 24.8235 19.6667 25.0003C19.6667 25.1771 19.7369 25.3467 19.8619 25.4717C19.987 25.5968 20.1565 25.667 20.3333 25.667H24.3333V29.667C24.3333 29.8438 24.4036 30.0134 24.5286 30.1384C24.6536 30.2634 24.8232 30.3337 25 30.3337C25.1768 30.3337 25.3464 30.2634 25.4714 30.1384C25.5964 30.0134 25.6667 29.8438 25.6667 29.667V25.667H29.6667C29.8435 25.667 30.0131 25.5968 30.1381 25.4717C30.2631 25.3467 30.3333 25.1771 30.3333 25.0003C30.3333 24.8235 30.2631 24.6539 30.1381 24.5289C30.0131 24.4039 29.8435 24.3337 29.6667 24.3337Z" fill="#C4C4C4"/>
<rect x="1" y="1" width="48" height="48" rx="24" stroke="#E8E8E8" stroke-linecap="round" stroke-dasharray="3 3"/>
</svg>
