<svg width="16" height="12" viewBox="0 0 16 12" fill="none" xmlns="http://www.w3.org/2000/svg">
<path d="M13.1129 1.03381L5.8406 8.31591L2.8875 5.35337L2.88753 5.35333L2.88413 5.35005C2.764 5.234 2.62218 5.14275 2.46678 5.08151C2.31138 5.02027 2.14544 4.99024 1.97844 4.99313C1.81143 4.99602 1.64663 5.03177 1.49344 5.09835C1.34025 5.16493 1.20168 5.26103 1.08563 5.38117C0.969581 5.5013 0.878332 5.64312 0.817091 5.79852C0.75585 5.95392 0.725817 6.11986 0.728706 6.28686C0.731595 6.45387 0.767351 6.61867 0.833931 6.77186C0.900208 6.92435 0.995738 7.06236 1.11511 7.17808L4.95294 11.0159C4.95306 11.016 4.95318 11.0162 4.95331 11.0163C5.06943 11.1333 5.20755 11.2261 5.35972 11.2895C5.51204 11.353 5.67542 11.3857 5.84044 11.3857C6.00545 11.3857 6.16883 11.353 6.32116 11.2895C6.4733 11.2261 6.61139 11.1333 6.72751 11.0163C6.72765 11.0162 6.72779 11.0161 6.72794 11.0159L14.8839 2.86C15.0089 2.74364 15.1088 2.60287 15.1774 2.44637C15.2466 2.28825 15.2824 2.11749 15.2824 1.94486C15.2824 1.77223 15.2466 1.60148 15.1774 1.44335C15.1088 1.28692 15.009 1.14621 14.884 1.02988C14.7686 0.914569 14.6318 0.822946 14.4812 0.760196C14.3288 0.696735 14.1655 0.664062 14.0004 0.664062C13.8354 0.664062 13.672 0.696735 13.5197 0.760196C13.3675 0.823601 13.2294 0.916487 13.1132 1.0335C13.1131 1.0336 13.113 1.03371 13.1129 1.03381Z" fill="white" stroke="#E2E2E2" stroke-width="0.5"/>
</svg>
