<svg width="28" height="28" viewBox="0 0 28 28" fill="none" xmlns="http://www.w3.org/2000/svg">
<rect width="28" height="28" rx="14" fill="white"/>
<path d="M21.7421 7.84319C21.3165 7.41736 20.8111 7.07956 20.2549 6.84909C19.6987 6.61862 19.1025 6.5 18.5004 6.5C17.8984 6.5 17.3022 6.61862 16.746 6.84909C16.1897 7.07956 15.6844 7.41736 15.2588 7.84319L14.3754 8.72652L13.4921 7.84319C12.6323 6.98344 11.4663 6.50045 10.2504 6.50045C9.03456 6.50045 7.8685 6.98344 7.00876 7.84319C6.14901 8.70293 5.66602 9.86899 5.66602 11.0849C5.66602 12.3007 6.14901 13.4668 7.00876 14.3265L7.89209 15.2099L14.3754 21.6932L20.8588 15.2099L21.7421 14.3265C22.1679 13.9009 22.5057 13.3955 22.7362 12.8393C22.9667 12.2831 23.0853 11.6869 23.0853 11.0849C23.0853 10.4828 22.9667 9.88661 22.7362 9.33039C22.5057 8.77418 22.1679 8.26882 21.7421 7.84319V7.84319Z" stroke="#999999" stroke-width="2" stroke-linecap="round" stroke-linejoin="round"/>
</svg>
