<svg width="24" height="24" viewBox="0 0 24 24" fill="none" xmlns="http://www.w3.org/2000/svg">
<path d="M21.4102 8.64013C21.4102 8.64013 21.4102 8.64013 21.4102 8.59013C20.7056 6.66635 19.4271 5.00541 17.7477 3.83199C16.0683 2.65857 14.0689 2.0293 12.0202 2.0293C9.97145 2.0293 7.97213 2.65857 6.29271 3.83199C4.61328 5.00541 3.3348 6.66635 2.6302 8.59013C2.6302 8.59013 2.6302 8.59013 2.6302 8.64013C1.84332 10.811 1.84332 13.1892 2.6302 15.3601C2.6302 15.3601 2.6302 15.3601 2.6302 15.4101C3.3348 17.3339 4.61328 18.9948 6.29271 20.1683C7.97213 21.3417 9.97145 21.971 12.0202 21.971C14.0689 21.971 16.0683 21.3417 17.7477 20.1683C19.4271 18.9948 20.7056 17.3339 21.4102 15.4101C21.4102 15.4101 21.4102 15.4101 21.4102 15.3601C22.1971 13.1892 22.1971 10.811 21.4102 8.64013ZM4.2602 14.0001C3.91342 12.6893 3.91342 11.3109 4.2602 10.0001H6.1202C5.96023 11.3287 5.96023 12.6716 6.1202 14.0001H4.2602ZM5.0802 16.0001H6.4802C6.71491 16.892 7.05041 17.7542 7.4802 18.5701C6.49949 17.9021 5.67969 17.0242 5.0802 16.0001ZM6.4802 8.00013H5.0802C5.67107 6.97921 6.48039 6.10159 7.4502 5.43013C7.03075 6.24737 6.70534 7.10954 6.4802 8.00013ZM11.0002 19.7001C9.77196 18.7988 8.90934 17.4854 8.5702 16.0001H11.0002V19.7001ZM11.0002 14.0001H8.1402C7.95359 12.6733 7.95359 11.3269 8.1402 10.0001H11.0002V14.0001ZM11.0002 8.00013H8.5702C8.90934 6.51489 9.77196 5.20144 11.0002 4.30013V8.00013ZM18.9202 8.00013H17.5202C17.2855 7.10828 16.95 6.24606 16.5202 5.43013C17.5009 6.0982 18.3207 6.97607 18.9202 8.00013ZM13.0002 4.30013C14.2284 5.20144 15.091 6.51489 15.4302 8.00013H13.0002V4.30013ZM13.0002 19.7001V16.0001H15.4302C15.091 17.4854 14.2284 18.7988 13.0002 19.7001ZM15.8602 14.0001H13.0002V10.0001H15.8602C16.0468 11.3269 16.0468 12.6733 15.8602 14.0001ZM16.5502 18.5701C16.98 17.7542 17.3155 16.892 17.5502 16.0001H18.9502C18.3507 17.0242 17.5309 17.9021 16.5502 18.5701ZM19.7402 14.0001H17.8802C17.9615 13.3366 18.0016 12.6686 18.0002 12.0001C18.0013 11.3316 17.9612 10.6637 17.8802 10.0001H19.7402C20.087 11.3109 20.087 12.6893 19.7402 14.0001Z" fill="#111111"/>
</svg>
