<svg width="25" height="24" viewBox="0 0 25 24" fill="none" xmlns="http://www.w3.org/2000/svg">
<path d="M4 6C3.80222 6 3.60888 6.05865 3.44443 6.16853C3.27998 6.27841 3.15181 6.43459 3.07612 6.61732C3.00043 6.80004 2.98063 7.00111 3.01922 7.19509C3.0578 7.38907 3.15304 7.56725 3.29289 7.70711C3.43275 7.84696 3.61093 7.9422 3.80491 7.98079C3.99889 8.01937 4.19996 7.99957 4.38268 7.92388C4.56541 7.84819 4.72159 7.72002 4.83147 7.55557C4.94135 7.39112 5 7.19778 5 7C5 6.73478 4.89464 6.48043 4.70711 6.29289C4.51957 6.10536 4.26522 6 4 6ZM8 8H22C22.2652 8 22.5196 7.89464 22.7071 7.70711C22.8946 7.51957 23 7.26522 23 7C23 6.73478 22.8946 6.48043 22.7071 6.29289C22.5196 6.10536 22.2652 6 22 6H8C7.73478 6 7.48043 6.10536 7.29289 6.29289C7.10536 6.48043 7 6.73478 7 7C7 7.26522 7.10536 7.51957 7.29289 7.70711C7.48043 7.89464 7.73478 8 8 8ZM8 11C7.80222 11 7.60888 11.0586 7.44443 11.1685C7.27998 11.2784 7.15181 11.4346 7.07612 11.6173C7.00043 11.8 6.98063 12.0011 7.01922 12.1951C7.0578 12.3891 7.15304 12.5673 7.29289 12.7071C7.43275 12.847 7.61093 12.9422 7.80491 12.9808C7.99889 13.0194 8.19996 12.9996 8.38268 12.9239C8.56541 12.8482 8.72159 12.72 8.83147 12.5556C8.94135 12.3911 9 12.1978 9 12C9 11.7348 8.89464 11.4804 8.70711 11.2929C8.51957 11.1054 8.26522 11 8 11ZM12 16C11.8022 16 11.6089 16.0586 11.4444 16.1685C11.28 16.2784 11.1518 16.4346 11.0761 16.6173C11.0004 16.8 10.9806 17.0011 11.0192 17.1951C11.0578 17.3891 11.153 17.5673 11.2929 17.7071C11.4327 17.847 11.6109 17.9422 11.8049 17.9808C11.9989 18.0194 12.2 17.9996 12.3827 17.9239C12.5654 17.8482 12.7216 17.72 12.8315 17.5556C12.9414 17.3911 13 17.1978 13 17C13 16.7348 12.8946 16.4804 12.7071 16.2929C12.5196 16.1054 12.2652 16 12 16ZM22 11H12C11.7348 11 11.4804 11.1054 11.2929 11.2929C11.1054 11.4804 11 11.7348 11 12C11 12.2652 11.1054 12.5196 11.2929 12.7071C11.4804 12.8946 11.7348 13 12 13H22C22.2652 13 22.5196 12.8946 22.7071 12.7071C22.8946 12.5196 23 12.2652 23 12C23 11.7348 22.8946 11.4804 22.7071 11.2929C22.5196 11.1054 22.2652 11 22 11ZM22 16H16C15.7348 16 15.4804 16.1054 15.2929 16.2929C15.1054 16.4804 15 16.7348 15 17C15 17.2652 15.1054 17.5196 15.2929 17.7071C15.4804 17.8946 15.7348 18 16 18H22C22.2652 18 22.5196 17.8946 22.7071 17.7071C22.8946 17.5196 23 17.2652 23 17C23 16.7348 22.8946 16.4804 22.7071 16.2929C22.5196 16.1054 22.2652 16 22 16Z" fill="#111111"/>
</svg>
