<svg width="28" height="20" viewBox="0 0 28 20" fill="none" xmlns="http://www.w3.org/2000/svg">
<g clip-path="url(#clip0_1597_147)">
<path d="M26 0.25H2C1.0335 0.25 0.25 1.0335 0.25 2V18C0.25 18.9665 1.0335 19.75 2 19.75H26C26.9665 19.75 27.75 18.9665 27.75 18V2C27.75 1.0335 26.9665 0.25 26 0.25Z" fill="white" stroke="#F5F5F5" stroke-width="0.5"/>
<mask id="mask0_1597_147" style="mask-type:alpha" maskUnits="userSpaceOnUse" x="0" y="0" width="28" height="20">
<path d="M26 0.25H2C1.0335 0.25 0.25 1.0335 0.25 2V18C0.25 18.9665 1.0335 19.75 2 19.75H26C26.9665 19.75 27.75 18.9665 27.75 18V2C27.75 1.0335 26.9665 0.25 26 0.25Z" fill="white" stroke="white" stroke-width="0.5"/>
</mask>
<g mask="url(#mask0_1597_147)">
<path fill-rule="evenodd" clip-rule="evenodd" d="M0 6.66667H28V0H0V6.66667Z" fill="#04AAC8"/>
<path fill-rule="evenodd" clip-rule="evenodd" d="M0 20H28V13.3333H0V20Z" fill="#23C840"/>
<path fill-rule="evenodd" clip-rule="evenodd" d="M4.66699 5.33325C5.07826 5.33325 5.46055 5.20911 5.77841 4.99625C5.74158 4.99868 5.70443 4.99991 5.66699 4.99991C4.74652 4.99991 4.00033 4.25372 4.00033 3.33325C4.00033 2.41277 4.74652 1.66658 5.66699 1.66658C5.70443 1.66658 5.74159 1.66782 5.77841 1.67025C5.46055 1.45739 5.07826 1.33325 4.66699 1.33325C3.56242 1.33325 2.66699 2.22868 2.66699 3.33325C2.66699 4.43782 3.56242 5.33325 4.66699 5.33325ZM8.00032 4.66658C8.00032 5.03477 7.70184 5.33325 7.33365 5.33325C6.96546 5.33325 6.66699 5.03477 6.66699 4.66658C6.66699 4.29839 6.96546 3.99991 7.33365 3.99991C7.70184 3.99991 8.00032 4.29839 8.00032 4.66658ZM10.0003 2.66658C10.3685 2.66658 10.667 2.3681 10.667 1.99991C10.667 1.63173 10.3685 1.33325 10.0003 1.33325C9.63212 1.33325 9.33365 1.63173 9.33365 1.99991C9.33365 2.3681 9.63212 2.66658 10.0003 2.66658ZM13.3337 1.99991C13.3337 2.3681 13.0352 2.66658 12.667 2.66658C12.2988 2.66658 12.0004 2.3681 12.0004 1.99991C12.0004 1.63173 12.2988 1.33325 12.667 1.33325C13.0352 1.33325 13.3337 1.63173 13.3337 1.99991ZM12.667 5.33325C13.0352 5.33325 13.3337 5.03477 13.3337 4.66658C13.3337 4.29839 13.0352 3.99991 12.667 3.99991C12.2988 3.99991 12.0004 4.29839 12.0004 4.66658C12.0004 5.03477 12.2988 5.33325 12.667 5.33325ZM10.667 4.66658C10.667 5.03477 10.3685 5.33325 10.0003 5.33325C9.63212 5.33325 9.33365 5.03477 9.33365 4.66658C9.33365 4.29839 9.63212 3.99991 10.0003 3.99991C10.3685 3.99991 10.667 4.29839 10.667 4.66658Z" fill="white"/>
</g>
</g>
<defs>
<clipPath id="clip0_1597_147">
<rect width="28" height="20" fill="white"/>
</clipPath>
</defs>
</svg>
