<svg width="45" height="24" viewBox="0 0 45 24" fill="none" xmlns="http://www.w3.org/2000/svg">
<g clip-path="url(#clip0_4591_24241)">
<path fill-rule="evenodd" clip-rule="evenodd" d="M27.2461 6.23351H23.0922V0.374155C23.0922 0.178472 23.2489 0.0175781 23.4395 0.0175781H24.0615C24.063 0.977642 24.4346 1.89847 25.0964 2.57832C25.76 3.25775 26.6569 3.63946 27.5934 3.63946V6.23351H27.2461ZM27.5934 8.30181C27.5934 10.7455 27.0497 12.5665 25.9619 13.7533C24.8745 14.9402 23.1949 15.5321 20.9302 15.5321C18.8133 15.5321 17.2077 14.9402 16.113 13.7533C15.0183 12.5665 14.4717 10.7776 14.4717 8.38485V0.358041C14.4717 0.170948 14.6196 0.0175781 14.8033 0.0175781H18.6409C18.8231 0.0190672 18.9729 0.170948 18.9729 0.358041V8.56039C18.9729 9.53658 19.1493 10.2894 19.5064 10.8184C20.0603 11.5712 21.0511 11.8227 21.8809 11.4219C22.1483 11.2921 22.3834 11.102 22.5686 10.8667C22.9187 10.3683 23.0922 9.63606 23.0922 8.66549V7.1311H27.5934V8.30181Z" fill="#111111"/>
<path fill-rule="evenodd" clip-rule="evenodd" d="M24.9473 0.0175781H27.2463C27.4383 0.0175781 27.5935 0.178472 27.5935 0.374155V2.73773C26.133 2.73773 24.9473 1.52163 24.9473 0.0205482V0.0175781Z" fill="#2F2F2F"/>
<path fill-rule="evenodd" clip-rule="evenodd" d="M2.42183 22.7074C4.05744 22.7074 4.845 21.764 4.845 20.3812V17.0509H3.67761V20.3472C3.67761 22.0865 1.15808 22.0865 1.15808 20.3472V17.0509H0V20.3909C0 21.7554 0.787894 22.7074 2.42183 22.7074ZM11.9059 22.6032V21.565H9.31386L11.8507 17.9981V17.0509H7.81681V18.0926H10.3536L7.81681 21.6464V22.6032H11.9059ZM17.369 22.7074C18.3077 22.7256 19.1777 22.2006 19.6173 21.3384L18.6291 20.8495C18.3865 21.3384 17.901 21.6512 17.364 21.6561C15.8576 21.5797 15.1345 19.7081 16.1743 18.5753C16.485 18.2346 16.9163 18.0307 17.364 18.0077C17.901 18.0176 18.3865 18.3291 18.6291 18.818L19.6173 18.3157C19.1777 17.4583 18.3077 16.9319 17.369 16.9598C15.3502 16.8993 13.9445 19.0219 14.7264 20.9503C15.1754 22.0442 16.2245 22.7404 17.369 22.7074ZM27.3567 22.6032L25.2865 17.0509H23.8586L21.779 22.6032H23.0836L23.4189 21.6646H25.7261L26.0567 22.6032H27.3567ZM25.4107 20.6226H23.7343L24.5727 18.2346L25.4107 20.6226ZM35.0775 24.0004L33.1083 20.4906C33.8314 20.3097 34.3262 19.6135 34.2803 18.8458C34.3169 17.8089 33.4751 16.9698 32.4762 17.0557H29.9627V22.608H31.1071V20.6322H31.9452L33.7636 23.9956L35.0729 24.0004H35.0775ZM32.3074 19.5943H31.1118V18.0974H32.3074C32.7377 18.0455 33.1176 18.391 33.1176 18.8458C33.1176 19.2959 32.7377 19.6462 32.3074 19.5943ZM39.3683 22.608C41.0494 22.608 42.2168 21.5082 42.2168 19.8367C42.2168 18.1593 41.0494 17.0557 39.3683 17.0557H37.2475V22.608H39.3683ZM39.3683 21.565H38.3929V18.0974H39.3683C40.3213 18.0211 41.1172 18.8458 41.0494 19.8367C41.0903 20.812 40.3073 21.6172 39.3636 21.565H39.3683ZM44.9773 16.5649V16.578C44.9773 17.5021 43.901 17.9621 43.2739 17.313C42.6465 16.6594 43.0911 15.5459 43.9797 15.5459H44.9773V16.5649Z" fill="#111111"/>
</g>
<defs>
<clipPath id="clip0_4591_24241">
<rect width="45" height="24" fill="white"/>
</clipPath>
</defs>
</svg>
