<svg width="30" height="30" viewBox="0 0 30 30" fill="none" xmlns="http://www.w3.org/2000/svg">
<path d="M6.875 21.875H5V8.12501H14.75L13.75 9.11251C13.5146 9.34624 13.3817 9.66389 13.3806 9.99559C13.3794 10.3273 13.51 10.6459 13.7437 10.8813C13.9775 11.1166 14.2951 11.2495 14.6268 11.2507C14.9585 11.2519 15.2771 11.1212 15.5125 10.8875L18.6375 7.76251C18.7547 7.64631 18.8477 7.50806 18.9111 7.35573C18.9746 7.20341 19.0072 7.04003 19.0072 6.87501C19.0072 6.71 18.9746 6.54662 18.9111 6.39429C18.8477 6.24197 18.7547 6.10372 18.6375 5.98751L15.5125 2.86251C15.2783 2.6297 14.9615 2.49902 14.6313 2.49902C14.301 2.49902 13.9842 2.6297 13.75 2.86251C13.6328 2.97872 13.5398 3.11697 13.4764 3.26929C13.4129 3.42162 13.3803 3.585 13.3803 3.75001C13.3803 3.91503 13.4129 4.07841 13.4764 4.23073C13.5398 4.38306 13.6328 4.52131 13.75 4.63751L14.7375 5.62501H3.75C3.41848 5.62501 3.10054 5.75671 2.86612 5.99113C2.6317 6.22555 2.5 6.54349 2.5 6.87501V23.125C2.5 23.4565 2.6317 23.7745 2.86612 24.0089C3.10054 24.2433 3.41848 24.375 3.75 24.375H6.875C7.20652 24.375 7.52446 24.2433 7.75888 24.0089C7.9933 23.7745 8.125 23.4565 8.125 23.125C8.125 22.7935 7.9933 22.4755 7.75888 22.2411C7.52446 22.0067 7.20652 21.875 6.875 21.875ZM26.25 5.62501H23.125C22.7935 5.62501 22.4755 5.75671 22.2411 5.99113C22.0067 6.22555 21.875 6.54349 21.875 6.87501C21.875 7.20653 22.0067 7.52448 22.2411 7.7589C22.4755 7.99332 22.7935 8.12501 23.125 8.12501H25V21.875H14.5375L15.525 20.8875C15.6422 20.7713 15.7352 20.6331 15.7986 20.4807C15.8621 20.3284 15.8947 20.165 15.8947 20C15.8947 19.835 15.8621 19.6716 15.7986 19.5193C15.7352 19.367 15.6422 19.2287 15.525 19.1125C15.2908 18.8797 14.974 18.749 14.6438 18.749C14.3135 18.749 13.9967 18.8797 13.7625 19.1125L10.6375 22.2375C10.5203 22.3537 10.4273 22.492 10.3639 22.6443C10.3004 22.7966 10.2678 22.96 10.2678 23.125C10.2678 23.29 10.3004 23.4534 10.3639 23.6057C10.4273 23.7581 10.5203 23.8963 10.6375 24.0125L13.7625 27.1375C13.9979 27.3712 14.3165 27.5019 14.6482 27.5007C14.9799 27.4995 15.2975 27.3666 15.5312 27.1313C15.765 26.8959 15.8956 26.5773 15.8944 26.2456C15.8933 25.9139 15.7604 25.5962 15.525 25.3625L14.5375 24.375H26.25C26.5815 24.375 26.8995 24.2433 27.1339 24.0089C27.3683 23.7745 27.5 23.4565 27.5 23.125V6.87501C27.5 6.54349 27.3683 6.22555 27.1339 5.99113C26.8995 5.75671 26.5815 5.62501 26.25 5.62501Z" fill="#111111"/>
</svg>
