<svg width="24" height="24" viewBox="0 0 24 24" fill="none" xmlns="http://www.w3.org/2000/svg">
<path d="M14.5884 10.6549L10.8925 8.40814C10.6678 8.27174 10.413 8.1999 10.1537 8.19983C9.89429 8.19976 9.63946 8.27146 9.41476 8.40774C9.19007 8.54402 9.00342 8.74007 8.87356 8.97622C8.7437 9.21236 8.67519 9.48028 8.67493 9.75308V14.2466C8.67519 14.5192 8.74363 14.787 8.87337 15.0231C9.00311 15.2591 9.18959 15.4552 9.41411 15.5915C9.63884 15.728 9.89378 15.7998 10.1533 15.7998C10.4128 15.7998 10.6677 15.728 10.8925 15.5915L14.5884 13.3448C14.8124 13.2081 14.9983 13.0119 15.1276 12.7759C15.2569 12.5398 15.3249 12.2722 15.3249 11.9998C15.3249 11.7274 15.2569 11.4598 15.1276 11.2238C14.9983 10.9877 14.8124 10.7916 14.5884 10.6549ZM13.8492 11.9998L10.1533 14.2466V9.75308L13.8492 11.9998Z" fill="#111111"/>
<path d="M18.9091 4.40002H5.09091C4.40376 4.40002 3.74475 4.67306 3.25886 5.15907C2.77297 5.64508 2.5 6.30425 2.5 6.99157V17.0085C2.5 17.6958 2.77297 18.3549 3.25886 18.841C3.74475 19.327 4.40376 19.6 5.09091 19.6H18.9091C19.5962 19.6 20.2552 19.327 20.7411 18.841C21.227 18.3549 21.5 17.6958 21.5 17.0085V6.99157C21.5 6.30425 21.227 5.64508 20.7411 5.15907C20.2552 4.67306 19.5962 4.40002 18.9091 4.40002ZM15.0928 6.12772L19.7727 9.58312L4.22728 6.99157V6.55965L4.48023 6.38074L4.6591 6.12772H9.04735H11.4828H15.0928ZM4.22728 6.99157C4.22728 6.76247 4.31827 6.54274 4.48023 6.38074C4.64219 6.21874 4.86186 6.12772 5.09091 6.12772H9.04735H4.6591L4.48023 6.38074L4.22728 6.55965V6.99157ZM19.7727 17.0085C19.7727 17.2376 19.6817 17.4573 19.5197 17.6193C19.3578 17.7813 19.1381 17.8723 18.9091 17.8723H5.09091C4.86186 17.8723 4.64219 17.7813 4.48023 17.6193C4.31827 17.4573 4.22728 17.2376 4.22728 17.0085V6.99157L19.7727 9.58312V11.3108V17.0085ZM19.7727 9.58312L15.0928 6.12772H18.8313H18.9091C19.1381 6.12772 19.3578 6.21874 19.5197 6.38074C19.6817 6.54274 19.7727 6.76247 19.7727 6.99157V9.58312Z" fill="#111111"/>
</svg>
