<svg width="22" height="22" viewBox="0 0 22 22" fill="none" xmlns="http://www.w3.org/2000/svg">
<path d="M17.8757 11.4584C17.8757 10.1934 18.9023 9.16669 20.1673 9.16669V8.25002C20.1673 4.58335 19.2507 3.66669 15.584 3.66669H6.41732C2.75065 3.66669 1.83398 4.58335 1.83398 8.25002V8.70835C3.09898 8.70835 4.12565 9.73502 4.12565 11C4.12565 12.265 3.09898 13.2917 1.83398 13.2917V13.75C1.83398 17.4167 2.75065 18.3334 6.41732 18.3334H15.584C19.2507 18.3334 20.1673 17.4167 20.1673 13.75C18.9023 13.75 17.8757 12.7234 17.8757 11.4584Z" stroke="#111111" stroke-width="1.5" stroke-linecap="round" stroke-linejoin="round"/>
<path d="M9.16602 3.66669L9.16602 18.3334" stroke="#111111" stroke-width="1.5" stroke-linecap="round" stroke-linejoin="round" stroke-dasharray="5 5"/>
</svg>
