<svg width="36" height="36" viewBox="0 0 36 36" fill="none" xmlns="http://www.w3.org/2000/svg">
<rect width="36" height="36" rx="18" fill="#FAFAFA"/>
<path d="M25.44 18.9999C25.22 18.9999 24.99 18.9299 24.77 18.8799C24.3245 18.7817 23.8866 18.6514 23.46 18.4899C22.9961 18.3211 22.4861 18.3299 22.0283 18.5145C21.5704 18.6991 21.1971 19.0465 20.98 19.4899L20.76 19.9399C19.786 19.398 18.891 18.7251 18.1 17.9399C17.3147 17.1489 16.6418 16.2539 16.1 15.2799L16.52 14.9999C16.9633 14.7828 17.3108 14.4094 17.4954 13.9516C17.68 13.4937 17.6888 12.9838 17.52 12.5199C17.3612 12.0923 17.2309 11.6547 17.13 11.2099C17.08 10.9899 17.04 10.7599 17.01 10.5299C16.8885 9.82549 16.5196 9.18761 15.9696 8.73111C15.4196 8.2746 14.7247 8.02948 14.01 8.03987H11.01C10.579 8.03582 10.1522 8.12468 9.75869 8.3004C9.36515 8.47612 9.01409 8.73456 8.72941 9.05815C8.44473 9.38174 8.23311 9.76286 8.10897 10.1756C7.98482 10.5883 7.95106 11.0229 8.00998 11.4499C8.54272 15.6392 10.456 19.5317 13.4476 22.5125C16.4393 25.4933 20.3387 27.3924 24.53 27.9099H24.91C25.6474 27.9109 26.3594 27.6404 26.91 27.1499C27.2263 26.8669 27.4791 26.52 27.6514 26.1322C27.8238 25.7443 27.9119 25.3243 27.91 24.8999V21.8999C27.8977 21.2053 27.6448 20.5364 27.1943 20.0075C26.7439 19.4786 26.1238 19.1225 25.44 18.9999ZM25.94 24.9999C25.9398 25.1419 25.9094 25.2822 25.8508 25.4115C25.7921 25.5408 25.7066 25.6562 25.6 25.7499C25.4886 25.8469 25.358 25.9193 25.2167 25.9624C25.0754 26.0054 24.9266 26.0182 24.78 25.9999C21.0349 25.5197 17.5562 23.8064 14.8927 21.1302C12.2292 18.454 10.5324 14.9672 10.07 11.2199C10.0541 11.0734 10.068 10.9252 10.111 10.7843C10.1539 10.6433 10.225 10.5126 10.32 10.3999C10.4137 10.2932 10.529 10.2077 10.6584 10.1491C10.7877 10.0905 10.928 10.06 11.07 10.0599H14.07C14.3025 10.0547 14.5296 10.1307 14.7121 10.2749C14.8946 10.4191 15.0212 10.6224 15.07 10.8499C15.11 11.1232 15.16 11.3932 15.22 11.6599C15.3355 12.187 15.4892 12.705 15.68 13.2099L14.28 13.8599C14.1603 13.9148 14.0526 13.9928 13.9631 14.0895C13.8737 14.1861 13.8042 14.2995 13.7586 14.4231C13.7131 14.5466 13.6925 14.678 13.6978 14.8096C13.7032 14.9412 13.7345 15.0704 13.79 15.1899C15.2292 18.2726 17.7072 20.7507 20.79 22.1899C21.0334 22.2899 21.3065 22.2899 21.55 22.1899C21.6747 22.1453 21.7893 22.0763 21.8871 21.9871C21.985 21.8978 22.0641 21.79 22.12 21.6699L22.74 20.2699C23.2569 20.4547 23.7846 20.6084 24.32 20.7299C24.5866 20.7899 24.8566 20.8399 25.13 20.8799C25.3574 20.9287 25.5607 21.0552 25.7049 21.2377C25.8491 21.4202 25.9252 21.6473 25.92 21.8799L25.94 24.9999Z" fill="#DA002B"/>
</svg>
