<svg width="20" height="20" viewBox="0 0 20 20" fill="none" xmlns="http://www.w3.org/2000/svg">
<path fill-rule="evenodd" clip-rule="evenodd" d="M4.23224 4.22409C7.39501 1.06578 12.5364 1.09936 15.7185 4.28148C18.902 7.46497 18.9342 12.6094 15.7718 15.7718C12.6094 18.9343 7.46494 18.902 4.28145 15.7185C2.39491 13.832 1.61587 11.2583 1.95039 8.81769C1.99727 8.47571 2.3125 8.23648 2.65448 8.28335C2.99646 8.33023 3.23569 8.64546 3.18881 8.98744C2.9055 11.0544 3.56485 13.2342 5.16533 14.8346C7.86906 17.5384 12.222 17.5539 14.8879 14.8879C17.5538 12.222 17.5383 7.8691 14.8346 5.16536C12.1323 2.46301 7.78241 2.44616 5.11612 5.10798L5.73921 5.11111C6.08438 5.11284 6.36279 5.39407 6.36106 5.73924C6.35932 6.08441 6.0781 6.36283 5.73293 6.36109L3.61163 6.35043C3.26891 6.34871 2.9915 6.0713 2.98978 5.72858L2.97912 3.60729C2.97739 3.26211 3.2558 2.98089 3.60097 2.97915C3.94615 2.97742 4.22737 3.25583 4.22911 3.601L4.23224 4.22409ZM9.9999 6.0416C10.3451 6.0416 10.6249 6.32142 10.6249 6.6666V9.74105L12.5252 11.6413C12.7693 11.8854 12.7693 12.2811 12.5252 12.5252C12.2811 12.7693 11.8854 12.7693 11.6413 12.5252L9.3749 10.2588V6.6666C9.3749 6.32142 9.65472 6.0416 9.9999 6.0416Z" fill="#2F2F2F"/>
</svg>
