<svg width="30" height="30" viewBox="0 0 30 30" fill="none" xmlns="http://www.w3.org/2000/svg">
<path d="M27.5 13.675C27.487 13.5602 27.4618 13.447 27.425 13.3375V13.225C27.3649 13.0965 27.2847 12.9783 27.1875 12.875L19.6875 5.375C19.5842 5.27777 19.466 5.1976 19.3375 5.1375H19.2125C19.091 5.0725 18.9603 5.02615 18.825 5H6.25C5.25544 5 4.30161 5.39509 3.59835 6.09835C2.89509 6.80161 2.5 7.75544 2.5 8.75V21.25C2.5 22.2446 2.89509 23.1984 3.59835 23.9017C4.30161 24.6049 5.25544 25 6.25 25H23.75C24.7446 25 25.6984 24.6049 26.4017 23.9017C27.1049 23.1984 27.5 22.2446 27.5 21.25V13.75C27.5 13.75 27.5 13.75 27.5 13.675ZM20 9.2625L23.2375 12.5H21.25C20.9185 12.5 20.6005 12.3683 20.3661 12.1339C20.1317 11.8995 20 11.5815 20 11.25V9.2625ZM25 21.25C25 21.5815 24.8683 21.8995 24.6339 22.1339C24.3995 22.3683 24.0815 22.5 23.75 22.5H6.25C5.91848 22.5 5.60054 22.3683 5.36612 22.1339C5.1317 21.8995 5 21.5815 5 21.25V8.75C5 8.41848 5.1317 8.10054 5.36612 7.86612C5.60054 7.6317 5.91848 7.5 6.25 7.5H17.5V11.25C17.5 12.2446 17.8951 13.1984 18.5983 13.9017C19.3016 14.6049 20.2554 15 21.25 15H25V21.25ZM8.75 15H13.75C14.0815 15 14.3995 14.8683 14.6339 14.6339C14.8683 14.3995 15 14.0815 15 13.75C15 13.4185 14.8683 13.1005 14.6339 12.8661C14.3995 12.6317 14.0815 12.5 13.75 12.5H8.75C8.41848 12.5 8.10054 12.6317 7.86612 12.8661C7.6317 13.1005 7.5 13.4185 7.5 13.75C7.5 14.0815 7.6317 14.3995 7.86612 14.6339C8.10054 14.8683 8.41848 15 8.75 15ZM8.75 17.5C8.41848 17.5 8.10054 17.6317 7.86612 17.8661C7.6317 18.1005 7.5 18.4185 7.5 18.75C7.5 19.0815 7.6317 19.3995 7.86612 19.6339C8.10054 19.8683 8.41848 20 8.75 20H21.25C21.5815 20 21.8995 19.8683 22.1339 19.6339C22.3683 19.3995 22.5 19.0815 22.5 18.75C22.5 18.4185 22.3683 18.1005 22.1339 17.8661C21.8995 17.6317 21.5815 17.5 21.25 17.5H8.75Z" fill="#111111"/>
</svg>
