<svg width="70" height="59" viewBox="0 0 70 59" fill="none" xmlns="http://www.w3.org/2000/svg">
<path fill-rule="evenodd" clip-rule="evenodd" d="M8.22007 42.4988C3.98589 35.165 6.49864 25.7872 13.8325 21.5531L36.9265 8.21973C44.2603 3.98555 53.638 6.4983 57.8722 13.8321L71.2055 36.9261C75.4397 44.2599 72.927 53.6377 65.5931 57.8718L42.4991 71.2052C35.1653 75.4394 25.7876 72.9266 21.5534 65.5928L8.22007 42.4988Z" fill="#FFF3E6"/>
<path fill-rule="evenodd" clip-rule="evenodd" d="M43.1586 26.852C44.2256 27.1378 44.8587 28.2345 44.5729 29.3014L38.7165 51.1579C38.4306 52.2248 37.3339 52.8579 36.267 52.5721C35.2 52.2862 34.5669 51.1895 34.8527 50.1226L40.7092 28.2662C40.995 27.1992 42.0917 26.5661 43.1586 26.852Z" fill="#FD8200" fill-opacity="0.8"/>
<path fill-rule="evenodd" clip-rule="evenodd" d="M45.1247 44.2859C43.9465 42.2452 44.6457 39.6357 46.6864 38.4575C48.7272 37.2792 51.3366 37.9785 52.5148 40.0192C53.693 42.0599 52.9938 44.6693 50.9531 45.8476C48.9124 47.0257 46.3029 46.3267 45.1247 44.2859Z" fill="#FD8200" fill-opacity="0.8"/>
<path fill-rule="evenodd" clip-rule="evenodd" d="M26.911 39.406C25.7328 37.3653 26.432 34.7558 28.4727 33.5776C30.5135 32.3994 33.1229 33.0987 34.3011 35.1393C35.4793 37.1801 34.7801 39.7895 32.7394 40.9677C30.6987 42.1459 28.0892 41.4468 26.911 39.406Z" fill="#FD8200" fill-opacity="0.8"/>
</svg>
