<svg width="20" height="20" viewBox="0 0 20 20" fill="none" xmlns="http://www.w3.org/2000/svg">
<g id="Component 1">
<path id="Vector" d="M11.1759 9.9995L14.7593 6.4245C14.9162 6.26758 15.0043 6.05475 15.0043 5.83284C15.0043 5.61092 14.9162 5.39809 14.7593 5.24117C14.6023 5.08425 14.3895 4.99609 14.1676 4.99609C13.9457 4.99609 13.7328 5.08425 13.5759 5.24117L10.0009 8.8245L6.42593 5.24117C6.26901 5.08425 6.05618 4.99609 5.83426 4.99609C5.61234 4.99609 5.39951 5.08425 5.24259 5.24117C5.08567 5.39809 4.99752 5.61092 4.99752 5.83284C4.99752 6.05475 5.08567 6.26758 5.24259 6.4245L8.82593 9.9995L5.24259 13.5745C5.16449 13.652 5.10249 13.7441 5.06018 13.8457C5.01788 13.9472 4.99609 14.0562 4.99609 14.1662C4.99609 14.2762 5.01788 14.3851 5.06018 14.4867C5.10249 14.5882 5.16449 14.6804 5.24259 14.7578C5.32006 14.8359 5.41223 14.8979 5.51378 14.9402C5.61533 14.9826 5.72425 15.0043 5.83426 15.0043C5.94427 15.0043 6.05319 14.9826 6.15474 14.9402C6.25629 14.8979 6.34846 14.8359 6.42593 14.7578L10.0009 11.1745L13.5759 14.7578C13.6534 14.8359 13.7456 14.8979 13.8471 14.9402C13.9487 14.9826 14.0576 15.0043 14.1676 15.0043C14.2776 15.0043 14.3865 14.9826 14.4881 14.9402C14.5896 14.8979 14.6818 14.8359 14.7593 14.7578C14.8374 14.6804 14.8994 14.5882 14.9417 14.4867C14.984 14.3851 15.0058 14.2762 15.0058 14.1662C15.0058 14.0562 14.984 13.9472 14.9417 13.8457C14.8994 13.7441 14.8374 13.652 14.7593 13.5745L11.1759 9.9995Z" fill="#999999"/>
</g>
</svg>
