<svg width="21" height="20" viewBox="0 0 21 20" fill="none" xmlns="http://www.w3.org/2000/svg">
<g id="vuesax/linear/shopping-bag">
<g id="vuesax/linear/shopping-bag_2">
<g id="shopping-bag">
<path id="Vector" d="M4.33301 12.0833L4.70003 8.35832C4.88337 6.74166 5.16669 5.41666 8.00003 5.41666H14C16.8334 5.41666 17.1167 6.74166 17.3084 8.35832L18.0584 14.6083C18.3 16.6583 17.6667 18.3333 14.75 18.3333H6.83333" stroke="#292D32" stroke-linecap="round" stroke-linejoin="round"/>
<path id="Vector_2" d="M7.66663 6.66666V3.74999C7.66663 2.49999 8.49996 1.66666 9.74996 1.66666H12.25C13.5 1.66666 14.3333 2.49999 14.3333 3.74999V6.66666" stroke="#292D32" stroke-linecap="round" stroke-linejoin="round"/>
<path id="Vector_3" d="M18.0084 14.1917H10.5834" stroke="#292D32" stroke-linecap="round" stroke-linejoin="round"/>
</g>
</g>
<path id="Vector_4" d="M7.66667 15.8333C7.66667 16.4583 7.49165 17.05 7.18332 17.55C7.02499 17.8167 6.83332 18.0584 6.60832 18.25C6.58332 18.2834 6.55834 18.3083 6.525 18.3333C5.94167 18.8583 5.175 19.1667 4.33333 19.1667C3.31667 19.1667 2.40831 18.7083 1.80831 17.9916C1.79164 17.9666 1.76669 17.95 1.75002 17.925C1.65002 17.8083 1.55835 17.6834 1.48335 17.55C1.17501 17.05 1 16.4583 1 15.8333C1 14.7833 1.48333 13.8417 2.25 13.2333C2.39167 13.1167 2.54165 13.0167 2.69998 12.9333C3.18331 12.6583 3.74167 12.5 4.33333 12.5C5.16667 12.5 5.91665 12.8 6.49998 13.3083C6.59998 13.3833 6.69166 13.475 6.77499 13.5667C7.32499 14.1667 7.66667 14.9583 7.66667 15.8333Z" stroke="#292D32" stroke-miterlimit="10" stroke-linecap="round" stroke-linejoin="round"/>
<g id="Group">
<path id="Vector_5" d="M5.57475 15.8163H3.09143" stroke="#292D32" stroke-miterlimit="10" stroke-linecap="round" stroke-linejoin="round"/>
<path id="Vector_6" d="M4.33313 14.5996V17.0913" stroke="#292D32" stroke-miterlimit="10" stroke-linecap="round" stroke-linejoin="round"/>
</g>
</g>
</svg>
