<svg width="20" height="20" viewBox="0 0 20 20" fill="none" xmlns="http://www.w3.org/2000/svg">
<path d="M14.167 9.16667H13.3337C13.1126 9.16667 12.9007 9.25446 12.7444 9.41074C12.5881 9.56702 12.5003 9.77899 12.5003 10C12.5003 10.221 12.5881 10.433 12.7444 10.5893C12.9007 10.7455 13.1126 10.8333 13.3337 10.8333H14.167C14.388 10.8333 14.6 10.7455 14.7562 10.5893C14.9125 10.433 15.0003 10.221 15.0003 10C15.0003 9.77899 14.9125 9.56702 14.7562 9.41074C14.6 9.25446 14.388 9.16667 14.167 9.16667ZM14.167 12.5H13.3337C13.1126 12.5 12.9007 12.5878 12.7444 12.7441C12.5881 12.9004 12.5003 13.1123 12.5003 13.3333C12.5003 13.5543 12.5881 13.7663 12.7444 13.9226C12.9007 14.0789 13.1126 14.1667 13.3337 14.1667H14.167C14.388 14.1667 14.6 14.0789 14.7562 13.9226C14.9125 13.7663 15.0003 13.5543 15.0003 13.3333C15.0003 13.1123 14.9125 12.9004 14.7562 12.7441C14.6 12.5878 14.388 12.5 14.167 12.5ZM9.16699 7.5H14.167C14.388 7.5 14.6 7.4122 14.7562 7.25592C14.9125 7.09964 15.0003 6.88768 15.0003 6.66667C15.0003 6.44565 14.9125 6.23369 14.7562 6.07741C14.6 5.92113 14.388 5.83333 14.167 5.83333H9.16699C8.94598 5.83333 8.73402 5.92113 8.57774 6.07741C8.42146 6.23369 8.33366 6.44565 8.33366 6.66667C8.33366 6.88768 8.42146 7.09964 8.57774 7.25592C8.73402 7.4122 8.94598 7.5 9.16699 7.5ZM17.5003 2.5H5.83366C5.61265 2.5 5.40068 2.5878 5.2444 2.74408C5.08812 2.90036 5.00033 3.11232 5.00033 3.33333V5.83333H2.50033C2.27931 5.83333 2.06735 5.92113 1.91107 6.07741C1.75479 6.23369 1.66699 6.44565 1.66699 6.66667V15C1.66699 15.663 1.93038 16.2989 2.39923 16.7678C2.86807 17.2366 3.50395 17.5 4.16699 17.5H15.0003C15.8844 17.5 16.7322 17.1488 17.3573 16.5237C17.9825 15.8986 18.3337 15.0507 18.3337 14.1667V3.33333C18.3337 3.11232 18.2459 2.90036 18.0896 2.74408C17.9333 2.5878 17.7213 2.5 17.5003 2.5ZM5.00033 15C5.00033 15.221 4.91253 15.433 4.75625 15.5893C4.59997 15.7455 4.38801 15.8333 4.16699 15.8333C3.94598 15.8333 3.73402 15.7455 3.57774 15.5893C3.42146 15.433 3.33366 15.221 3.33366 15V7.5H5.00033V15ZM16.667 14.1667C16.667 14.6087 16.4914 15.0326 16.1788 15.3452C15.8663 15.6577 15.4424 15.8333 15.0003 15.8333H6.51699C6.61401 15.5661 6.66474 15.2843 6.66699 15V4.16667H16.667V14.1667ZM9.16699 10.8333H10.0003C10.2213 10.8333 10.4333 10.7455 10.5896 10.5893C10.7459 10.433 10.8337 10.221 10.8337 10C10.8337 9.77899 10.7459 9.56702 10.5896 9.41074C10.4333 9.25446 10.2213 9.16667 10.0003 9.16667H9.16699C8.94598 9.16667 8.73402 9.25446 8.57774 9.41074C8.42146 9.56702 8.33366 9.77899 8.33366 10C8.33366 10.221 8.42146 10.433 8.57774 10.5893C8.73402 10.7455 8.94598 10.8333 9.16699 10.8333ZM9.16699 14.1667H10.0003C10.2213 14.1667 10.4333 14.0789 10.5896 13.9226C10.7459 13.7663 10.8337 13.5543 10.8337 13.3333C10.8337 13.1123 10.7459 12.9004 10.5896 12.7441C10.4333 12.5878 10.2213 12.5 10.0003 12.5H9.16699C8.94598 12.5 8.73402 12.5878 8.57774 12.7441C8.42146 12.9004 8.33366 13.1123 8.33366 13.3333C8.33366 13.5543 8.42146 13.7663 8.57774 13.9226C8.73402 14.0789 8.94598 14.1667 9.16699 14.1667Z" fill="#2676FF"/>
</svg>
