<svg width="20" height="20" viewBox="0 0 20 20" fill="none" xmlns="http://www.w3.org/2000/svg">
<path fill-rule="evenodd" clip-rule="evenodd" d="M8.43841 1.45797C8.83294 1.22098 9.34489 1.34868 9.58189 1.7432C10.8796 3.90341 10.435 6.07996 9.71874 7.48443C11.9141 8.61881 13.5458 10.7861 14.2329 13.5355C14.4263 14.3093 13.947 15.0444 13.2352 15.2517L8.96959 16.6216L8.52673 16.7617C8.24893 16.8497 7.85866 16.9735 7.40883 17.1166C6.50879 17.4031 5.37179 17.7665 4.42046 18.076C3.11237 18.5014 1.84695 17.2442 2.29984 15.9263L3.32989 12.9287L4.447 9.71842L5.11364 7.74691C5.33739 7.08519 5.98285 6.5777 6.75993 6.64105C7.23885 6.68009 7.70389 6.76066 8.15264 6.87992C8.7414 5.8316 9.11326 4.19967 8.15318 2.60145C7.91619 2.20692 8.04389 1.69497 8.43841 1.45797ZM5.69162 11.213L5.13173 12.822L8.81301 14.9214L10.9452 14.2366L5.69162 11.213ZM12.3785 13.1385L6.24378 9.60777L6.68352 8.30729C9.24675 8.54044 11.4034 10.3162 12.3785 13.1385ZM4.57808 14.4249L3.87604 16.4679C3.8757 16.4689 3.87543 16.4697 3.87523 16.4704C3.87642 16.4728 3.87893 16.477 3.88375 16.4819C3.89083 16.489 3.89708 16.4918 3.89921 16.4925C3.90023 16.4923 3.90211 16.4919 3.90498 16.491C4.77477 16.2081 5.7972 15.8808 6.65297 15.6082L4.57808 14.4249ZM4.91689 1.87744C5.2746 1.58786 5.79934 1.64309 6.08892 2.0008L6.096 2.00955C6.30874 2.27234 6.33538 2.62529 6.1927 2.90891C6.53624 2.73248 6.96781 2.81434 7.22043 3.12638L7.2275 3.13512C7.51709 3.49283 7.46187 4.01757 7.10416 4.30716C6.82505 4.53313 6.44423 4.54915 6.15279 4.37535C6.36799 4.72655 6.29475 5.19141 5.96595 5.45758C5.60823 5.74717 5.08349 5.69193 4.79391 5.33422L4.78683 5.32548C4.56475 5.05114 4.54547 4.67856 4.70991 4.38916C4.36288 4.58125 3.91766 4.5028 3.65942 4.18382L3.65235 4.17508C3.36276 3.81736 3.41799 3.29262 3.7757 3.00304C4.04935 2.7815 4.42076 2.76176 4.70985 2.92487C4.51991 2.57829 4.59884 2.13492 4.91689 1.87744ZM5.03849 3.25974C5.17864 3.51547 5.17241 3.8239 5.03175 4.07146C5.29327 3.9267 5.61056 3.93558 5.86156 4.08527C5.70848 3.83545 5.70135 3.52812 5.82833 3.2757C5.57734 3.40461 5.27934 3.39564 5.03849 3.25974ZM16.9649 4.46574C17.0431 4.91928 16.7388 5.35034 16.2852 5.42852C15.6898 5.53116 15.037 5.85315 14.4402 6.27641C13.8453 6.69836 13.3774 7.17003 13.1421 7.4911C12.87 7.86229 12.3485 7.94261 11.9773 7.67051C11.6061 7.39841 11.5258 6.87692 11.7979 6.50573C12.1583 6.01402 12.7645 5.42163 13.476 4.91697C14.1857 4.41361 15.0718 3.94644 16.0021 3.78607C16.4557 3.70789 16.8867 4.01219 16.9649 4.46574ZM15.7376 6.79971C16.0953 6.51013 16.6201 6.56537 16.9096 6.92309L16.9167 6.93183C17.1294 7.19463 17.1561 7.54757 17.0134 7.83119C17.3569 7.65476 17.7885 7.73661 18.0411 8.04864L18.0482 8.05738C18.3378 8.41509 18.2826 8.93983 17.9249 9.22943C17.6458 9.4554 17.2649 9.47143 16.9735 9.29762C17.1887 9.64883 17.1155 10.1137 16.7866 10.3799C16.4289 10.6694 15.9042 10.6142 15.6146 10.2565L15.6075 10.2477C15.3854 9.9734 15.3662 9.60083 15.5306 9.31143C15.1836 9.50353 14.7383 9.42507 14.4801 9.10607L14.473 9.09733C14.1835 8.73961 14.2387 8.21488 14.5964 7.9253C14.8701 7.70377 15.2415 7.68404 15.5306 7.84715C15.3406 7.50056 15.4195 7.05718 15.7376 6.79971ZM15.8592 8.18201C15.9993 8.43775 15.9931 8.74618 15.8524 8.99374C16.114 8.84897 16.4313 8.85786 16.6823 9.00755C16.5292 8.75773 16.5221 8.4504 16.649 8.19798C16.398 8.32689 16.1 8.31791 15.8592 8.18201ZM17.3306 11.3669C18.1151 11.6349 18.8662 12.1702 19.3575 12.9538C19.602 13.3437 19.484 13.858 19.0941 14.1025C18.7042 14.347 18.1899 14.229 17.9454 13.8391C17.6785 13.4135 17.2543 13.1021 16.7919 12.9441C16.321 12.7833 15.8878 12.8058 15.6011 12.936C15.1821 13.1263 14.6881 12.9408 14.4978 12.5218C14.3075 12.1027 14.493 11.6087 14.912 11.4184C15.6696 11.0744 16.5548 11.1019 17.3306 11.3669Z" fill="#F59E0B"/>
</svg>
