<svg width="22" height="22" viewBox="0 0 22 22" fill="none" xmlns="http://www.w3.org/2000/svg">
<path d="M17.3335 13.4681C17.3335 14.6506 18.3052 15.6131 19.4877 15.6131C19.4877 19.0506 18.626 19.9123 15.1885 19.9123H6.59018C3.15268 19.9123 2.29102 19.0506 2.29102 15.6131V15.1915C3.47352 15.1915 4.44518 14.2198 4.44518 13.0373C4.44518 11.8548 3.47352 10.8831 2.29102 10.8831V10.4615C2.30018 7.02396 3.15268 6.16229 6.59018 6.16229H15.1793C18.6168 6.16229 19.4785 7.02396 19.4785 10.4615V11.3231C18.296 11.3231 17.3335 12.2765 17.3335 13.4681Z" stroke="#111111" stroke-width="1.5" stroke-linecap="round" stroke-linejoin="round"/>
<path d="M14.8598 6.16227H6.52734L9.21318 3.47644C11.404 1.2856 12.504 1.2856 14.6948 3.47644L15.2448 4.02644C14.6673 4.60394 14.5298 5.45644 14.8598 6.16227Z" stroke="#111111" stroke-width="1.5" stroke-linecap="round" stroke-linejoin="round"/>
<path d="M9.05469 6.16241L9.05469 19.9124" stroke="#111111" stroke-width="1.5" stroke-linecap="round" stroke-linejoin="round" stroke-dasharray="5 5"/>
</svg>
