<svg width="32" height="32" viewBox="0 0 32 32" fill="none" xmlns="http://www.w3.org/2000/svg">
<rect x="32" y="32" width="32" height="32" rx="16" transform="rotate(-180 32 32)" fill="#DA002B"/>
<path d="M11.0001 17.8303C11.1874 18.0166 11.4409 18.1211 11.7051 18.1211C11.9692 18.1211 12.2227 18.0166 12.4101 17.8303L16.0001 14.2903L19.5401 17.8303C19.7274 18.0166 19.9809 18.1211 20.2451 18.1211C20.5092 18.1211 20.7627 18.0166 20.9501 17.8303C21.0438 17.7373 21.1182 17.6267 21.1689 17.5049C21.2197 17.383 21.2458 17.2523 21.2458 17.1203C21.2458 16.9883 21.2197 16.8576 21.1689 16.7357C21.1182 16.6139 21.0438 16.5033 20.9501 16.4103L16.7101 12.1703C16.6171 12.0766 16.5065 12.0022 16.3846 11.9514C16.2628 11.9006 16.1321 11.8745 16.0001 11.8745C15.868 11.8745 15.7373 11.9006 15.6155 11.9514C15.4936 12.0022 15.383 12.0766 15.2901 12.1703L11.0001 16.4103C10.9063 16.5033 10.8319 16.6139 10.7812 16.7357C10.7304 16.8576 10.7043 16.9883 10.7043 17.1203C10.7043 17.2523 10.7304 17.383 10.7812 17.5049C10.8319 17.6267 10.9063 17.7373 11.0001 17.8303Z" fill="white"/>
</svg>
