<svg width="25" height="24" viewBox="0 0 25 24" fill="none" xmlns="http://www.w3.org/2000/svg">
<path d="M14.5 11C14.5 10.4477 14.9477 10 15.5 10C16.0523 10 16.5 10.4477 16.5 11V13C16.5 13.5523 16.0523 14 15.5 14C14.9477 14 14.5 13.5523 14.5 13V11Z" fill="#2F2F2F" stroke="#2F2F2F" stroke-width="1.5"/>
<path d="M14.5079 19.0029L13.7579 19.0007V19.0007L14.5079 19.0029ZM14.5137 17L15.2637 17.0022V17H14.5137ZM3.64958 18.8284L3.11991 19.3594H3.11991L3.64958 18.8284ZM3.64958 5.17157L3.11991 4.64058L3.11991 4.64058L3.64958 5.17157ZM3.45308 10.2537L3.08741 10.9085H3.08741L3.45308 10.2537ZM2.51058 8.98947L1.76124 8.95797L2.51058 8.98947ZM3.45308 13.7463L3.08741 13.0915L3.08741 13.0915L3.45308 13.7463ZM2.51058 15.0105L3.25992 14.979L2.51058 15.0105ZM21.5469 10.2537L21.9126 10.9085L21.5469 10.2537ZM22.4894 8.98947L23.2388 8.95797V8.95797L22.4894 8.98947ZM21.3504 5.17157L21.8801 4.64058L21.8801 4.64058L21.3504 5.17157ZM21.5469 13.7463L21.1812 14.4012V14.4012L21.5469 13.7463ZM22.4894 15.0105L23.2388 15.042V15.042L22.4894 15.0105ZM21.3504 18.8284L21.8801 19.3594L21.8801 19.3594L21.3504 18.8284ZM22.4437 14.332L23.0981 13.9656L23.0981 13.9656L22.4437 14.332ZM22.4437 9.66803L23.0981 10.0344L23.0981 10.0344L22.4437 9.66803ZM2.55634 14.332L1.9019 13.9656L1.9019 13.9656L2.55634 14.332ZM2.55634 9.66802L3.21079 9.30168L3.21078 9.30168L2.55634 9.66802ZM14.5137 7H15.2637L15.2637 6.99782L14.5137 7ZM14.5064 4.49855L13.7564 4.50073V4.50073L14.5064 4.49855ZM17.0278 4.0189L17.0471 3.26915L17.0278 4.0189ZM17.5336 19.9642L17.5653 20.7135H17.5653L17.5336 19.9642ZM14.3595 19.8541L13.8299 19.323L13.8299 19.323L14.3595 19.8541ZM15.2579 19.0051L15.2637 17.0022L13.7637 16.9978L13.7579 19.0007L15.2579 19.0051ZM15.5162 16.75C15.6574 16.75 15.7687 16.8637 15.7687 17H17.2687C17.2687 16.0317 16.4823 15.25 15.5162 15.25V16.75ZM15.5162 15.25C14.5501 15.25 13.7637 16.0317 13.7637 17H15.2637C15.2637 16.8637 15.375 16.75 15.5162 16.75V15.25ZM10.495 4.75H14.0052V3.25H10.495V4.75ZM13.5079 19.25H10.495V20.75H13.5079V19.25ZM10.495 19.25C8.58355 19.25 7.22521 19.2484 6.19469 19.1102C5.18554 18.9749 4.60384 18.721 4.17925 18.2974L3.11991 19.3594C3.8698 20.1074 4.82051 20.4393 5.9953 20.5969C7.14871 20.7516 8.62585 20.75 10.495 20.75V19.25ZM10.495 3.25C8.62585 3.25 7.14871 3.24841 5.9953 3.4031C4.82051 3.56066 3.8698 3.89255 3.11991 4.64058L4.17925 5.70256C4.60384 5.27902 5.18554 5.02513 6.19469 4.88979C7.22521 4.75159 8.58355 4.75 10.495 4.75V3.25ZM3.08741 10.9085C3.47311 11.1239 3.73007 11.533 3.73007 12H5.23007C5.23007 10.9664 4.6586 10.0678 3.81876 9.59884L3.08741 10.9085ZM3.25992 9.02097C3.33795 7.16494 3.59146 6.28889 4.17925 5.70256L3.11991 4.64058C2.09036 5.66758 1.84012 7.08185 1.76124 8.95797L3.25992 9.02097ZM3.73007 12C3.73007 12.467 3.47311 12.8761 3.08741 13.0915L3.81876 14.4012C4.6586 13.9322 5.23007 13.0336 5.23007 12H3.73007ZM1.76124 15.042C1.84012 16.9182 2.09036 18.3324 3.11991 19.3594L4.17925 18.2974C3.59146 17.7111 3.33795 16.8351 3.25992 14.979L1.76124 15.042ZM21.2699 12C21.2699 11.533 21.5269 11.1239 21.9126 10.9085L21.1812 9.59884C20.3414 10.0678 19.7699 10.9664 19.7699 12H21.2699ZM23.2388 8.95797C23.1599 7.08185 22.9096 5.66758 21.8801 4.64058L20.8207 5.70256C21.4085 6.28889 21.6621 7.16494 21.7401 9.02097L23.2388 8.95797ZM21.9126 13.0915C21.5269 12.8761 21.2699 12.467 21.2699 12H19.7699C19.7699 13.0336 20.3414 13.9322 21.1812 14.4012L21.9126 13.0915ZM21.7401 14.979C21.6621 16.8351 21.4085 17.7111 20.8207 18.2974L21.8801 19.3594C22.9096 18.3324 23.1599 16.9182 23.2388 15.042L21.7401 14.979ZM21.1812 14.4012C21.4652 14.5597 21.6507 14.6636 21.7761 14.7427C21.8379 14.7817 21.8653 14.8024 21.8735 14.8093C21.888 14.8213 21.8375 14.7846 21.7892 14.6983L23.0981 13.9656C23.0153 13.8177 22.9043 13.7154 22.8304 13.6542C22.7503 13.5878 22.6613 13.5276 22.5764 13.4741C22.4087 13.3683 22.1804 13.2411 21.9126 13.0915L21.1812 14.4012ZM23.2388 15.042C23.246 14.8706 23.2541 14.6937 23.2476 14.5458C23.241 14.3959 23.2178 14.1795 23.0981 13.9656L21.7892 14.6983C21.7386 14.6079 21.7461 14.5457 21.749 14.6117C21.7503 14.6404 21.7505 14.6822 21.7488 14.7464C21.7472 14.8104 21.744 14.8847 21.7401 14.979L23.2388 15.042ZM21.9126 10.9085C22.1804 10.7589 22.4087 10.6317 22.5764 10.5259C22.6613 10.4724 22.7503 10.4122 22.8304 10.3458C22.9043 10.2846 23.0153 10.1823 23.0981 10.0344L21.7892 9.30168C21.8375 9.21543 21.888 9.17871 21.8735 9.19072C21.8653 9.19756 21.8379 9.21832 21.7761 9.25725C21.6507 9.33637 21.4652 9.44028 21.1812 9.59884L21.9126 10.9085ZM21.7401 9.02097C21.744 9.11528 21.7472 9.18961 21.7488 9.25357C21.7505 9.31779 21.7503 9.35964 21.749 9.38827C21.7461 9.45428 21.7386 9.39206 21.7892 9.30169L23.0981 10.0344C23.2178 9.82054 23.241 9.60408 23.2476 9.45419C23.2541 9.30634 23.246 9.12945 23.2388 8.95797L21.7401 9.02097ZM3.08741 13.0915C2.81959 13.2411 2.5913 13.3683 2.42358 13.4741C2.33872 13.5276 2.24971 13.5878 2.16957 13.6542C2.09566 13.7154 1.98474 13.8177 1.9019 13.9656L3.21078 14.6983C3.1625 14.7846 3.11198 14.8213 3.12648 14.8093C3.13474 14.8024 3.16215 14.7817 3.22387 14.7427C3.34929 14.6636 3.53482 14.5597 3.81876 14.4012L3.08741 13.0915ZM3.25992 14.979C3.25595 14.8847 3.25285 14.8104 3.2512 14.7464C3.24954 14.6822 3.24973 14.6404 3.25099 14.6117C3.25389 14.5457 3.26137 14.6079 3.21078 14.6983L1.9019 13.9656C1.78221 14.1795 1.75903 14.3959 1.75244 14.5458C1.74593 14.6937 1.75403 14.8706 1.76124 15.042L3.25992 14.979ZM3.81876 9.59884C3.53482 9.44028 3.34929 9.33637 3.22386 9.25725C3.16214 9.21832 3.13474 9.19756 3.12648 9.19072C3.11198 9.17871 3.16251 9.21543 3.21079 9.30168L1.9019 10.0344C1.98473 10.1823 2.09565 10.2846 2.16956 10.3458C2.24971 10.4122 2.33872 10.4724 2.42357 10.5259C2.5913 10.6317 2.81959 10.7589 3.08741 10.9085L3.81876 9.59884ZM1.76124 8.95797C1.75403 9.12945 1.74593 9.30634 1.75244 9.45419C1.75903 9.60408 1.78221 9.82054 1.9019 10.0344L3.21078 9.30168C3.26137 9.39206 3.25389 9.45428 3.25099 9.38827C3.24973 9.35964 3.24954 9.31779 3.2512 9.25357C3.25285 9.18961 3.25595 9.11528 3.25992 9.02097L1.76124 8.95797ZM15.2637 6.99782L15.2564 4.49637L13.7564 4.50073L13.7637 7.00218L15.2637 6.99782ZM15.5162 7.25C15.375 7.25 15.2637 7.13631 15.2637 7H13.7637C13.7637 7.96826 14.5501 8.75 15.5162 8.75V7.25ZM15.7687 7C15.7687 7.13631 15.6574 7.25 15.5162 7.25V8.75C16.4823 8.75 17.2687 7.96826 17.2687 7H15.7687ZM15.7687 4.51618V7H17.2687V4.51618H15.7687ZM17.0084 4.76865C19.1966 4.82509 20.1778 5.06124 20.8208 5.70256L21.8801 4.64058C20.7676 3.53084 19.1939 3.32452 17.0471 3.26915L17.0084 4.76865ZM17.2687 4.51618C17.2687 4.656 17.1534 4.77239 17.0084 4.76865L17.0471 3.26915C16.3429 3.25099 15.7687 3.81835 15.7687 4.51618H17.2687ZM14.0052 4.75C13.8698 4.75 13.7568 4.64027 13.7564 4.50073L15.2564 4.49637C15.2544 3.80569 14.6931 3.25 14.0052 3.25V4.75ZM17.5653 20.7135C19.4399 20.6343 20.853 20.384 21.8801 19.3594L20.8208 18.2974C20.2336 18.8831 19.3563 19.1365 17.502 19.2148L17.5653 20.7135ZM15.7687 17V18.9765H17.2687V17H15.7687ZM13.7579 19.0007C13.7575 19.121 13.7572 19.2136 13.755 19.2926C13.7528 19.3721 13.749 19.4192 13.745 19.4481C13.7411 19.4764 13.7396 19.4669 13.7513 19.4387C13.7654 19.4045 13.7911 19.3617 13.8299 19.323L14.889 20.3852C15.1246 20.1502 15.201 19.8709 15.2311 19.6521C15.2582 19.4548 15.2573 19.219 15.2579 19.0051L13.7579 19.0007ZM13.5079 20.75C13.7218 20.75 13.9576 20.7516 14.1549 20.7251C14.3739 20.6957 14.6534 20.6201 14.889 20.3852L13.8299 19.323C13.8687 19.2843 13.9116 19.2587 13.9458 19.2447C13.9741 19.2331 13.9836 19.2346 13.9553 19.2384C13.9264 19.2423 13.8792 19.246 13.7998 19.248C13.7208 19.25 13.6282 19.25 13.5079 19.25V20.75ZM17.502 19.2148C17.3812 19.2199 17.2889 19.2238 17.2101 19.225C17.131 19.2262 17.0849 19.2244 17.0575 19.2217C17.0309 19.2191 17.0426 19.2175 17.0734 19.2292C17.1103 19.2433 17.1536 19.2685 17.1917 19.305L16.1536 20.3878C16.3978 20.6219 16.683 20.6921 16.9108 20.7145C17.1127 20.7344 17.3518 20.7225 17.5653 20.7135L17.502 19.2148ZM15.7687 18.9765C15.7687 19.1953 15.767 19.4374 15.795 19.6397C15.8263 19.8655 15.907 20.1514 16.1536 20.3878L17.1917 19.305C17.2313 19.343 17.2584 19.3863 17.2737 19.4221C17.2863 19.4516 17.2848 19.4622 17.2808 19.4337C17.2768 19.4046 17.2729 19.3566 17.2708 19.2753C17.2687 19.1945 17.2687 19.0997 17.2687 18.9765H15.7687Z" fill="#2F2F2F"/>
</svg>
