<svg width="25" height="24" viewBox="0 0 25 24" fill="none" xmlns="http://www.w3.org/2000/svg">
<path fill-rule="evenodd" clip-rule="evenodd" d="M6.5 12.4883C6.91421 12.4883 7.25 12.8241 7.25 13.2383L7.25 19.2383C7.25 19.6525 6.91421 19.9883 6.5 19.9883C6.08579 19.9883 5.75 19.6525 5.75 19.2383L5.75 13.2383C5.75 12.8241 6.08579 12.4883 6.5 12.4883Z" fill="#2F2F2F"/>
<path fill-rule="evenodd" clip-rule="evenodd" d="M10.5 4.48828C10.9142 4.48828 11.25 4.82407 11.25 5.23828L11.25 19.2383C11.25 19.6525 10.9142 19.9883 10.5 19.9883C10.0858 19.9883 9.75 19.6525 9.75 19.2383L9.75 5.23828C9.75 4.82407 10.0858 4.48828 10.5 4.48828Z" fill="#2F2F2F"/>
<path fill-rule="evenodd" clip-rule="evenodd" d="M14.5 9.48828C14.9142 9.48828 15.25 9.82407 15.25 10.2383L15.25 19.2383C15.25 19.6525 14.9142 19.9883 14.5 19.9883C14.0858 19.9883 13.75 19.6525 13.75 19.2383L13.75 10.2383C13.75 9.82407 14.0858 9.48828 14.5 9.48828Z" fill="#2F2F2F"/>
<path fill-rule="evenodd" clip-rule="evenodd" d="M18.5 6.48828C18.9142 6.48828 19.25 6.82407 19.25 7.23828L19.25 19.2383C19.25 19.6525 18.9142 19.9883 18.5 19.9883C18.0858 19.9883 17.75 19.6525 17.75 19.2383L17.75 7.23828C17.75 6.82407 18.0858 6.48828 18.5 6.48828Z" fill="#2F2F2F"/>
</svg>
