<svg width="28" height="31" viewBox="0 0 28 31" fill="none" xmlns="http://www.w3.org/2000/svg">
<g filter="url(#filter0_ii_2522_33033)">
<rect width="28" height="28" rx="8" fill="url(#paint0_linear_2522_33033)"/>
<rect width="28" height="28" rx="8" fill="url(#paint1_linear_2522_33033)" fill-opacity="0.2" style="mix-blend-mode:soft-light"/>
<g filter="url(#filter1_dii_2522_33033)">
<path d="M14.0001 22.3337C10.0717 22.3337 8.10752 22.3337 6.88714 21.1133C5.66675 19.8929 5.66675 17.9287 5.66675 14.0003C5.66675 10.072 5.66675 8.10777 6.88714 6.88738C8.10752 5.66699 10.0717 5.66699 14.0001 5.66699C17.9285 5.66699 19.8926 5.66699 21.113 6.88738C22.3334 8.10777 22.3334 10.072 22.3334 14.0003C22.3334 17.9287 22.3334 19.8929 21.113 21.1133C19.8926 22.3337 17.9285 22.3337 14.0001 22.3337Z" fill="white"/>
</g>
<g filter="url(#filter2_dii_2522_33033)">
<path d="M9.83325 15.875C10.1784 15.875 10.4583 16.1548 10.4583 16.5V19C10.4583 19.3452 10.1784 19.625 9.83325 19.625C9.48807 19.625 9.20825 19.3452 9.20825 19V16.5C9.20825 16.1548 9.48807 15.875 9.83325 15.875Z" fill="#FF8E8E"/>
<path d="M13.9999 13.375C14.3451 13.375 14.6249 13.6548 14.6249 14V19C14.6249 19.3452 14.3451 19.625 13.9999 19.625C13.6547 19.625 13.3749 19.3452 13.3749 19V14C13.3749 13.6548 13.6547 13.375 13.9999 13.375Z" fill="#FF8E8E"/>
<path d="M18.1666 10.875C18.5118 10.875 18.7916 11.1548 18.7916 11.5V19C18.7916 19.3452 18.5118 19.625 18.1666 19.625C17.8214 19.625 17.5416 19.3452 17.5416 19V11.5C17.5416 11.1548 17.8214 10.875 18.1666 10.875Z" fill="#FF8E8E"/>
</g>
</g>
<defs>
<filter id="filter0_ii_2522_33033" x="-0.218519" y="-0.218519" width="28.437" height="28.437" filterUnits="userSpaceOnUse" color-interpolation-filters="sRGB">
<feFlood flood-opacity="0" result="BackgroundImageFix"/>
<feBlend mode="normal" in="SourceGraphic" in2="BackgroundImageFix" result="shape"/>
<feColorMatrix in="SourceAlpha" type="matrix" values="0 0 0 0 0 0 0 0 0 0 0 0 0 0 0 0 0 0 127 0" result="hardAlpha"/>
<feOffset dx="0.218519" dy="0.218519"/>
<feGaussianBlur stdDeviation="0.10926"/>
<feComposite in2="hardAlpha" operator="arithmetic" k2="-1" k3="1"/>
<feColorMatrix type="matrix" values="0 0 0 0 1 0 0 0 0 1 0 0 0 0 1 0 0 0 0.2 0"/>
<feBlend mode="normal" in2="shape" result="effect1_innerShadow_2522_33033"/>
<feColorMatrix in="SourceAlpha" type="matrix" values="0 0 0 0 0 0 0 0 0 0 0 0 0 0 0 0 0 0 127 0" result="hardAlpha"/>
<feOffset dx="-0.218519" dy="-0.218519"/>
<feGaussianBlur stdDeviation="0.10926"/>
<feComposite in2="hardAlpha" operator="arithmetic" k2="-1" k3="1"/>
<feColorMatrix type="matrix" values="0 0 0 0 0 0 0 0 0 0 0 0 0 0 0 0 0 0 0.05 0"/>
<feBlend mode="normal" in2="effect1_innerShadow_2522_33033" result="effect2_innerShadow_2522_33033"/>
</filter>
<filter id="filter1_dii_2522_33033" x="0.378578" y="3.26328" width="27.2431" height="27.2433" filterUnits="userSpaceOnUse" color-interpolation-filters="sRGB">
<feFlood flood-opacity="0" result="BackgroundImageFix"/>
<feColorMatrix in="SourceAlpha" type="matrix" values="0 0 0 0 0 0 0 0 0 0 0 0 0 0 0 0 0 0 127 0" result="hardAlpha"/>
<feOffset dy="2.88446"/>
<feGaussianBlur stdDeviation="2.64408"/>
<feColorMatrix type="matrix" values="0 0 0 0 0.816667 0 0 0 0 0.172112 0 0 0 0 0.030625 0 0 0 0.25 0"/>
<feBlend mode="normal" in2="BackgroundImageFix" result="effect1_dropShadow_2522_33033"/>
<feBlend mode="normal" in="SourceGraphic" in2="effect1_dropShadow_2522_33033" result="shape"/>
<feColorMatrix in="SourceAlpha" type="matrix" values="0 0 0 0 0 0 0 0 0 0 0 0 0 0 0 0 0 0 127 0" result="hardAlpha"/>
<feOffset dy="-1.92297"/>
<feGaussianBlur stdDeviation="1.20186"/>
<feComposite in2="hardAlpha" operator="arithmetic" k2="-1" k3="1"/>
<feColorMatrix type="matrix" values="0 0 0 0 1 0 0 0 0 0.78 0 0 0 0 0 0 0 0 0.29 0"/>
<feBlend mode="normal" in2="shape" result="effect2_innerShadow_2522_33033"/>
<feColorMatrix in="SourceAlpha" type="matrix" values="0 0 0 0 0 0 0 0 0 0 0 0 0 0 0 0 0 0 127 0" result="hardAlpha"/>
<feOffset dy="-0.721114"/>
<feGaussianBlur stdDeviation="0.480743"/>
<feComposite in2="hardAlpha" operator="arithmetic" k2="-1" k3="1"/>
<feColorMatrix type="matrix" values="0 0 0 0 1 0 0 0 0 1 0 0 0 0 1 0 0 0 0.75 0"/>
<feBlend mode="normal" in2="effect2_innerShadow_2522_33033" result="effect3_innerShadow_2522_33033"/>
</filter>
<filter id="filter2_dii_2522_33033" x="7.17927" y="10.0634" width="13.6412" height="12.808" filterUnits="userSpaceOnUse" color-interpolation-filters="sRGB">
<feFlood flood-opacity="0" result="BackgroundImageFix"/>
<feColorMatrix in="SourceAlpha" type="matrix" values="0 0 0 0 0 0 0 0 0 0 0 0 0 0 0 0 0 0 127 0" result="hardAlpha"/>
<feOffset dy="1.21739"/>
<feGaussianBlur stdDeviation="1.01449"/>
<feColorMatrix type="matrix" values="0 0 0 0 0.8625 0 0 0 0 0 0 0 0 0 0 0 0 0 0.25 0"/>
<feBlend mode="normal" in2="BackgroundImageFix" result="effect1_dropShadow_2522_33033"/>
<feBlend mode="normal" in="SourceGraphic" in2="effect1_dropShadow_2522_33033" result="shape"/>
<feColorMatrix in="SourceAlpha" type="matrix" values="0 0 0 0 0 0 0 0 0 0 0 0 0 0 0 0 0 0 127 0" result="hardAlpha"/>
<feOffset dy="-0.608696"/>
<feGaussianBlur stdDeviation="0.405797"/>
<feComposite in2="hardAlpha" operator="arithmetic" k2="-1" k3="1"/>
<feColorMatrix type="matrix" values="0 0 0 0 0.925 0 0 0 0 0.320667 0 0 0 0 0.0616667 0 0 0 0.35 0"/>
<feBlend mode="normal" in2="shape" result="effect2_innerShadow_2522_33033"/>
<feColorMatrix in="SourceAlpha" type="matrix" values="0 0 0 0 0 0 0 0 0 0 0 0 0 0 0 0 0 0 127 0" result="hardAlpha"/>
<feOffset dy="-0.202899"/>
<feGaussianBlur stdDeviation="0.202899"/>
<feComposite in2="hardAlpha" operator="arithmetic" k2="-1" k3="1"/>
<feColorMatrix type="matrix" values="0 0 0 0 1 0 0 0 0 1 0 0 0 0 1 0 0 0 0.75 0"/>
<feBlend mode="normal" in2="effect2_innerShadow_2522_33033" result="effect3_innerShadow_2522_33033"/>
</filter>
<linearGradient id="paint0_linear_2522_33033" x1="14" y1="0" x2="14" y2="28" gradientUnits="userSpaceOnUse">
<stop stop-color="#FADB7E"/>
<stop offset="1" stop-color="#FADB7E"/>
</linearGradient>
<linearGradient id="paint1_linear_2522_33033" x1="14" y1="0" x2="14" y2="28" gradientUnits="userSpaceOnUse">
<stop offset="0.328125" stop-color="white"/>
<stop offset="1" stop-opacity="0.1"/>
</linearGradient>
</defs>
</svg>
