<svg width="48" height="48" viewBox="0 0 48 48" fill="none" xmlns="http://www.w3.org/2000/svg">
<rect width="48" height="48" rx="8" fill="#1F3E79"/>
<g clip-path="url(#clip0_667_4958)">
<path fill-rule="evenodd" clip-rule="evenodd" d="M33.8954 18.3071H27.4656V9.55784C27.4656 9.26564 27.7081 9.02539 28.0031 9.02539H28.966C28.9683 10.459 29.5436 11.834 30.568 12.8491C31.5952 13.8637 32.9834 14.4336 34.433 14.4336V18.3071H33.8954ZM34.433 21.3955C34.433 25.0444 33.5915 27.7637 31.9076 29.5358C30.2244 31.308 27.6247 32.1919 24.119 32.1919C20.8422 32.1919 18.357 31.308 16.6624 29.5358C14.968 27.7637 14.1218 25.0924 14.1218 21.5195V9.53377C14.1218 9.2544 14.3508 9.02539 14.6351 9.02539H20.5754C20.8574 9.02761 21.0893 9.2544 21.0893 9.53377V21.7816C21.0893 23.2393 21.3624 24.3634 21.9151 25.1534C22.7725 26.2775 24.3062 26.653 25.5906 26.0545C26.0046 25.8607 26.3685 25.5769 26.6551 25.2254C27.1971 24.4812 27.4656 23.3878 27.4656 21.9386V19.6474H34.433V21.3955Z" fill="white"/>
<path fill-rule="evenodd" clip-rule="evenodd" d="M30.3376 9.02539H33.8963C34.1935 9.02539 34.4338 9.26564 34.4338 9.55784V13.0872C32.1731 13.0872 30.3376 11.2713 30.3376 9.02983V9.02539Z" fill="#F4821F"/>
<path fill-rule="evenodd" clip-rule="evenodd" d="M15.2871 38.0147C16.0741 38.0147 16.4531 37.5801 16.4531 36.9432V35.409H15.8914V36.9275C15.8914 37.7287 14.6791 37.7287 14.6791 36.9275V35.409H14.1218V36.9476C14.1218 37.5762 14.5009 38.0147 15.2871 38.0147ZM19.8506 37.9667V37.4884H18.6034L19.824 35.8453V35.409H17.883V35.8889H19.1037L17.883 37.526V37.9667H19.8506ZM22.4792 38.0147C22.9309 38.0231 23.3495 37.7813 23.5611 37.3841L23.0856 37.1589C22.9688 37.3841 22.7352 37.5282 22.4768 37.5304C21.752 37.4952 21.4041 36.6331 21.9044 36.1112C22.0539 35.9543 22.2615 35.8604 22.4768 35.8498C22.7352 35.8543 22.9688 35.9978 23.0856 36.223L23.5611 35.9916C23.3495 35.5967 22.9309 35.3542 22.4792 35.367C21.5079 35.3392 20.8315 36.317 21.2077 37.2053C21.4238 37.7092 21.9285 38.0299 22.4792 38.0147ZM27.2851 37.9667L26.2889 35.409H25.6018L24.6012 37.9667H25.2289L25.3903 37.5344H26.5004L26.6595 37.9667H27.2851ZM26.3487 37.0543H25.542L25.9454 35.9543L26.3487 37.0543ZM31.0001 38.6103L30.0525 36.9935C30.4004 36.9102 30.6385 36.5895 30.6165 36.2359C30.6341 35.7582 30.229 35.3716 29.7484 35.4112H28.5389V37.9689H29.0896V37.0588H29.4929L30.3678 38.6081L30.9978 38.6103H31.0001ZM29.6672 36.5806H29.0919V35.8911H29.6672C29.8742 35.8672 30.057 36.0263 30.057 36.2359C30.057 36.4432 29.8742 36.6046 29.6672 36.5806ZM33.0646 37.9689C33.8735 37.9689 34.4352 37.4623 34.4352 36.6923C34.4352 35.9196 33.8735 35.4112 33.0646 35.4112H32.0442V37.9689H33.0646ZM33.0646 37.4884H32.5953V35.8911H33.0646C33.5232 35.8559 33.9061 36.2359 33.8735 36.6923C33.8932 37.1416 33.5165 37.5125 33.0624 37.4884H33.0646ZM35.1026 35.361V35.367C35.1026 35.7927 34.5848 36.0046 34.283 35.7056C33.9811 35.4046 34.1951 34.8916 34.6227 34.8916H35.1026V35.361Z" fill="white"/>
</g>
<defs>
<clipPath id="clip0_667_4958">
<rect width="21" height="29.6471" fill="white" transform="translate(14 9)"/>
</clipPath>
</defs>
</svg>
