<svg width="32" height="32" viewBox="0 0 32 32" fill="none" xmlns="http://www.w3.org/2000/svg">
<path d="M20.6665 15.3327H16.6665V11.3327C16.6665 11.1559 16.5963 10.9863 16.4712 10.8613C16.3462 10.7363 16.1766 10.666 15.9998 10.666C15.823 10.666 15.6535 10.7363 15.5284 10.8613C15.4034 10.9863 15.3332 11.1559 15.3332 11.3327V15.3327H11.3332C11.1564 15.3327 10.9868 15.4029 10.8618 15.5279C10.7367 15.653 10.6665 15.8225 10.6665 15.9993C10.6665 16.1762 10.7367 16.3457 10.8618 16.4708C10.9868 16.5958 11.1564 16.666 11.3332 16.666H15.3332V20.666C15.3332 20.8428 15.4034 21.0124 15.5284 21.1374C15.6535 21.2624 15.823 21.3327 15.9998 21.3327C16.1766 21.3327 16.3462 21.2624 16.4712 21.1374C16.5963 21.0124 16.6665 20.8428 16.6665 20.666V16.666H20.6665C20.8433 16.666 21.0129 16.5958 21.1379 16.4708C21.2629 16.3457 21.3332 16.1762 21.3332 15.9993C21.3332 15.8225 21.2629 15.653 21.1379 15.5279C21.0129 15.4029 20.8433 15.3327 20.6665 15.3327Z" fill="#2F2F2F"/>
<rect x="0.5" y="0.5" width="31" height="31" rx="15.5" stroke="#2F2F2F" stroke-linecap="round"/>
</svg>
