<svg width="25" height="24" viewBox="0 0 25 24" fill="none" xmlns="http://www.w3.org/2000/svg">
<path d="M22.42 6.62C22.3185 6.37565 22.1243 6.18147 21.88 6.08C21.7598 6.02876 21.6307 6.00158 21.5 6H16.5C16.2348 6 15.9804 6.10536 15.7929 6.29289C15.6054 6.48043 15.5 6.73478 15.5 7C15.5 7.26522 15.6054 7.51957 15.7929 7.70711C15.9804 7.89464 16.2348 8 16.5 8H19.09L13.5 13.59L10.21 10.29C10.117 10.1963 10.0064 10.1219 9.88458 10.0711C9.76272 10.0203 9.63201 9.9942 9.5 9.9942C9.36799 9.9942 9.23728 10.0203 9.11542 10.0711C8.99356 10.1219 8.88296 10.1963 8.79 10.29L2.79 16.29C2.69627 16.383 2.62188 16.4936 2.57111 16.6154C2.52034 16.7373 2.4942 16.868 2.4942 17C2.4942 17.132 2.52034 17.2627 2.57111 17.3846C2.62188 17.5064 2.69627 17.617 2.79 17.71C2.88296 17.8037 2.99356 17.8781 3.11542 17.9289C3.23728 17.9797 3.36799 18.0058 3.5 18.0058C3.63201 18.0058 3.76272 17.9797 3.88458 17.9289C4.00644 17.8781 4.11704 17.8037 4.21 17.71L9.5 12.41L12.79 15.71C12.883 15.8037 12.9936 15.8781 13.1154 15.9289C13.2373 15.9797 13.368 16.0058 13.5 16.0058C13.632 16.0058 13.7627 15.9797 13.8846 15.9289C14.0064 15.8781 14.117 15.8037 14.21 15.71L20.5 9.41V12C20.5 12.2652 20.6054 12.5196 20.7929 12.7071C20.9804 12.8946 21.2348 13 21.5 13C21.7652 13 22.0196 12.8946 22.2071 12.7071C22.3946 12.5196 22.5 12.2652 22.5 12V7C22.4984 6.86932 22.4712 6.74022 22.42 6.62Z" fill="#12BF6C"/>
</svg>
